<mxfile host="app.diagrams.net" agent="Mozilla/5.0 (Windows NT 10.0; Win64; x64) AppleWebKit/537.36 (KHTML, like Gecko) Chrome/131.0.0.0 Safari/537.36" version="24.8.6">
  <diagram name="Page-1" id="-GLKs-5Lp6D6BjhRnz2E">
    <mxGraphModel dx="2610" dy="2036" grid="1" gridSize="10" guides="1" tooltips="1" connect="1" arrows="1" fold="1" page="1" pageScale="1" pageWidth="850" pageHeight="1100" math="0" shadow="0">
      <root>
        <mxCell id="0" />
        <mxCell id="1" parent="0" />
        <mxCell id="yzWlFv2qgCpfA1fJS8uX-1" value="" style="shape=image;imageAspect=0;aspect=fixed;verticalLabelPosition=bottom;verticalAlign=top;image=data:image/png,iVBORw0KGgoAAAANSUhEUgAAAQ4AAAC6CAMAAABoQ1NAAAAA9lBMVEX////hUkIAAAD5uQD5uwCLMSHkU0PhUED5vRT//vz6vyHhSzrcUEH7z2X99PL96r/6wCv80W/81Hf7x0aJLRz7yE7/+er7zFv814L/9d394qX/+u/6xDv946///ff+8ND+7cj93ZLu7u7Gxsbwzsv83Zy2trblXEvLSzzd3d2hPC3y1Z7z5eNhYF8rKyvg09B9fX3vpp2hn588PDxISEjywLrrhHWyQzMhISHrkofoaVeKior13Lqze3LBjIXpdWZubm7bu7aiWUyaSDmLIADus66yaV7brqirNyWgamPGrKneQS3zzZGtioT2xX3HQC6xVEjRa15DRXFTAAAeFElEQVR4nO1dCWObuLbGhbAZzBbMYrCNY+IsdtOkSbPU2Zu205m5977//2fe0Ypw0k6aQKZzc08bFiFA+nR0NglZkv5H/6Pn0nA4NAaSwU4NOB9Aar/flwYDOOkn/f6gj/8SepwksB8asB+NRgk6TUbJeDQaUxqNUTomx0nQ0/CLkpFjfL8cTyj5oL/yPKP/iNsGSerFvgNVcuIyjco+1MLxfTuMsrgI9cwrzCAKXERRGIauabpZoJs6HADpQOSAH5K9C3tFUXRMyj0i6bJiBl4cI5ChsOPhAGjYH/cBIwMlDg2D7BENUCZ6LKFLuLUkcgWTgZuP5ujnJXkOqmTfCVPDGBVl6feHpHXH6cjPR+ihNRqXcZw70FJpnpd5UZRBGLh2FNlx6Opu5EVRkMGfqciEUA2izA0yE5/xZEz8iCX8BcmuCw+3bdsrCmiAMAihFWQ9jIvYj6IIoPJ9z4PrcBJGfuxDTnQee57vp0XsRaWHL6Jkz49jmxx5URx78Cx0fwwVtD3b84vIjWwlQOdpXsLLitTx4tHjeG2UA7PEuiJnkZtEtObwh3FRdPiDLdo91Pg/QfI9eiDpSaTIVYEZ6S7mTBlvEEWPgmOcJuPSC7K4LOF/ELpRrOt2hntKkaYpsI4S+nYWlDY05/dKUp3Rl4uk/0S19Xp+HTcNagcT141dMc0sMxHb6m7mxTb0XOCPzIUUJcuCENIz4DE/zOAMGDGw4WJS5wKnnzjDgTMe1FKTUW8AnQd4zfdzIMfpp84oR/0pB6GXx0B5CgfQqQo7i3dtPbTj3TxPgcvDSAF2Bdx2Y+Dk0AyAZwMoeAa8HmVQIhv6n58v4wxYPt4t4B0R8HMc7/4RQ0qZO9Bp/yjLskAvRq8fpdCfx3m+G5eOkzqJM87LZQICuo8FMpylu0WRj/tSAj0fmitPBg48APoOFNTLsiiLAI0ggC42LqAwfulHgSz7melUtUbIDA0iompiGARQdf49gd/r9XvDXg8ORj1pPB7gfL0B0iyJASJ6jO81+pBl2BuSrEg29pjcQ1fRHi41plQMIjvRY0EKw8sgoZ/04By2Rn+ARDOUW0KK0MmAvcfVvWlThfhn0tCOzGz8d5fi16HYVbK00rTDH2R9DeSbppxXp+XfV5JfgYwoMuW0Ui3F31iWX4AGYWDK/pifv3JROgCXQ44rT2b89xXlV6B+AHDYVWfpP8bH+++lBMxWOazgGIz/vrL8AjRCxr455udD5/t5XwElNrg7Ahz9161pkyVyy8f8PB9/N+troEEpg0tc9ZAy+UHm/34aRrIc6hUGr1t0SJInK5FeaVfnlTstsaxkAnfUYz6vjnoFinIKneWlzbBebz6fTo/u7k5PP1zOZjOt8zui7u+qNpudXV6e7t/dHU2n83lz8aAfUanrclj1kHT8Ei9FZPTm0/3T08uzs9mso3YxaUCdTsfqdDR8qJHkrjo7Q8ic3gEs7aKSm7rsVz0kexG7A4DY/6ByBDAGAAHCAZNlWXjbwXuNgIOw+V2dXZ7ezXttFWw4Bo/Wq7jDbtulncyPTs9w1bROnSy+EQ9WctE7L/ePWsFkkGS6nFWyo2xV0/am+x9m94GoA/CXZOFONPuwP2+8gMM+wGFWAy0tyg5jvn+Je8cPa1pHxXoII02z4BkIksujhhHB3BEI0bDWrNL5/pkmYKGhblBDxsL/qv/k9B4iGoUD49K93G+0z/QdW5HDijvilhStcTTraupDTS1yRm1PDy1VyGaRI8vSaC7t97Npk+V0fEUWBlrydrijd7oqMKwOZ4aV5HugdFazAHtUyGrd/QZ1bw7ckVXyM21HlN6pqyKj3gcehQK9CD3FEvlMUxvkDwesdHnJT+1W4BhcfkebCBiIfUQ81lZBIkylVQh2z5oraVHqpmCk2/kP8j6ZepcrQvN+m69UGltgq1KEYqWKZ0ggNwhHXIcjaMUqnfwfk3wdWs0H5GZNj6wgsZJWf4T2n8YKmsSxEigMjkTyWuGO+c2WVdWjXqcaMPdk68NnlTJGzHJ801hBR4GvZy7TrumwbMVIn9ysH1tqJSLEjbWS9qDlRZNFIcOhOV5vDo5hGelmwFy4OBm3Asf8dn1tZ8t6yO54qP6Mk7iMqHUplVxU4UC1rK2dtfXbxgo6cGLFVZgZhub9NPZogYzP62trazvHq2Kg8mAf6BHChRokFpU/KoBxvAPPXf+tuYIObEURROm4Hbvjeg3hsbZ2vAU1UbniWIHHEjrDg12Gw6cCZ2xtHeNnrq/vNVbOfiILcCRJ3IoolXrfbgkeiEe2LILJak3Jf22G1I8261jayhVmfQFXWFuYLzAaO82hIRm5qyuKAIff3LMF6hnTm3UGCIYEJAm0sQgK6zFgdGpnmoZhqWww2EJ2EMeABIcCscZvc6lBt3YswjEY2F5zjxZofy5Nvn1eFxDBoAAqmFUINJiAbYAJMGNA5WeqSkUnMMQWAmJHeAA87rdrQzr60mBJkZE+psfJIIobfHRFF5dHhjTZ+/NmrY4IAmVn5xiAQcggsjBAeEfOjjHt1HCgveTmYjqRpCPrormCDnxT4bOh8r7fzvSfi656OkcRoOvzm/W19XuY1Oj2duf2du1e9UWuALq5uAYspPlp998NwpF4egVHnEStwNH7c0vrzk6nKFTT2/ty8fmGVOpHoHwXh/W1m88X1zhU2js67XTVrw3CAXZH5dEWiW0392iBLo5BHmjq6T5GROrNr7+cfwYWoPX7C1zWGd3e3txcfCNQGL353Qe1CyLma4OyI41AdjBTNF3G7YjS6x2sM7pdMQbe255ef7k4/3xzc7uGEVlfr2qOYSIpawiFz+eAw3Sb3Yri8d3fcdhA/dqgph0FcmV3pKO0HTimt1skxqdpXfXs8vToaM61IxqH29ubXn/7coHonBE++/bl23Rvbz7vsUE4PFq1fznrkAgKMulumguXDhLEHcyFK0dJO3CAS8tNDDyAhDC5O5rOJ4+vymQynx7tn16qXRSCZgEUS936rbngYN+PdVlnojRNhu2YYVh4CEQH1Trq7Ozyw/7+0dEUD8MiJuj1enjWPiE0gDs9OtoHGC7ZyGUVR8auy9dvzRUziQtQtMzYKPtpS6Nw347rTojFUQFcQOvMZmdoGPbyA9ApJjiG87PL2dlMBSnRRYF4bSXiaoH9Zn1qMFSaFGiuHOshcT9oaRRu77ZeERW7IdTgpLBQlmGEYCKD2OqDgVYLiw7V+tTgSEsSIBeORQTB7miJO3qfsfAQQj6Wyvhdve++8tFr7V7kuEIDOTBgwDYX/AE48IdSDANnWbQ0gt+7OLbowHw9/oWdFLEDdWgEQK3S7o3FsDE6FanZBo0wKXERHEyUjkdxW0PW376uBMppzIMeiYBYmloNqjwUEBMhsm6vGyxlEorckY+ituDY2xHDOiRobuE4Dk9FY68WGmGzLDzXRdMEmO7BQiLyqnXb5Kj1CE2z5UZ6mgRtDVlPwBCrhk5wHFkVgmIgTsGbh38zbdZBuxk6tWbE+bcYo1SdTUX/4a9JqwPgiBAcLFZaJkE70TCgSpaSitQqh+D4sDe9R6ddlbKEEE6t5DFQo6JDSkxRs6T90G3y6SJdHIsBUcwfKov2IXy6pw/ctN8l8vd+/NSiva1J/w2EJ/6smdkdaRJlTT5dJCY8qs7C90hFABwPcP1+11JXBqMYt9Cz9UmThRxhOEJaknTUUjRMwm6LqBlUrlJoT/geHNguuW954HQQHQ36bxKyOzAc9Cwdua3N/pmc/1tQj+xI5eB0T9mEPQEW6CyrXYTDiTBSv/7ZaCFHGA7GEvlIacejRXQhjjrhITSVyA1Sze93FvXeMFUFz3GD/pvE4GCiNF/q7UTDEF1XwkNlhmWlPr8nOzpUq3L5ySwzjKW10+hUKGkk1+DI5dZkhzSvLA+LgSII1u7pA1IAdxaLWbAdNijFTfet22ZnlxLNwsywPJBbindI3IvjzVxV6kfcIViixHRlTIKcQHXrvNkyEu5g4fM8bRGOWggIqwU8kUeltXuYOzTiqt0Tp2TTaNQYEVG0DIO0bLGzSNe3gugQbQmM0vdkR30wl3Uz6gavNRg1RjTG3MHkZ263yR17t9TywCqywzQGdcUIHGitjbqixT6LVYeDwglWR8OzjutwAHeEP8z+LMLCgwV8VNH0IGZYlZNjItoddS2LmaZp0SGNzBp3JHLW2scRknR+rAqxG1JDBsuqzyLAwc1yIRZE+lrTokNKMlnkDkcJWvz668uOWrUsqyFl/BocvEmIZmFKZSZIYhwhajJqjKmfiS5cPrZbc+GkKn4sGBK4VlhxrGoWzB77XdXiiHU0y5p1eBQNjr42zcojxc5kwSqNzYZfINIchAdzzGmFiAxBCSBK0WpLePiVYGFU3EH9PAwHs9+sTqNRY0xjGcHBg4O56bb4baBxvqXONMb+qlWJA+zCsaauaRZLNMy5UMU81bT/BuQomSka6WbY5oe0X76ScaNqbrFKJccP7A4yO6iCgxv66k6TUWNMYzkA6cGN9JEeNf0Gkfa+cguChcaYu2ppl9Ojoyn6d4e2R2h/fdrlkSKRqH3faNQY00hGK+KN6Znjy2Gb3xXTEJBFZEbHoqaYRQdW0IAbnh2mYjUCe6yYKWvwKCG5oaNufW7cKBgrmQ5GOu0hI98MW12T4DNxW7DHwhULsz+0FVLhT9CzCA3i0FKZ02zUGFOCVi2UM8oSaRyarX6E/+cxC31WxpjaqXswonAhZloVHaSiB9ntaudT46IDrNJaJN2Ogla/Yr4+ZhW3RI+FxfoqOAT1qlpcB7EoPOlt681/ONoPXFdWuGbZNdsLDiJCwoNrBqZDLfHzar7l2seqDPSOIDk6DUeNMSWhKUykdEq5XTh651tCoI+MpHXxFA+r3ltqbLJyhQLVuP8mIZ8lEyZSOqncXqwUEx98IqLU0rpdPLnlrNu17uNADjStJl1w94HdcfOiA7gjEKfZjtqG43rH4rEb2HbP9udIdhu96Sn9QrbODQCbdnapVcHjyqFtOGqMCS2jJnDHsm049m4tQY5qp1WVenczNrXFEioOftsRjafXGacN0SElgakLoeNRFjT/DpF6n4WxuO4HUTcYU1F78Ip3T4c9bG1w+5UYbVvNfdRTUYIdfJv6bc4oa23ImtKfWyTSaSGzfEVTEv6oC09tBgy0jz+xJAkkVqg2OmGQ0xjbHWwBD2epmy2vKUMsDwub4UdCOnpt70O3rjwsi4RQe5eaVbl9hEEa/MapolFtBD935Ja5w5j/h82R636gnd/gLTBlYQ1ece0Mc9C0y9mFBVqbjhpjqs/vyJetd5YJFR6gVe7YvGp+sfoam/WW7j5m3N4HrRIqZNZP8/4b0DyoDVmnrtn2SlnnWzQqaBGtYvAN7E67ld1F4qO00tOZxhQOjRq3ITqkfiSGjvNC1tteZe/bMYkdq2qN2wkqp/XlPCztTqKdCYASbBK1+agxpkHogqJlMR8nks22Fw6b3lp4NFJj65BQ0UFCxfVZtVRy4Ns0YotadHrt10Zn/TDqR5EwJz0NsjYj6ZhICEgFv+0BPjztiqJD6wq6Bw3IUaWCZ/20UrhhhKJhXHbEbqvBQUS9iy0yyCjWlcqO3pkmyI1O91IQl/MzwjlE8jQfNcY0iJALx+Hw9HY9WkRfvpKxBDqSwBUL7Oe1yfjUMDHoH46qMx38tQX/TUI/KlCbkx62rmglafsriecQ4cF+ygKPr5x2Wayww2LrBkNDmlMtjO9uPmpMyEazoTyqXZ3sBeCY39JpHdrlypXpzGJDdIg5tGndQr7TuE3aiv+GyM5c6Cz0vXkWti5K6fxjzPVs0S/y+vkZ+Y7JYhaYcA3tBpccjxaixpiGHoIjotxRuv4LwPEnm0KozcRx2aNL+i0TVSsW6w+cR440BlfjQ/eMPDQKx8ywWPdanP3DCE8hxF1C6344ooDM96vwD4Fjn+UfYsGCjPUPdH6DtdOS6JC8yBU+/tKzFmf/MEKfTZLIhqVp6tn+3dHd/oezaikta4YHcvF3cYgu+RY5tihHa6JD8mxXzthUuUJWWg7/IOqd/7uyPPGXtV22iiBOnmkakqnkSzj8URz9jwLMxH87bysM4YEZZjOPtpRBjLS++LNx8ZX6YkyGCCKDKFpNo0OWPBfROSRkqu204r8h8oJMDpjAKLLA67e/Fvb1Mf9iQbC6aK3FARUSb+dwsAzWWiv+GyIPjbMwyzyOstJoORwmES9OqOEKb4gplqWK+BA01K3bVvw3RL7o4Bee+RK/V9O72bH4HLkKlRVs0KCUJs7soPFB1dppYcCJkOGhmZR8jHZXeQHNIkkX6ztbaLrCyjB1fSTOEiZbsl6EPiXcWvvUmugwwGeRIx4cLN0X0CwgPNbX0LJqwoxi0u5Er7AUlabwAVy0OhZeHKuNqDEhtPSPzz1a/wV8FgkJD7yACV4zS5hXibUG9+HYSDVBCi2aRlfHWm/Lf0PcgZaNr+IdZrvzO9hbP39iK7eg5aHwuAlZFsri33UQnEg6WhaqWhTq00V70h58FjniU/RjvfXQMab5+crCP3TRLLwslEB4cazj2qpI6+sXLU6MtsNMjpmiTWP5BVw4RL1vN5++sxTSDqHvrAL06eaoRTQk3w5kvuAPaJYXkR2Yri9uPn16/PJQkPPT+u1Fe1IUk+dn8i7zWdJl9HJw4DWzzm9u6apHP0YCLY91/mWv9Z/h8H3XXfJI+jh4STgQ9fauCSafPmFeqdMnlLx2i5CYttlHOOWZaTrsJzjSZdDi9yw/osl8b7rxBa8L9RsmvDTUly9f9vbmkxf5ZRZCY9eVU48OeeTLrPWBhcdQj8eLX5pS3XSXEYUDZEdbvyrwDyFPV9ylS1esSJ3YftVwDGwvcpfsB1qKUfAiPsuvS7YfuiObWubF0n/lP0jrm6biMCO9WBYv4uD/uhTLsszhcCIve90/DOd7WTaqhqyD9hbw+EeQvxt5FRy7bvaqNYsUx6E/5sHBwm9tpax/BsW26yfV9yxx9Mq5ww6ihH84atqv3O6IwyDissMJo1cPh6svuaL1g+yVyw7k4LNomDO2M+dF4gq/KqWKkvH1ntNlqI//Fsf6V6FUVnSHD1mHUZS8ajgKOdALDkfk+X9P2OVXoULO3JjDUUZtLmfyD6DU9U2vYEswgmB93WZYnvlKEVOWWMbP9Fm2D95dXV0dbIhpxnzjXv8z9jY4/dRcDXTD9nNK+BeUB76Z+ixWakfPcfA33r2h9H6TIbBxiBMO6nWYvBHpcPPR8gpl3/hxlgminy06o9z0dIdH0sEqjZ+Mx8aJUMUDksYBerNZK/LbGh5v3j32HY+AY3Hy9uTjz5eekJNFMv/ZjcTL3PKpvaXe4gSPAyFBHE5chaMO1g/oEXAc/gy8qzQIY5n/vlWx9PUn/3wzZoR3YNNOPuIaQgfYRvvFweZHxDcnQt7Je9SjDhC9w8hcPfIlj4DueXBkIzljc8O8pa88deF43OALcvyRlhoxxwL1482VVhUzb6Pj94/s7W1zx8hcVnAU48h0ngrHSVWMDdpbFrwt39dbFXMHhUO6guO3AMdkE4jAcsCPQFldHS7esTMOB85MgJlsflwc0hyQjB/Nrv0sOa4vB/zTwDI0B0+0SnGDv6cKhEr3w5O3b0nK2+9zBwZtYRAWotl5rXubVD5T6cgubKPkQ5x5j+VA0mqDS6OF9BTKs1iJGBxj39WfKkmNBS7TO1Fpbm9PSPU2qTBhJMKBq4M4Z4NyiVTV2qg0E+E82guFDiZI64/0Rc+AI/1XLnM4llH49GXUeMO8f7ctWhmTjc3FqgTEneXt4t27q8UhrciDcOC6Hn78uGCZyAXCGxP+1gXNAVc+HuBrBx8fq6vqNMqWss8/HI294OlWqdBOJx8r0bhNUmrTdlYULRE5G/c6C5ZHV/CoHpYvPXoBg0nQwD0N9RLMR1hsP0uUDs1CDjP2tVPqPwMOZoES4pJim1ZZnP24ane8ZernfY07EMAnBn/IBu0suP1JlGqz6hboEgJz8Rw48tCWQ5eO0eZ/+M/yWYztd4fcNGXsMFks3r95U9elpLNcIaou3u8sqGZX9A4gg1w4EdBGPAF9E2jvkPLJs7gjjUI5Zo5K7gXPHnba3ry6J8t6B2/qZRRFKbHaDggcde5YUc/0gvj0RZ3LrqQG4EjZ4EoePv2jc9FzImYpqBVQLSQFa4iKPWp2h4Sa++0DinaCdvX551XNCUwrcKBHPguOMgiVmGGQB9GTlyRYvH3/nlcQ47G9+ebk5IokfPsRHKgCJ737otR4+4b7gpQID+Ab8NOwzXLAaVN6puxI/Ehesrm1eeQrT4ZDrPABhQO3Ok8Q4BDNMGyjvSWd5QTDwQSnIDsW7w/fU1G6INcPUfK7+3V/ns9SBnLBxprG5dO5A1d4QUclFlgqbr9hrWtgl63KXIMD3wkX51xEHtCjA8I2EoWqx4UKc4pE8bu5WGBFu3jzVBtMQl+d27KfsbV/8ujJ3DEhnXdzG+yuBRVrWPEezKXtBQeGZuYe7ccD0v3RRQwL1HnjPa01tjuQ/d47pHUUL7yZ08pfIV2MgMHad4F7Uu9pw0VJGMolU7TLouC/8/TTVNnHhCas1IKY43CsxjtwjepycYM/8z2GFfej2gX0RGLVvF+cMH5h1uDTGKSfxXLOWMIJ4qfDUYv1vDnZXIGo5sJj7hDo0KjlPjyktTaEZ+JuxA+wNv8mrfosEncWrp5Uh35QyDn7iKUIni5KJR73wSVj7jk1Qk7qCmIiYvH2HbNgKR7vjBNWa27pXhGrjvMAeQJimG3KVIfMQtl8+3TuyG1P3mW/7RTH/vPW/plsHHy8enewJxqgmx8/bs5XozsTkcTMIEzm5DJNMuaQxMPt1DjlT8A5Jgfwij3x4Xube6tvfByVYSR7zIUrduOw9Y8CfmnKw1gOGHeUcRyOXuLrr1+W+u5SNpndkcevnTuQZgmY3VHGRTB81XAMFRvgoCdpFAWve0LDQNFll3FH4YXuK4cjzOSMwxH57uue/dMzMznS2cpQUWy+7qlyI9lUTGZ7Obb9ymcO5mjBCpO6f3n0yr92wr+TxyOCyyyOX/U8SmmA4OCRdLN45XPShxgO9h0t2OuvDI6VtX2Gui78IInsxi/nsvQR8uAiGVVCX+on/WGSJMNhH7ajpKKxM04SZzxynNxJRg78G8Pl8XgwhCRIQ5vRIMnzfHc3hW25u1vGu7CFhBwO/1Ui2i2KsozBN8NUFLu2HzMqdnfjP9AyatxIl5meHQ6HA079/gDwMgYDA1LheMh3w35/5KAs6AH9HMoHmfvojrEDVegleRwVsReFkW+DxRtkWea6cT4qwzj2TBNOsyjK3Dj1bDvy0Febpm5mpmm6cKBnGWx0E23Qz8hAIt7LCrQgWsFbQWeui1ZrlhVZR/fqMiVF/hEprhlEmV5PzNzMzMAM47ID4ADQx45TosJnqPRBGAZuEMV5aWegd+zAzYLIjkK44NmRnaEnRIFtA7ie4oY21BnugKtQzQhwCDLzwQLpuMr0mpJ58KQstP1Q0SMPGswLoZHiwpUV2/cjGdVeDwEwO4zgffAWV1cIoWvoEYobhbrMUv6KCOIraS5KNUGzsFgpmCCh7/uBGWTQfv44LTJAHUpqR4Vje1DQyM5TLwtDBi1qPVN/sMboKsABsMVQfPQ+aBGohu6GoW0rZhTGaelFEbpYtZuisAO2YdWrty9NIxXJAsQOmFtkHf2oCKqcTm5BSLpQd3YTbgi40XSh8IgJTb0Oi8LMsNQMochREMYetBW0buCi2zAc8M+OPS8IPC9ECGAGhWfr6JmoWDIuG347LodOGR1fIFXQaa0AEnwVOM1ElfgunLJsh6aAg4IYVjjHr5ZDP8rwe4HdI1MPcI4APRp1RVQEuMuPfXJn6EXQRT1gd8+L4BpBqgY1hSMBiZQjGuGD0Rg2zng8hg6EuhAQCLTRCLJBcrHr5ONkBDlGSZjlSKDBNbtMY7h3Ny2L0kn6SByO8HNAhu16Hog4hKvnEPGYJHFUeiDdiiIuHCT1/vC9EAs/JBLLf8XL3d1dkHEgC33f/sPJISmM4jgMfK+I/TIf53n6L2BoJ03/8CPobnEI/RQIDiNoWq+A6hSeh76nB160QYb5fhGDTN39I47HOZQphiylXzp5HCPB6vvevbmkP+nHDXiUpFq8uHdfRw3Re4bGsNJuveFw5W3G8GHd1jMM+hKQ4Ab6Lz7YwL+8OKRkYJLQHYjIG9EBykUy4FeRX8AV3k6SX0y5/nO85f8H3tIf0kSbYP0AAAAASUVORK5CYII=;" vertex="1" parent="1">
          <mxGeometry x="250" y="-10" width="101.61" height="70" as="geometry" />
        </mxCell>
        <mxCell id="yzWlFv2qgCpfA1fJS8uX-2" value="" style="shape=image;imageAspect=0;aspect=fixed;verticalLabelPosition=bottom;verticalAlign=top;image=data:image/png,iVBORw0KGgoAAAANSUhEUgAAAOEAAADhCAMAAAAJbSJIAAABUFBMVEX////aqDWIaiL39/f72IxjShoAAADcqTZ9YyLrtDXZpjXeqzV+Yx/aqTiHaSB+XQCxjkGceSfnsjd/YA93UwC/ky+DZiF4VQCEZRl3XR/X19eWdCZ7WQDTmAB0UADWnxSVejv15ceVlZXp6elYWFj/35iIiIj18uzGuaAdHR3IyMgbGxvUoCJ/XxWmpqZoaGi6qoretFhlTBynkmmfiFf16M60o3/ftl/v27JVPhNRQCBoUSiUdjCGbzxJNBBRNABIKgDl4dn/+e361H//7qP/5KLZ0cJsRAC/sZrj3MyUekHNw67HsoeKXwDeoADcr0ifg0DsukywnnV/aDnKoUVNOx50XTPAmkdgUDFEMBGvijlXOwZKKwBEMx9eUDqCcFCMe16jloGYiW3mxYHkwHHq0p6vhyzDlzH703n74av96L68o2ihhknOt3rr1I+aglrkfEImAAAN30lEQVR4nO2c/VvayBbHQ1BQgWQllAwakeJL0EJFoVhfqrJWCmHvUu3Wete9d19qt9tu7/b//+2eM0l4kxcLmZDw5Ps8u4Y0wHw43zlnZiDDBUxtrae31/zToLXt9PpWk4sz+TaXuGnS0uZWJ+HOdPGhlnbaCdP+SbeHgfzpFuHTSTeGkZ6ahOlJt4SZ0jrhzjRaVJd/Bwm3pi/JtLS0BYSbk24FU20GuCfTHEII4hNufdJtYKx1bnoTqa40tz3pJjDWNrc26SYw1ho3vcVQl98jdL08QvfLI3S/PEL3yyN0vzxC98sjdL88QvfLI3S/PEL3yyN0vzxC98sjdL88QgYq//DczreznVDNJ/714+5j+97QZkI1n5MTi9HVld1ndr2lrYRqPhkj/NxiNOjLrjRsiqONhGpeSRKe58NIGIlkV+zxqm2E4M8Y8hmEPl/EZw+jTYQtPiQMIaFdjLYQgj+bfG2EwBhZZc5oA2EnXwehEUemeZU5oZqXku18XYTIuLqyzzCOjAnb+18fQtaMTAmxvnfz9SBk61WGhFDfk/f5ehLqjA0mjMwI1bzYk68PIbu8yoiwV/8bQqj3R+sZmRAO4htAqHvV6pzDgBDqwwC+gYSGVy3tj5YTdtf3byQ0vGoho8WE4M8++eXBhFbXR0sJy6XB/qQSwovzgwmtZbSQUC2JyjA+QRCWj19fzs8PCaOFYwDrCK+SPcYvXXj88rH24vro5sW7xnw0Ghoax8b347fLOsKB/U/gMXjH2pvro4PZ2YODtzdvvmtcRucHQkZ8KxasyllHKPQnpN5MvXhzNIvam93bA8iTw+vXP6FfQ76FfoyrFvRF6whJH0IDD4J3MNsUMEIoT94eae8AMhpa6A3pAkIIbNOb9wWhPDk5HOBXhxM2vXmg0/RkpH592/SriwibefOgZ/Q6Amn6tYF+dQeh4c2jo9lheC0dHBwegV+jEMoFZxPq3tSMvPlwdedXpxLGifAwb/aEnKV+vdGM8UDEgYQCVIWbt/8+GwnQxETIFzS/Rh1HKMx9d/nu59epN0eAeXJyYPqvdx7tQ7g3a/r1UfZHR41pjoEw8fM8pIr5y0jjp3ffadc3h4CJ0jmHgO7t6dfcnp7+8svZ2cl//vvrD44al6YkjOH8AgxPgiFwGOgy8tO7L5B0bg4PT5qcvdHw7+3p7dnZ2enRr7/9/nu9oqrWtMxyQiPPQ8YPhZASalwUIvoaBzaHbzGmbRGjR7e3t7+cnp3eHlz/9ke1XimrFjXIECvCFmgwCKhg3eglWvf4BURUt+4t2vH09pbGrAJkbNY1GRO2FNI55y+BFProm+uDm+s//qhWLY9Zt2wiDAWpZ9GyMI/AP9GG357vZhkT6msV2B9Dvo8f/1xc5uNzezw8AOAPz559b0GuHCZmhHrQQtSfjxAtPAcKh+PGt9y4SLHqa+y///D8MVNQ66sFxowOuhY+Plr8GELCRCIMaHFjXG58j4/KZrOrqEhj9/2Hx2xCyoAwqMcsHk4k9h5FkbAJZxC2fcsNsaSgWYjoSnahcff++XNrSVkQRvnE3BylSgwhbBPA+oI0pCur2cju3QerYsqEcDlswHwDYRMUUEPUuyvwnwUrpk4jbAUU3bviqLmFlYQGp8Pmh9YTOm2O7xF6hB7hqJoIYXTqCac/hh6hR/hNcnKmmdpRW3PSuLri1JF3iE98O2HEmFDQaT9MEbN0gcORa95AuJiYSyTmwuGwQcgPIjTQjPWM1ZBv39oFDSbrNKHQwke6kmEQzs317IeRFhouSt1BzJ49s3yphslaW0hf0I9GfQtBGsMwxBSCGu8gRDdmgWwXl9uefc9qYZjlemkwqNsxRNfd6IpiODE3l1imhNnduw/Pn7NfMbVlzTuoh5SS/vnn8mII00mW8Wq+KZtW9SM+c40YOl12IbK7e3duz5K3XYRZXQuNxt3dzMzGxsXFxcZf53+dn898+vQZSBmiMiekYAuRBkZtw9BMm87PAXRm5uLT588uWfPWByRNNl+jsb+PUbvPNtMFCoILP32yeHXfckLDj9lIBMlmNi7AkQPIeqD+hagbnz4/tsa81v4WI/FuPgh9bf+uGbWHo3Vx4v8unTXyxt/T5F6/v3j5EoM2KhoVZqKZu0bWYWve+AtaIZfQ/v7n5cuXYwAC3sbMbgSM7gs563sL/TfCQk7Oxb/8758RIdHYdzqe8+aHzV9BC7mcHB4F0vRmtllqHEqIkPFcMpdCvz60Q9KuZwbPBYSmX1Nf/nfxgFBSbzawgDaLqRsIQeQhfsXEQr3ZET0nEvb+rb5Acsnwl35+pXlzv2EmFocT9r/fgubXv993+xUHO3eNhZ7BcyShNPCemRyGss2vg7xpymnVIj7ktjzMr2Ejv2JN7+/NJqDDVhPLpWG3Vhr59e9/zgd70wzgyr4VN69Zef+hWhp6+xrm18RydBielTeSWnsPqVoadIuzoeGr+pbeKGv1fcBqflh/HEpo8SYS1t/LfX+rj3uEg763iAQt3iSDxf345nZJIxBafSM3x2pPhYGM/QkjCww2AWO1L8aA29b77ovBZhMXdnub9N06ot+3axbVv26x3J+mTxx7ETLchIftHkM9t6i5T8h0syjW+0T573u1m5BB/uxoAWPCHmOATkLWG2HZQHhvDNBOaHl9vy979tzrqI8tQsb+1GXXvoltjCYhk/p+X/btfdmsj8Y9M0HrN0zqKTv3LzUYkZDNplc9Ze8etDTn4A6tzPNLS3bvIwxjgFeLP9q4ya7thLgOsMhmc70+msR+3jb9zMSQt2O5++URul8eofvlEbpfHqH75RG6Xx6h++URul8e4UOkZlD0sAIHxhS+x+Ea/K2XO96+jKfWOh9nym1t8uOTK2MsC1hBmHkly7Gkqh/GXtX1Fy4mZeOQI8mkUubKhWM5FlPixWqzvZWiEJOTYuprnbZCzWs8XCLzWt68pKpJyVhMShUqo7bOCsIiEYggUpqyJIgFerIch3N5eqgqgqRxFUkkAohIyYzxxIws4SlClGQNn5JSJOMSJaWHuiBL+gk5PmoYLSAsQ7M0QSzSBxqRNPqKFRkapukXiARYNYkHkqQsiim19URJxlPyVz9+JhJvPBZ4iSBiPSYIUiwZUyS5OmrzLCCsipJWFyWBfup5UTou62fxozcOiViriPCwXqtV8uFC84kQ20qtVi/IGbQ1PEMp1OCSK4XwInw6/q9oCTiTKcq1yRH6NUnMqylJod6ry0SkXaYo8UUiZvRDIqkZWdAfcaqZa4rQfv1YhahWxKatuaoiCHKFUwk4Qg94eeRmjk9YI0SucwVF73/gPBmbqUoSXxepdYFeKnL5mKDUO5+pSURsZdYr6K3F1j9hf1ZzcGrsCIxNmJdJrsxlFKJga/1FiaJCXvlajknH2L94Ila5uiIQvjMhlpDJRIQnCnLzI6iDgVN+sIcglcZcQB6bEFqhFEwMDptN4tDqkihW4Z8kYEL4ClwHiLFipe3tygQA5CvDqJB7W50NrCAdr6HnBVGulrkxNDZhJSZgnoBOpSfRukigB4HN0LoipkDIG3PQxrKmQOqMaW1WrRMRKoVMa12ZENKqCKpOyFWhnhBFKo3BODZhCZInNgzIaKcq8xJklDVeAtPmZQivqum+5dSSpEDQlELLduWCCPlFEfP+bkKiE3IVTcFPIV7vft8Ha2xCTHeQz2t1Sc+EfsgrBXAmRrSCqbCm6LkHgfJxsJ3cnjwqwAjuLeEIATKuedpwKb5evQifC0lObExTUXiexEAKVOkUnimIJA69USnRLCrXKgqRms1T81DlO3MqxFGA8GNWSXb2Q5O3gglHG7Wd4xIWRLpJOQj+0koIdY1Aq2leLCpKBQYDx62hNUSXVwrdr4FdGQq+0hy4lHAw0LxA1ZqV89s1JqHKE16KyaAYjEMwbpwqE75eFHlsURUyakmiZc4s2bWYOXL1m9wwGAA2qPI0C6NwPAepWTWjWIC6MuqgZkxCrFtFOnnK5ONGqoDhZYHXXVWTSEEjtH8WinSS5M9DwIwBuVagsyIVKmGsjh0RnkX9XIOYEVEFe+bpB1NLtfdRewnRYGav+ioKMWxgCYxLjPSZI+BhBc8WYJJULBY1YjyGtz5OSngqBb2MqFgZoCtL9BoYguMEpKbIggYnwChisXcDWBNiAjSdhTajXHWYVQhGcilIAswo8C3gs5AkBdNizOiGKkwgJEXECpKknxIMFngiiSJOOWIYZzpaVxQ6BRm5Io5HWE+SVtqA2Y+ENi3L4KmcbqoMHCs0ZeRhCgQlD5BKxjv6izFRPxU3JowZgtdAziIaPVPWYpC2CBEVbeRiMSZhIRfPmdNZaDE8quOcB/5+1V+2IsfjEs2QfpgCwXmt2soY/kpVw0szzfiU61dwPYTsSn+s1vPxHIlf1Se2iuH3d2xZbT5sO9txhf/+Btf3TsE4AREzbReMV8+cuNYGHZmIow/TuuREQpxWEWX0ntcpRxL6tWTy1egj0a4XcyIhR1dNLfKpMwmtlEfofnmE7pdH6H55hO6XR+h+eYTul0fofnmE7pdH6H55hO6XR+h++bm14Re5Wmvc9qSbwFjbXHrSTWCsNLc+6SYw1jr3ZGnSbWCqpSdcYHPSjWCqzQAX2JrmIC5tAWFgZ3pLon8ngISB6U2n6YBOGHg66ZYw0tOASRhIT6NR/elAizCwM33pZmkn0E4Y2NqcLsalza1AJyEwrqe31/zToLXt9PpWk+v/D3BXmSljAvEAAAAASUVORK5CYII=;" vertex="1" parent="1">
          <mxGeometry x="460" y="-20" width="80" height="80" as="geometry" />
        </mxCell>
        <mxCell id="yzWlFv2qgCpfA1fJS8uX-3" value="" style="shape=image;imageAspect=0;aspect=fixed;verticalLabelPosition=bottom;verticalAlign=top;image=data:image/jpeg,/9j/4AAQSkZJRgABAQAAAQABAAD/2wCEAAkGBxIPDxAQDw8QEBAQDw0QEBUPDQ8PEBANFhUYFhURFhUbHSghGRolHRUVIjEhJSkrLi4uFx8zODMsNygtLisBCgoKDg0OGxAQGysiHyUwKy0tLS01MisvNzctLystLS0tMy0tKzU1LS0tLS0tLS0tLTUrKy0tLSstLS0tLS0rLf/AABEIAMQBAgMBIgACEQEDEQH/xAAcAAACAwEBAQEAAAAAAAAAAAAAAQIFBgQHAwj/xABDEAABAwIDAgoGCAUDBQAAAAABAAIDBBEFEjEGIQcTMkFRYXFygbEUIjM0c5EjNUJSdJKhsmKCosHRFbPCFjZEVJP/xAAaAQEAAwEBAQAAAAAAAAAAAAAAAwQFBgIB/8QAJxEBAAIBAwIGAgMAAAAAAAAAAAECAwQRMiFBEjEzUXGBBRMiYaH/2gAMAwEAAhEDEQA/APbiFFfRQKAQkhA0JIQNCSEDUgEmqSBFRKkkUCQhCBJoTsgSFFkgcLtIcOogqSAQEJhAwghCaCCE3KKBoSQgaEkIGhJMIGAmmkUCQhCAJSQhAEJKYUSECQhCAUgEAJlBFSBUUIJJFAKCUCQsrje3dNTksiJqJL2tGfo2nrfp4C/gvrS7XsI+licNw5BDt/YbKC2pxVna0p66bLaN4q6Np9qYsPDQ9j5JXtLmMbuBGly46C/aepea45tjVVd2l/FRn7ERLRbrdqVYcJWIR1E8DonZgInA3a5tjmvbeFjlUz55mdonov6fT1rWJtHX+2x2fq3wxRuieWHKNND2jQrY4btWDZtQ3Kfvs3t8RzLD4X7GPurrWbTVZMVv4z09mjk0mLNX+Udfd6hBM2RuZjg5p52m4X0C8xpap8Ts0b3MPUdx7RoVpsO2sGlQ238bASPFuvyutTB+Qx36W6Syc/47Jj616x/rUhBK+UFQ2RocxzXN6Wm4U1fid2dMbeYTISTX0RQpEKKAQhNoQACaZSQAKaimCgEIQgSEIQSCaQTCCLmoa1TSQBSKZSKCKEIQZXaPbiGkc6JjXTTN3OaPUY13QXH+19V8ana3NFK10NrxyAFr76tI5wsDtl9YVXxj5BXFRyX91/ksfU6vLW+0S29NosVqb2jqx0fN4LZt0HgsYzUdoWzboOwKlqOy/g7qLaPls7p81UK32j5bO6fNVClw8IRZOUtVhfsY+6utcmF+xj7q6wqduUrdfKAhUEO1EeYtkY5tnEZmkPbu5+kdm9W1LXxS+zka7qvY/JfbYr184ea5aW8pd9LVPidmje5h6juPaNDoNVpcN2rBs2obb+Ng3a87ebwWUQpMOpyYuM9PZFm0uPNyjr7vUIZWvaHMcHNcLgg7iF9FV7N+6xd0+atF0mO3irFvdzOSvhtNfZJJzUwhe3hFrVJNJAikmUkCQhCAQhCAQmkgkEJJoGhJCAQUJIEhCaDxDbL6wqvinyCuKjkP7r/JU+2X1jVfGPkFcVHIf3X+S53V8/t02k9P6hjmajtC2bdB2BYxmo7Qtm3QdgXjUdkmDuoto+WzunzVQrfaPls7p81UKXDwhFk5y1WF+xj7q6iuXC/Yx91dap25LccWhxZ+DSsDqr0R77MDnRtzT3AtYmP193Wqyr4LqaZoko6mSMOALc1pWdvMfC68/fyj3j5r0zZvGfR3ZH+yeRf+B33uzpWzGppNoreOksW2kvWs2xzO8MJi2HVmGTCF9QyQEZm73PaY72G5wu3TQHxVrhVU6WPM4C4cWnLexsBv/VdXCmb1kdt/0Dflcqu2f9ifiO/a1VNbStZnaFzRXtasTL1TZv3WLunzVmqvZz3WLunzVotnB6dfiGFn9S3zJppIUqI0kIQBSQhAkwEIQNCSEAkmkgEIQgEIQgEIQgE0k0HiG2X1jVfGPkFcVHIf3X+Sp9svrGq+KfIK4qOQ/uv8lzur5/bptJ6f1DHM1HaFs26DsCxjNR2hbNug7AvGo7JMHdRbR8tndPmqhW+0fLZ3T5qoUuHhCLJzlqsL9jH3V1rkwv2MfdXWqduUrdeLGv5R7x81sQsc/lHvHzWxCm1HlCLD3Vm0MD5A19y7i2ZLakR6i3UE9n/ZO+I7yauqvqxEy53k7mjpP+FzYAbxOPTI7TsavM2tbH1fYrWt+j1PZv3WLunzVkq3Zv3WLunzVkujwenX4hzGf1LfMhCEKVEEIQgEIQgaEIQCEJIGUkykgEIQgEIQgEIQgFIKKkEHh+2X1jVfGP8AZXFRyH91/kqfbL6xqvjH+yuKjkP7r/Jc7q+f26bSen9QxzNR2hbNug7AsYzUdoWzboOwLxqOyTB3UW0fLZ3T5qoVvtHy2d0+aqFLh4Qiyc5arC/Yx91da5ML9jH3V1qnblK3Xixr+Ue8fNbihpHTPbGwXc7p0A5yepfKfg5qSc0U0D2kZvXMkbt++1g1w/Vb7BMMZSR+sW8Y4eu4nmH2R1BacaO17R4ukMu2upSs+DrLzDb2hFPUsjaSbQMJJ53Em5tzKGz3sj8R3k1WPCVE6SrErGufHxMbczQXNzXJIuFXbPexPxHeTVFrIiN4jyTaO0zETbzeqbN+6xd0+aslW7N+6xd0+asls4PTr8Qws/qW+ZCEIUqIIQhAIQhAwnZIKQQQQpoQRKSZSQCEKQCAAQQmhBBCZCSAUgoqQQeH7ZfWNV8Y/wBlcVHJf3X+S7tsNiqh88tTBlmEjs5YPVkaegX3O+aKvBqgMeTC+wY8nTSx61havDfx9Il0Okz4/wBfKPJgGajtC2bdB2BYxmo7Qtm3QdgVfUdlnB3UW0fLZ3T5qoVvtHy2d0+aqFLh4Qiyc5arC/Yx91dRXLhfsY+6utU7cpW68WqkxZwaM0uUWbYAgHS3NvKrpsVbzAuO/XcqZCntq72VqaPHV2y4m86WaOoX81xHUnnJues6IXbh+FS1Hs2er947ma9PPz6dCijx5J2jqmmceKN52htNm/dYu6fNWS5cLpDDCyMnMWixI3C66l02KJikRPs5bLMWvMx7hMBACkpEZEKKmkQgihCEDCkFEJ3QNCghA0kJgIGAmhCAQhCAUSFJCCCaCEkAozRh7XMOjmuaba2IsVJCDy3GuDyaE56V3HxjflNmzNHVzO59LHTcVYQYDUvG6Fw0HrFrP0JC9DTVLJocd53ndex/kMtI26PGdtsNfTSxNkLCXRlwyOJ3Zrb7gLNr1PhE2bnq3RzU4a/i43NczNZ533uL7ivMJ4XRuLJGuY9u5zXtLXA9YKq5MP652jyXcOf9td5nq02F+xj7q61yYX7GPuq7w7Bpqjexlmfffub4dPgsyMdr32rG7SnJWlN7Tsr13YfhM0/s2er953qs+fP4LV4ds1DFZz/pXjf63JB6m/5V0BYWG7sWlh/Gd8k/TMz/AJTtjj7lRYdsxFHYyfSu/iFmfl5/FXrRbcBYdSELUx4qY42rGzJyZb5J3tO4TAQApKRGEIQgEIQgRCippFAkkIQCEIQMBNCEAhCEAhCEAhCEAkQmhBFCZSQMJpBNA1wYtg8FW3LPE1+4gG1nt7rtQu5C+TET0l9iZjrCkwrZanpwAAZLXy8bZ1h0W0Ku0IXmtK06VjZ9ve153tO5FJMpL28hMBATQCEIQCEIQCEIQCEIQIhJSSKBIQhA0IQgT3hoLnGzWgkk6ADeSvCq/byufPLLFUSMi40mNlhlbHc5GHdzgea9J4TsW9Gw97QbPqDxLe6d7z8gfmsnhGynGbPzPy/TSu9Kj3b7R3DQO1uf8yD03B69tTTwzs5MsbH9hI3jtBuPBebR7R1dNjfo09Q98BqSzK61uLk5HNzXaFY8DeLZ6eWlcd8LzIz4Tzcj81z/ADKm4YqIxVdPVM3GSO1+iaIgg/JzfylBtOEnGn0dCXQvLJpJY443C1278ziP5WkeKouCvaaeqkqIamZ0rg1kkZda4ANnAW7Qqvb3EP8AUajC6ePSaOGUjoM1t3aACnIwYbtJGB6sVQYwOYZJhk/3G/og7eE/aWpgqoKekmdGeLzPDLXfI91mtN+z+pW+2e1EmF0lPG0iWrkja3PILj1QA+UgWuSebTf4LI0w/wBR2jJ1ZHO538kO4f1BanhR2YlrWRTU7c8kIe0svZzo3WPq9JBGiCmw/CsbrI21BrjEJAHsaZMpyneDlaLBWuy8uLQVzKevJkgkZKQ/K17czW3AEgFweorIYdtviGHMZBLHdkYDWtqInMcGjRoduuFu9j9vosQk4h8ZgnIJaMwdHJbUNOoPUfmg2Sx/Cfik1LRskp5XRPM7WkttfLY7lr1hOGL3CP8AEM/a5BccH1fJUYfFLO8ySOdKC52pAcQFpLrJcF31XD35v3FatwuCOkEIKqo2ooozZ9ZTg9UrXeS7MPxSCoBME8ctteLka4jtGoWAnwfAaMGOeVr5ByryvkeD2M0+Sx9NU08GLQSYbI90BliDS4PabONnxnMASO1B7lWVsUIBmljiDjYGWRkYJ6ASd6+NVi9PFG2WSoiZG/kOMjcrx/CfteCw/DV7tS/iH/sK+WBcH8NZQwTTzTulkp2cWcwDIW/ZY1v3Qg9Eo62OdgkhkZIw/aY4Ob171ywY/SSS8SyqgdLewa2VpJd0DpPUF45we4e6rqJqJ08sUD4nSzNiIHG8W9rQwnmBz7+m1l9OEXZiLDZIDTOflka82c65Y9hbYg+P6IPReE+VzMLmcxzmOD6exY4tcPpG33hcnBviTWYUJamcACeYF80vWLDM4/oobfzmTAeMdvc9tA53W4uYSVSbA7H09dQtlqXTPAkmaxglLI49LuAHOUHpGHYrBUgmnnjly8rI8OI7RqF0zztjaXyPaxjRdznuDWgdZK8SfTnBsbjZE9xYJYBv1dTSkAtd02ufFoVnwnVslXiMNAx1o2uibb7Jmf8AbI57A+fSg3GN7QU01DWinqonyNpKogRyjOCI3G45/ELO8DVVJIys4yR8ln09s8jn23P0uV9cb4PaKnoKh7WPdLDTTSB5kdcyMYXAkaWuNFy8CXs63v03k9BuazaKkhcWy1cDHAkEGVpcD0EDQr6YfjVNUm0FRFK7WzJGl1unLqsdiuC4LTTTSVkrXTSySSOa+UlwLyXWDG6arz/aOWijqopcJlfZpDjdsjeLlaRYtLgDv/sg/QCF86WTNGxx1cxjj2kAr6IBCEIEhMhJB49wkVTq7FIaOI3ERZCOcCaQgvd4DL+Uq1bwZ1IGUYm4NAsAGyAAdFsy3UWAUrJvSG00QmzF3GBgz5jqb9O9WSDw/BC7BsZbFI67RI2GR1iGuhlALZOwXafAhegcKmHcdhz3getTvbMOpvJd+hKvsQ2fpah/GT00Mslg3M9gLso0F/Erump2PYY3tDmOblc1wuC3SxQeMcFVGajEWSPu5tLC9wvvAJ9Rjf6nH+VaHhloTlpaptw6N7oyRqL+s036iD81vMMwanpc3o1PHDny5+LYG5rXtfsufmvtX0EVQwxzxsljJByvbmbcaGyDzbgYoCXVdU7fyIWk87j68n/D5rS7V7ZjDaqGOSIvhljc5xYfXa4OtuGhC0eH4dDTM4uCJkTLl2WNoaMx1Nk63DoqhuWeKOVvQ9gd5oMzJt/hckZL5c1wbsfTSOcR0cm36rA7DUXpWMCemiMdNFNJNp6scZvlZ0XN9w/wvTDsNh17+hx9nrZfleyuqSjjhYGQxsjYNGsaGj9EH2WE4YvcI/xDP2uW7XLiOGw1LQyoiZKwHMGyNzAO6f1Qec7D7cUlHQxwTGUSNdITliLhYuuN91bYntzBV0tXFQum9I9Fne36ItIa0euQb6gE2V9/0fh//o03/wAgumg2dpKd/GQUsMT7FuZkYBynUIPLeDSfDoxO6uMAmztMRqAHN4u28tvuzXv16Lm2jr4ajGYJKYfQ5qRrTxZja6z+U0ED1eteoP2NoDJxppIsxNzuOW/Tl0XZUYBSySNlfSwukYGBrjGMzQ3kgdFkGN4avdqX8Q/9hWq2I+raL8PGu7E8KgqmtbUQxzNaS5okbmAda1x4LopadkTGxxtDGMAaxrRZrWjmAQeQcEf1rP8Ahan/AHolZcNn/h9lR/wXoOH4DS00hlgpoopHNc0uYwNcWkgkX6LgfJTxTBaeqy+kQRzZL5eMYHZb62+QQY/bT/t5nw8P/cxcPBztVR0tBxVRUNjkbLK4tLJCcpta1hvXoNThkMsPESRMfCAwBjm3ZZtsu7qsPkq+fZOhfGIzRwhjSS0NZlLSdbEb0HmEkhxnHGPha7iRJASSLZaeKxLj0XsfzBffhEjdR4vHV5SWPMMrehxYQHt7dw+a9UwrB4KRpbTQsiB3uyje49Z1KnieGQ1TOLqImSsvezxex6R0FBjtodu6KehqI4ZHySzU07BG2GTM0uYQS4kWAGpN+ZVfA6XCDECwXeOJLOt+STL+tluaDZijp2PZFTRtbK1zJLjMXxkWLSTvtbmXVhmEU9KHCmgjhDyC/i2huYjS/wAyg8Z4PpqP0uV+KFhJZdhqQXM4/N65ff7Xb1r78JmJU1RNT+h5THGyRpdHHkjc4ubuabDNbnt0r1Gu2SoZ5DLLSxukJu42IzHpcBquiq2dpJRG2Skhe2JpbGHRizGneQOjQIOyg9jF8KL9oXQEo2AAACwAAA6AOZSQJCEIJKBUiVFAIQQkgaEkIGhJMBA2hSUFIFAJFNIoEhCEAnZACmg+aE3BJAJhJMIGmkglAnJIQQgEJIQNCSEDQEBCCaRQCgoEhCEEU0kIJKJQhAkIQgbVIpIQJCEIJJFCECTAQhBNCEIBQIQhAk0IQNRQhA00kIE5JCEAgJoQSSKSEApBCEAkhCD/2Q==;" vertex="1" parent="1">
          <mxGeometry x="340" y="250" width="131.63" height="100" as="geometry" />
        </mxCell>
        <mxCell id="yzWlFv2qgCpfA1fJS8uX-5" value="" style="shape=image;imageAspect=0;aspect=fixed;verticalLabelPosition=bottom;verticalAlign=top;image=data:image/png,iVBORw0KGgoAAAANSUhEUgAAAL4AAAEJCAMAAAAdEm3WAAABU1BMVEX///9jqTU6Yh9RiyosTRc1XRoAAAA2YBhBYC33+/ZapSKy1Jw8ZSBhqDHG27pfojPn7eQsWQAlXADt9OrV5M6ktZyerJVzrlLs7+tfpy2/wb1CREFLT0rg5d34+PciIyDGzMKFlX1BbiItUBatzpo8aycpRxVsrEfj797N0MtWpBcxWRE1WhxbmjBXlC9PoQDI1MKbn5l6f3e3ubUyNTFqlViPvnaGnHubw4YUTwB9oW3d7dadv4wtWwSTn42ryZubpJePq4Hy/OxPbD9Mgii10aeosqNOhCodSgBGdyUQLQB/jHtAXjUPRwAiRQa7z7Nue2ZheFSguJVmflmNvnI5bwyPt3p6mGlniFlTd0ZQakl+sF6xxqXA2rM+Zi/F079FhRSGjINna2VlZmQgKBxZY1M6RDUlOhkoJyhlcWAtNSkRFRA8SzOJiohxcnAbIBgTJAaLIWCnAAAI0UlEQVR4nO2d/V/aSBrAE5TByRoBpSUBEhCtmPiCgZTqnlruVrSea63V6+32Zbti272Wtvb//+lmJgQRAqJ2k8nu8/2ovBj0OzNPnjyThCAIAAAAAAAAAAAAAAAAAAAAAAAAAHBXFoMWuAvGw5VaaBugPXqSHJPU9VA2IDW7kYxEx0RRkmqpoGVuivbjdDISYfqkASEbgX88ilF5V18UTXUzNA3QftzYikSu6IuyatZmghYbhcT2b8lIpFefhpD4WAla7joUJ+a99EkIlde5bkBie6JbvlefjQC364By/0EyFhmqL8qmuK4HLepFop682vOe+jSETP7WAeWfD5Ziffae+qIslTa5aoBSj2z0uw/SpyNQ4mcElPrylqf8YH0yAuLjRNDiFKU+0bvCjqBPV2J1KvAR+Ne9nwbLE/0deaA/CSGxEWgDErtD5SOT0ehOfIg/CaEGDkper/bl+avE5sbHF+b2xSEjIJvpRiDbAeX5kne2cVkm8pSFhcjqsBEwzTf+h5Dx0/Rw+fFuioNXYbYd8L2SuDes62NX5ekQDMlBZB2e8l2/v0JwiTryc+5XuwHLewNXAokb/cnoXNu44+4+sRDdH5CGeNGf7IRNx5zJt59dGN9f8RoBTvSj7X6+jJ4nneBx2V/hVD96RXWZuP974uDnw6fdAURHoNjXAA7094pzcwtdEfP0cKlyhAV89GzOacF4Z50gWzLe9CfjYnx1rxgdd5rwdOG43q4osfb85ZOn7b6PRqPFSKQY51CfEl8dmxxfODx8ttZdy+BM8/DJ+NyyuzC3+oyVzf46DB9sTXouzJ++p839rhfw3fvX6vPd+yrvvY+Nk9hg/RsHj3qq+VczK4XZ/2z0zlPuFDyiWpZrU75M3ZXj5aWtaKSXO/W+SHdBS+IrHyaOCe9pyt1632mB5MMu9O+h79H7zB/0/dD3Dp7Q6Ie894vek17QB33QB33QB33Qv6W+rr19/uJ1akYPn37CsB4dT0xv/G6SWch6g8wFQ6Ifj6/ujE1sbCSTsZhzYFRWy2UzXRrb35+MRPnVl+PxsbHiJJGOujPhy2MqKjVeie/sF8nvOdTf29shndszCfY4JCSvrO7sedoHqd9nPkh/CEHqe7eJQ/3kViw29HD0zfVlVVUlyfRBX6nP/vfk5GRipAaMqC+nT083N+fnfTpBAOv6/UHnwNxGP/hdtKAP+qAP+qAP+qD/p+kf0gnVFq3ehhRwg/RlUSaotFAzy4Q3fusr2lr13vb27C8nv758+fPS9LTH+eOD9FXyXSql07Xa+nzjTUpTgjsZlVRvuk7asrb2ujiavlxKLS7OzGAc2AmonmCPGtpLX00HbeoJ6AcJ6AcJ6AcJ6AcJ6AfJyPolpZ+g5UfXF0mRLNEviimZpimVfa/376Dfj//TFdAHfdAHfdAHfdAPmT7dUUiqnpDqS/Kr2vxUiodrBtxCX5qa4eaKH7fQNzm66tNteh/0vxd/v+AJuT4Ez3cDej9IoPeD5G+kL0uSJKtimqNrzI2kL8v0fE2pVFt//TbFT7kpjKCvmuWyWnox31hUePJuc63+emMtNcPXmQBdXKOvpjns8i6u0ZdB/88E9IPkr66/yLX/dYmzNP/DUXjzvkz0CY1GKsHlKIymT5k/SvEXSKPrsya8XuOrCTfTZ4HE00WZb6Q//8P6acksh2e60q1fO02XZFUO02zL0ae9nhZVWWZvugyRvigy9ZIqX75dNFR7GpyA6SZU+v1v0g1V8PQD+t8N0A8S0A+SG+urUnj1ZVN91eDhZACXG+jLkllqcDbpwsujnkVriutT/M15Z2N9l7ns11dNqfaGz08fUnZ/XR76qTeyJKe5CvgesDE73T0EV/SlsvQ4xVfA94PvnSx76cvxU+7dGYsPPPU530nYAfSDJOT6id9CrR/y3g+5PgRPkIRcX4HgCRDQD5KQJ85EbMlD3yyFRF94+3A6dlVflqSaFrTW6BwdO1PGtr5kvgiRPGXql+mltr4knXLwbugbgteOl5aiY7Iass/FvsR4ePi7uRmysOkCFzY53qsDAADgM4ph6M6tk9gT7VvNwDRjnlUqZ9VOytcMCruLDcPZButG+xX0T/m+Wa4jxHwSdo41w0JNZvcRJYREDtnn5+8QKrQXzrUQQu/ZcoUWOmDPaTZqOUWohVDVX3kBv8/nK+xe8x3rRGJMu1D5kBP0Zquq0KMVF66VZuSy7b6uoHxWcfRbaJf9qT/+hzI+6xut7Y82O8hTZ/9b+fShRUfDQBXybTkLKYa7uJ7Ltsv9C9tyhk3LH7xv0iczn+q+658hzXJiw0Bf6U+7cEH7cpfEQbU/Foi+E96kaRo6o/e0/GyBNkRvVgq+67dsbLRYEGOUJT/r9swHGkwVYlRFld7FO/pnyMDZLD2uSPQxbbmBDN/1NfSlExAVRKK68kyofCZWKIeFxGfU7Mklrr6eJSv6GX0B1RfqLU04/yz4rs8C54sTPXVyg79ZpNM1QXEiKYtI6ql2lcqufoGuFgaLHqqvXZwp73Z919dzOcUZAoGtxUKCNMFgYc9EFKtJUuU3q0+frbZ6ztYdfaGSPSCR5Lc+yS+Kpmh/OLkyey5ULxQBZ8+EA9TpcsOyncTYpa9kEXmZUqHDxvSNFqoLvutbJHnbtn2RJxoCbtozFbpNOs7iZq4r5qvoo3vsv62fQYi+Lk+HjekLTRL9fuvj962MkckYVScFVlEhR+Ok2irY3TlHt5s9+l+QRV+XyZJHjr5GtwE+6xtOgSBg28bs4bNv1EL79jVPM777gaFKq9MYRx9n7U76bOszfNa33KD+yjag+sWnFp3TKtk8C/1qTqOtwrOdmqetT1KOMxwZMmzB6V/kFff/0jwpnKMce9hEiN5USXl2UD+zUSfzNLOola1gy90cKy2EtVaXvp8lG7asdkwr1i6rWqwCe5ixmLBuWDlCpVPxCBZlF+9a7opdtWYUq+OsfblclAswb5dZBgAAAAAAAAAAAAAAAAAAAAAAAP4q/B9jT03pqnHKJAAAAABJRU5ErkJggg==;" vertex="1" parent="1">
          <mxGeometry x="366.38" y="100" width="78.87" height="110" as="geometry" />
        </mxCell>
        <mxCell id="yzWlFv2qgCpfA1fJS8uX-6" value="" style="endArrow=classic;html=1;rounded=0;exitX=1;exitY=1;exitDx=0;exitDy=0;entryX=0.5;entryY=0;entryDx=0;entryDy=0;" edge="1" parent="1" source="yzWlFv2qgCpfA1fJS8uX-1" target="yzWlFv2qgCpfA1fJS8uX-5">
          <mxGeometry width="50" height="50" relative="1" as="geometry">
            <mxPoint x="400" y="270" as="sourcePoint" />
            <mxPoint x="450" y="220" as="targetPoint" />
          </mxGeometry>
        </mxCell>
        <mxCell id="yzWlFv2qgCpfA1fJS8uX-7" value="" style="endArrow=classic;html=1;rounded=0;entryX=0.602;entryY=0.029;entryDx=0;entryDy=0;exitX=0;exitY=1;exitDx=0;exitDy=0;entryPerimeter=0;" edge="1" parent="1" source="yzWlFv2qgCpfA1fJS8uX-2" target="yzWlFv2qgCpfA1fJS8uX-5">
          <mxGeometry width="50" height="50" relative="1" as="geometry">
            <mxPoint x="490" y="100" as="sourcePoint" />
            <mxPoint x="500" y="138" as="targetPoint" />
          </mxGeometry>
        </mxCell>
        <mxCell id="yzWlFv2qgCpfA1fJS8uX-10" value="" style="endArrow=classic;html=1;rounded=0;entryX=0.5;entryY=0;entryDx=0;entryDy=0;exitX=0.5;exitY=1;exitDx=0;exitDy=0;" edge="1" parent="1" source="yzWlFv2qgCpfA1fJS8uX-5" target="yzWlFv2qgCpfA1fJS8uX-3">
          <mxGeometry width="50" height="50" relative="1" as="geometry">
            <mxPoint x="470" y="70" as="sourcePoint" />
            <mxPoint x="424" y="113" as="targetPoint" />
          </mxGeometry>
        </mxCell>
        <mxCell id="yzWlFv2qgCpfA1fJS8uX-11" value="" style="shape=image;imageAspect=0;aspect=fixed;verticalLabelPosition=bottom;verticalAlign=top;image=data:image/png,iVBORw0KGgoAAAANSUhEUgAAAOEAAADhCAMAAAAJbSJIAAABUFBMVEX////aqDWIaiL39/f72IxjShoAAADcqTZ9YyLrtDXZpjXeqzV+Yx/aqTiHaSB+XQCxjkGceSfnsjd/YA93UwC/ky+DZiF4VQCEZRl3XR/X19eWdCZ7WQDTmAB0UADWnxSVejv15ceVlZXp6elYWFj/35iIiIj18uzGuaAdHR3IyMgbGxvUoCJ/XxWmpqZoaGi6qoretFhlTBynkmmfiFf16M60o3/ftl/v27JVPhNRQCBoUSiUdjCGbzxJNBBRNABIKgDl4dn/+e361H//7qP/5KLZ0cJsRAC/sZrj3MyUekHNw67HsoeKXwDeoADcr0ifg0DsukywnnV/aDnKoUVNOx50XTPAmkdgUDFEMBGvijlXOwZKKwBEMx9eUDqCcFCMe16jloGYiW3mxYHkwHHq0p6vhyzDlzH703n74av96L68o2ihhknOt3rr1I+aglrkfEImAAAN30lEQVR4nO2c/VvayBbHQ1BQgWQllAwakeJL0EJFoVhfqrJWCmHvUu3Wete9d19qt9tu7/b//+2eM0l4kxcLmZDw5Ps8u4Y0wHw43zlnZiDDBUxtrae31/zToLXt9PpWk4sz+TaXuGnS0uZWJ+HOdPGhlnbaCdP+SbeHgfzpFuHTSTeGkZ6ahOlJt4SZ0jrhzjRaVJd/Bwm3pi/JtLS0BYSbk24FU20GuCfTHEII4hNufdJtYKx1bnoTqa40tz3pJjDWNrc26SYw1ho3vcVQl98jdL08QvfLI3S/PEL3yyN0vzxC98sjdL88QvfLI3S/PEL3yyN0vzxC98sjdL88QgYq//DczreznVDNJ/714+5j+97QZkI1n5MTi9HVld1ndr2lrYRqPhkj/NxiNOjLrjRsiqONhGpeSRKe58NIGIlkV+zxqm2E4M8Y8hmEPl/EZw+jTYQtPiQMIaFdjLYQgj+bfG2EwBhZZc5oA2EnXwehEUemeZU5oZqXku18XYTIuLqyzzCOjAnb+18fQtaMTAmxvnfz9SBk61WGhFDfk/f5ehLqjA0mjMwI1bzYk68PIbu8yoiwV/8bQqj3R+sZmRAO4htAqHvV6pzDgBDqwwC+gYSGVy3tj5YTdtf3byQ0vGoho8WE4M8++eXBhFbXR0sJy6XB/qQSwovzgwmtZbSQUC2JyjA+QRCWj19fzs8PCaOFYwDrCK+SPcYvXXj88rH24vro5sW7xnw0Ghoax8b347fLOsKB/U/gMXjH2pvro4PZ2YODtzdvvmtcRucHQkZ8KxasyllHKPQnpN5MvXhzNIvam93bA8iTw+vXP6FfQ76FfoyrFvRF6whJH0IDD4J3MNsUMEIoT94eae8AMhpa6A3pAkIIbNOb9wWhPDk5HOBXhxM2vXmg0/RkpH592/SriwibefOgZ/Q6Amn6tYF+dQeh4c2jo9lheC0dHBwegV+jEMoFZxPq3tSMvPlwdedXpxLGifAwb/aEnKV+vdGM8UDEgYQCVIWbt/8+GwnQxETIFzS/Rh1HKMx9d/nu59epN0eAeXJyYPqvdx7tQ7g3a/r1UfZHR41pjoEw8fM8pIr5y0jjp3ffadc3h4CJ0jmHgO7t6dfcnp7+8svZ2cl//vvrD44al6YkjOH8AgxPgiFwGOgy8tO7L5B0bg4PT5qcvdHw7+3p7dnZ2enRr7/9/nu9oqrWtMxyQiPPQ8YPhZASalwUIvoaBzaHbzGmbRGjR7e3t7+cnp3eHlz/9ke1XimrFjXIECvCFmgwCKhg3eglWvf4BURUt+4t2vH09pbGrAJkbNY1GRO2FNI55y+BFProm+uDm+s//qhWLY9Zt2wiDAWpZ9GyMI/AP9GG357vZhkT6msV2B9Dvo8f/1xc5uNzezw8AOAPz559b0GuHCZmhHrQQtSfjxAtPAcKh+PGt9y4SLHqa+y///D8MVNQ66sFxowOuhY+Plr8GELCRCIMaHFjXG58j4/KZrOrqEhj9/2Hx2xCyoAwqMcsHk4k9h5FkbAJZxC2fcsNsaSgWYjoSnahcff++XNrSVkQRvnE3BylSgwhbBPA+oI0pCur2cju3QerYsqEcDlswHwDYRMUUEPUuyvwnwUrpk4jbAUU3bviqLmFlYQGp8Pmh9YTOm2O7xF6hB7hqJoIYXTqCac/hh6hR/hNcnKmmdpRW3PSuLri1JF3iE98O2HEmFDQaT9MEbN0gcORa95AuJiYSyTmwuGwQcgPIjTQjPWM1ZBv39oFDSbrNKHQwke6kmEQzs317IeRFhouSt1BzJ49s3yphslaW0hf0I9GfQtBGsMwxBSCGu8gRDdmgWwXl9uefc9qYZjlemkwqNsxRNfd6IpiODE3l1imhNnduw/Pn7NfMbVlzTuoh5SS/vnn8mII00mW8Wq+KZtW9SM+c40YOl12IbK7e3duz5K3XYRZXQuNxt3dzMzGxsXFxcZf53+dn898+vQZSBmiMiekYAuRBkZtw9BMm87PAXRm5uLT588uWfPWByRNNl+jsb+PUbvPNtMFCoILP32yeHXfckLDj9lIBMlmNi7AkQPIeqD+hagbnz4/tsa81v4WI/FuPgh9bf+uGbWHo3Vx4v8unTXyxt/T5F6/v3j5EoM2KhoVZqKZu0bWYWve+AtaIZfQ/v7n5cuXYwAC3sbMbgSM7gs563sL/TfCQk7Oxb/8758RIdHYdzqe8+aHzV9BC7mcHB4F0vRmtllqHEqIkPFcMpdCvz60Q9KuZwbPBYSmX1Nf/nfxgFBSbzawgDaLqRsIQeQhfsXEQr3ZET0nEvb+rb5Acsnwl35+pXlzv2EmFocT9r/fgubXv993+xUHO3eNhZ7BcyShNPCemRyGss2vg7xpymnVIj7ktjzMr2Ejv2JN7+/NJqDDVhPLpWG3Vhr59e9/zgd70wzgyr4VN69Zef+hWhp6+xrm18RydBielTeSWnsPqVoadIuzoeGr+pbeKGv1fcBqflh/HEpo8SYS1t/LfX+rj3uEg763iAQt3iSDxf345nZJIxBafSM3x2pPhYGM/QkjCww2AWO1L8aA29b77ovBZhMXdnub9N06ot+3axbVv26x3J+mTxx7ETLchIftHkM9t6i5T8h0syjW+0T573u1m5BB/uxoAWPCHmOATkLWG2HZQHhvDNBOaHl9vy979tzrqI8tQsb+1GXXvoltjCYhk/p+X/btfdmsj8Y9M0HrN0zqKTv3LzUYkZDNplc9Ze8etDTn4A6tzPNLS3bvIwxjgFeLP9q4ya7thLgOsMhmc70+msR+3jb9zMSQt2O5++URul8eofvlEbpfHqH75RG6Xx6h++URul8e4UOkZlD0sAIHxhS+x+Ea/K2XO96+jKfWOh9nym1t8uOTK2MsC1hBmHkly7Gkqh/GXtX1Fy4mZeOQI8mkUubKhWM5FlPixWqzvZWiEJOTYuprnbZCzWs8XCLzWt68pKpJyVhMShUqo7bOCsIiEYggUpqyJIgFerIch3N5eqgqgqRxFUkkAohIyYzxxIws4SlClGQNn5JSJOMSJaWHuiBL+gk5PmoYLSAsQ7M0QSzSBxqRNPqKFRkapukXiARYNYkHkqQsiim19URJxlPyVz9+JhJvPBZ4iSBiPSYIUiwZUyS5OmrzLCCsipJWFyWBfup5UTou62fxozcOiViriPCwXqtV8uFC84kQ20qtVi/IGbQ1PEMp1OCSK4XwInw6/q9oCTiTKcq1yRH6NUnMqylJod6ry0SkXaYo8UUiZvRDIqkZWdAfcaqZa4rQfv1YhahWxKatuaoiCHKFUwk4Qg94eeRmjk9YI0SucwVF73/gPBmbqUoSXxepdYFeKnL5mKDUO5+pSURsZdYr6K3F1j9hf1ZzcGrsCIxNmJdJrsxlFKJga/1FiaJCXvlajknH2L94Ila5uiIQvjMhlpDJRIQnCnLzI6iDgVN+sIcglcZcQB6bEFqhFEwMDptN4tDqkihW4Z8kYEL4ClwHiLFipe3tygQA5CvDqJB7W50NrCAdr6HnBVGulrkxNDZhJSZgnoBOpSfRukigB4HN0LoipkDIG3PQxrKmQOqMaW1WrRMRKoVMa12ZENKqCKpOyFWhnhBFKo3BODZhCZInNgzIaKcq8xJklDVeAtPmZQivqum+5dSSpEDQlELLduWCCPlFEfP+bkKiE3IVTcFPIV7vft8Ha2xCTHeQz2t1Sc+EfsgrBXAmRrSCqbCm6LkHgfJxsJ3cnjwqwAjuLeEIATKuedpwKb5evQifC0lObExTUXiexEAKVOkUnimIJA69USnRLCrXKgqRms1T81DlO3MqxFGA8GNWSXb2Q5O3gglHG7Wd4xIWRLpJOQj+0koIdY1Aq2leLCpKBQYDx62hNUSXVwrdr4FdGQq+0hy4lHAw0LxA1ZqV89s1JqHKE16KyaAYjEMwbpwqE75eFHlsURUyakmiZc4s2bWYOXL1m9wwGAA2qPI0C6NwPAepWTWjWIC6MuqgZkxCrFtFOnnK5ONGqoDhZYHXXVWTSEEjtH8WinSS5M9DwIwBuVagsyIVKmGsjh0RnkX9XIOYEVEFe+bpB1NLtfdRewnRYGav+ioKMWxgCYxLjPSZI+BhBc8WYJJULBY1YjyGtz5OSngqBb2MqFgZoCtL9BoYguMEpKbIggYnwChisXcDWBNiAjSdhTajXHWYVQhGcilIAswo8C3gs5AkBdNizOiGKkwgJEXECpKknxIMFngiiSJOOWIYZzpaVxQ6BRm5Io5HWE+SVtqA2Y+ENi3L4KmcbqoMHCs0ZeRhCgQlD5BKxjv6izFRPxU3JowZgtdAziIaPVPWYpC2CBEVbeRiMSZhIRfPmdNZaDE8quOcB/5+1V+2IsfjEs2QfpgCwXmt2soY/kpVw0szzfiU61dwPYTsSn+s1vPxHIlf1Se2iuH3d2xZbT5sO9txhf/+Btf3TsE4AREzbReMV8+cuNYGHZmIow/TuuREQpxWEWX0ntcpRxL6tWTy1egj0a4XcyIhR1dNLfKpMwmtlEfofnmE7pdH6H55hO6XR+h+eYTul0fofnmE7pdH6H55hO6XR+h++bm14Re5Wmvc9qSbwFjbXHrSTWCsNLc+6SYw1jr3ZGnSbWCqpSdcYHPSjWCqzQAX2JrmIC5tAWFgZ3pLon8ngISB6U2n6YBOGHg66ZYw0tOASRhIT6NR/elAizCwM33pZmkn0E4Y2NqcLsalza1AJyEwrqe31/zToLXt9PpWk+v/D3BXmSljAvEAAAAASUVORK5CYII=;" vertex="1" parent="1">
          <mxGeometry x="180" y="240" width="100" height="100" as="geometry" />
        </mxCell>
        <mxCell id="yzWlFv2qgCpfA1fJS8uX-12" value="" style="shape=image;imageAspect=0;aspect=fixed;verticalLabelPosition=bottom;verticalAlign=top;image=data:image/png,iVBORw0KGgoAAAANSUhEUgAAAQ4AAAC6CAMAAABoQ1NAAAAA9lBMVEX////hUkIAAAD5uQD5uwCLMSHkU0PhUED5vRT//vz6vyHhSzrcUEH7z2X99PL96r/6wCv80W/81Hf7x0aJLRz7yE7/+er7zFv814L/9d394qX/+u/6xDv946///ff+8ND+7cj93ZLu7u7Gxsbwzsv83Zy2trblXEvLSzzd3d2hPC3y1Z7z5eNhYF8rKyvg09B9fX3vpp2hn588PDxISEjywLrrhHWyQzMhISHrkofoaVeKior13Lqze3LBjIXpdWZubm7bu7aiWUyaSDmLIADus66yaV7brqirNyWgamPGrKneQS3zzZGtioT2xX3HQC6xVEjRa15DRXFTAAAeFElEQVR4nO1dCWObuLbGhbAZzBbMYrCNY+IsdtOkSbPU2Zu205m5977//2fe0Ypw0k6aQKZzc08bFiFA+nR0NglZkv5H/6Pn0nA4NAaSwU4NOB9Aar/flwYDOOkn/f6gj/8SepwksB8asB+NRgk6TUbJeDQaUxqNUTomx0nQ0/CLkpFjfL8cTyj5oL/yPKP/iNsGSerFvgNVcuIyjco+1MLxfTuMsrgI9cwrzCAKXERRGIauabpZoJs6HADpQOSAH5K9C3tFUXRMyj0i6bJiBl4cI5ChsOPhAGjYH/cBIwMlDg2D7BENUCZ6LKFLuLUkcgWTgZuP5ujnJXkOqmTfCVPDGBVl6feHpHXH6cjPR+ihNRqXcZw70FJpnpd5UZRBGLh2FNlx6Opu5EVRkMGfqciEUA2izA0yE5/xZEz8iCX8BcmuCw+3bdsrCmiAMAihFWQ9jIvYj6IIoPJ9z4PrcBJGfuxDTnQee57vp0XsRaWHL6Jkz49jmxx5URx78Cx0fwwVtD3b84vIjWwlQOdpXsLLitTx4tHjeG2UA7PEuiJnkZtEtObwh3FRdPiDLdo91Pg/QfI9eiDpSaTIVYEZ6S7mTBlvEEWPgmOcJuPSC7K4LOF/ELpRrOt2hntKkaYpsI4S+nYWlDY05/dKUp3Rl4uk/0S19Xp+HTcNagcT141dMc0sMxHb6m7mxTb0XOCPzIUUJcuCENIz4DE/zOAMGDGw4WJS5wKnnzjDgTMe1FKTUW8AnQd4zfdzIMfpp84oR/0pB6GXx0B5CgfQqQo7i3dtPbTj3TxPgcvDSAF2Bdx2Y+Dk0AyAZwMoeAa8HmVQIhv6n58v4wxYPt4t4B0R8HMc7/4RQ0qZO9Bp/yjLskAvRq8fpdCfx3m+G5eOkzqJM87LZQICuo8FMpylu0WRj/tSAj0fmitPBg48APoOFNTLsiiLAI0ggC42LqAwfulHgSz7melUtUbIDA0iompiGARQdf49gd/r9XvDXg8ORj1pPB7gfL0B0iyJASJ6jO81+pBl2BuSrEg29pjcQ1fRHi41plQMIjvRY0EKw8sgoZ/04By2Rn+ARDOUW0KK0MmAvcfVvWlThfhn0tCOzGz8d5fi16HYVbK00rTDH2R9DeSbppxXp+XfV5JfgYwoMuW0Ui3F31iWX4AGYWDK/pifv3JROgCXQ44rT2b89xXlV6B+AHDYVWfpP8bH+++lBMxWOazgGIz/vrL8AjRCxr455udD5/t5XwElNrg7Ahz9161pkyVyy8f8PB9/N+troEEpg0tc9ZAy+UHm/34aRrIc6hUGr1t0SJInK5FeaVfnlTstsaxkAnfUYz6vjnoFinIKneWlzbBebz6fTo/u7k5PP1zOZjOt8zui7u+qNpudXV6e7t/dHU2n83lz8aAfUanrclj1kHT8Ei9FZPTm0/3T08uzs9mso3YxaUCdTsfqdDR8qJHkrjo7Q8ic3gEs7aKSm7rsVz0kexG7A4DY/6ByBDAGAAHCAZNlWXjbwXuNgIOw+V2dXZ7ezXttFWw4Bo/Wq7jDbtulncyPTs9w1bROnSy+EQ9WctE7L/ePWsFkkGS6nFWyo2xV0/am+x9m94GoA/CXZOFONPuwP2+8gMM+wGFWAy0tyg5jvn+Je8cPa1pHxXoII02z4BkIksujhhHB3BEI0bDWrNL5/pkmYKGhblBDxsL/qv/k9B4iGoUD49K93G+0z/QdW5HDijvilhStcTTraupDTS1yRm1PDy1VyGaRI8vSaC7t97Npk+V0fEUWBlrydrijd7oqMKwOZ4aV5HugdFazAHtUyGrd/QZ1bw7ckVXyM21HlN6pqyKj3gcehQK9CD3FEvlMUxvkDwesdHnJT+1W4BhcfkebCBiIfUQ81lZBIkylVQh2z5oraVHqpmCk2/kP8j6ZepcrQvN+m69UGltgq1KEYqWKZ0ggNwhHXIcjaMUqnfwfk3wdWs0H5GZNj6wgsZJWf4T2n8YKmsSxEigMjkTyWuGO+c2WVdWjXqcaMPdk68NnlTJGzHJ801hBR4GvZy7TrumwbMVIn9ysH1tqJSLEjbWS9qDlRZNFIcOhOV5vDo5hGelmwFy4OBm3Asf8dn1tZ8t6yO54qP6Mk7iMqHUplVxU4UC1rK2dtfXbxgo6cGLFVZgZhub9NPZogYzP62trazvHq2Kg8mAf6BHChRokFpU/KoBxvAPPXf+tuYIObEURROm4Hbvjeg3hsbZ2vAU1UbniWIHHEjrDg12Gw6cCZ2xtHeNnrq/vNVbOfiILcCRJ3IoolXrfbgkeiEe2LILJak3Jf22G1I8261jayhVmfQFXWFuYLzAaO82hIRm5qyuKAIff3LMF6hnTm3UGCIYEJAm0sQgK6zFgdGpnmoZhqWww2EJ2EMeABIcCscZvc6lBt3YswjEY2F5zjxZofy5Nvn1eFxDBoAAqmFUINJiAbYAJMGNA5WeqSkUnMMQWAmJHeAA87rdrQzr60mBJkZE+psfJIIobfHRFF5dHhjTZ+/NmrY4IAmVn5xiAQcggsjBAeEfOjjHt1HCgveTmYjqRpCPrormCDnxT4bOh8r7fzvSfi656OkcRoOvzm/W19XuY1Oj2duf2du1e9UWuALq5uAYspPlp998NwpF4egVHnEStwNH7c0vrzk6nKFTT2/ty8fmGVOpHoHwXh/W1m88X1zhU2js67XTVrw3CAXZH5dEWiW0392iBLo5BHmjq6T5GROrNr7+cfwYWoPX7C1zWGd3e3txcfCNQGL353Qe1CyLma4OyI41AdjBTNF3G7YjS6x2sM7pdMQbe255ef7k4/3xzc7uGEVlfr2qOYSIpawiFz+eAw3Sb3Yri8d3fcdhA/dqgph0FcmV3pKO0HTimt1skxqdpXfXs8vToaM61IxqH29ubXn/7coHonBE++/bl23Rvbz7vsUE4PFq1fznrkAgKMulumguXDhLEHcyFK0dJO3CAS8tNDDyAhDC5O5rOJ4+vymQynx7tn16qXRSCZgEUS936rbngYN+PdVlnojRNhu2YYVh4CEQH1Trq7Ozyw/7+0dEUD8MiJuj1enjWPiE0gDs9OtoHGC7ZyGUVR8auy9dvzRUziQtQtMzYKPtpS6Nw347rTojFUQFcQOvMZmdoGPbyA9ApJjiG87PL2dlMBSnRRYF4bSXiaoH9Zn1qMFSaFGiuHOshcT9oaRRu77ZeERW7IdTgpLBQlmGEYCKD2OqDgVYLiw7V+tTgSEsSIBeORQTB7miJO3qfsfAQQj6Wyvhdve++8tFr7V7kuEIDOTBgwDYX/AE48IdSDANnWbQ0gt+7OLbowHw9/oWdFLEDdWgEQK3S7o3FsDE6FanZBo0wKXERHEyUjkdxW0PW376uBMppzIMeiYBYmloNqjwUEBMhsm6vGyxlEorckY+ituDY2xHDOiRobuE4Dk9FY68WGmGzLDzXRdMEmO7BQiLyqnXb5Kj1CE2z5UZ6mgRtDVlPwBCrhk5wHFkVgmIgTsGbh38zbdZBuxk6tWbE+bcYo1SdTUX/4a9JqwPgiBAcLFZaJkE70TCgSpaSitQqh+D4sDe9R6ddlbKEEE6t5DFQo6JDSkxRs6T90G3y6SJdHIsBUcwfKov2IXy6pw/ctN8l8vd+/NSiva1J/w2EJ/6smdkdaRJlTT5dJCY8qs7C90hFABwPcP1+11JXBqMYt9Cz9UmThRxhOEJaknTUUjRMwm6LqBlUrlJoT/geHNguuW954HQQHQ36bxKyOzAc9Cwdua3N/pmc/1tQj+xI5eB0T9mEPQEW6CyrXYTDiTBSv/7ZaCFHGA7GEvlIacejRXQhjjrhITSVyA1Sze93FvXeMFUFz3GD/pvE4GCiNF/q7UTDEF1XwkNlhmWlPr8nOzpUq3L5ySwzjKW10+hUKGkk1+DI5dZkhzSvLA+LgSII1u7pA1IAdxaLWbAdNijFTfet22ZnlxLNwsywPJBbindI3IvjzVxV6kfcIViixHRlTIKcQHXrvNkyEu5g4fM8bRGOWggIqwU8kUeltXuYOzTiqt0Tp2TTaNQYEVG0DIO0bLGzSNe3gugQbQmM0vdkR30wl3Uz6gavNRg1RjTG3MHkZ263yR17t9TywCqywzQGdcUIHGitjbqixT6LVYeDwglWR8OzjutwAHeEP8z+LMLCgwV8VNH0IGZYlZNjItoddS2LmaZp0SGNzBp3JHLW2scRknR+rAqxG1JDBsuqzyLAwc1yIRZE+lrTokNKMlnkDkcJWvz668uOWrUsqyFl/BocvEmIZmFKZSZIYhwhajJqjKmfiS5cPrZbc+GkKn4sGBK4VlhxrGoWzB77XdXiiHU0y5p1eBQNjr42zcojxc5kwSqNzYZfINIchAdzzGmFiAxBCSBK0WpLePiVYGFU3EH9PAwHs9+sTqNRY0xjGcHBg4O56bb4baBxvqXONMb+qlWJA+zCsaauaRZLNMy5UMU81bT/BuQomSka6WbY5oe0X76ScaNqbrFKJccP7A4yO6iCgxv66k6TUWNMYzkA6cGN9JEeNf0Gkfa+cguChcaYu2ppl9Ojoyn6d4e2R2h/fdrlkSKRqH3faNQY00hGK+KN6Znjy2Gb3xXTEJBFZEbHoqaYRQdW0IAbnh2mYjUCe6yYKWvwKCG5oaNufW7cKBgrmQ5GOu0hI98MW12T4DNxW7DHwhULsz+0FVLhT9CzCA3i0FKZ02zUGFOCVi2UM8oSaRyarX6E/+cxC31WxpjaqXswonAhZloVHaSiB9ntaudT46IDrNJaJN2Ogla/Yr4+ZhW3RI+FxfoqOAT1qlpcB7EoPOlt681/ONoPXFdWuGbZNdsLDiJCwoNrBqZDLfHzar7l2seqDPSOIDk6DUeNMSWhKUykdEq5XTh651tCoI+MpHXxFA+r3ltqbLJyhQLVuP8mIZ8lEyZSOqncXqwUEx98IqLU0rpdPLnlrNu17uNADjStJl1w94HdcfOiA7gjEKfZjtqG43rH4rEb2HbP9udIdhu96Sn9QrbODQCbdnapVcHjyqFtOGqMCS2jJnDHsm049m4tQY5qp1WVenczNrXFEioOftsRjafXGacN0SElgakLoeNRFjT/DpF6n4WxuO4HUTcYU1F78Ip3T4c9bG1w+5UYbVvNfdRTUYIdfJv6bc4oa23ImtKfWyTSaSGzfEVTEv6oC09tBgy0jz+xJAkkVqg2OmGQ0xjbHWwBD2epmy2vKUMsDwub4UdCOnpt70O3rjwsi4RQe5eaVbl9hEEa/MapolFtBD935Ja5w5j/h82R636gnd/gLTBlYQ1ece0Mc9C0y9mFBVqbjhpjqs/vyJetd5YJFR6gVe7YvGp+sfoam/WW7j5m3N4HrRIqZNZP8/4b0DyoDVmnrtn2SlnnWzQqaBGtYvAN7E67ld1F4qO00tOZxhQOjRq3ITqkfiSGjvNC1tteZe/bMYkdq2qN2wkqp/XlPCztTqKdCYASbBK1+agxpkHogqJlMR8nks22Fw6b3lp4NFJj65BQ0UFCxfVZtVRy4Ns0YotadHrt10Zn/TDqR5EwJz0NsjYj6ZhICEgFv+0BPjztiqJD6wq6Bw3IUaWCZ/20UrhhhKJhXHbEbqvBQUS9iy0yyCjWlcqO3pkmyI1O91IQl/MzwjlE8jQfNcY0iJALx+Hw9HY9WkRfvpKxBDqSwBUL7Oe1yfjUMDHoH46qMx38tQX/TUI/KlCbkx62rmglafsriecQ4cF+ygKPr5x2Wayww2LrBkNDmlMtjO9uPmpMyEazoTyqXZ3sBeCY39JpHdrlypXpzGJDdIg5tGndQr7TuE3aiv+GyM5c6Cz0vXkWti5K6fxjzPVs0S/y+vkZ+Y7JYhaYcA3tBpccjxaixpiGHoIjotxRuv4LwPEnm0KozcRx2aNL+i0TVSsW6w+cR440BlfjQ/eMPDQKx8ywWPdanP3DCE8hxF1C6344ooDM96vwD4Fjn+UfYsGCjPUPdH6DtdOS6JC8yBU+/tKzFmf/MEKfTZLIhqVp6tn+3dHd/oezaikta4YHcvF3cYgu+RY5tihHa6JD8mxXzthUuUJWWg7/IOqd/7uyPPGXtV22iiBOnmkakqnkSzj8URz9jwLMxH87bysM4YEZZjOPtpRBjLS++LNx8ZX6YkyGCCKDKFpNo0OWPBfROSRkqu204r8h8oJMDpjAKLLA67e/Fvb1Mf9iQbC6aK3FARUSb+dwsAzWWiv+GyIPjbMwyzyOstJoORwmES9OqOEKb4gplqWK+BA01K3bVvw3RL7o4Bee+RK/V9O72bH4HLkKlRVs0KCUJs7soPFB1dppYcCJkOGhmZR8jHZXeQHNIkkX6ztbaLrCyjB1fSTOEiZbsl6EPiXcWvvUmugwwGeRIx4cLN0X0CwgPNbX0LJqwoxi0u5Er7AUlabwAVy0OhZeHKuNqDEhtPSPzz1a/wV8FgkJD7yACV4zS5hXibUG9+HYSDVBCi2aRlfHWm/Lf0PcgZaNr+IdZrvzO9hbP39iK7eg5aHwuAlZFsri33UQnEg6WhaqWhTq00V70h58FjniU/RjvfXQMab5+crCP3TRLLwslEB4cazj2qpI6+sXLU6MtsNMjpmiTWP5BVw4RL1vN5++sxTSDqHvrAL06eaoRTQk3w5kvuAPaJYXkR2Yri9uPn16/PJQkPPT+u1Fe1IUk+dn8i7zWdJl9HJw4DWzzm9u6apHP0YCLY91/mWv9Z/h8H3XXfJI+jh4STgQ9fauCSafPmFeqdMnlLx2i5CYttlHOOWZaTrsJzjSZdDi9yw/osl8b7rxBa8L9RsmvDTUly9f9vbmkxf5ZRZCY9eVU48OeeTLrPWBhcdQj8eLX5pS3XSXEYUDZEdbvyrwDyFPV9ylS1esSJ3YftVwDGwvcpfsB1qKUfAiPsuvS7YfuiObWubF0n/lP0jrm6biMCO9WBYv4uD/uhTLsszhcCIve90/DOd7WTaqhqyD9hbw+EeQvxt5FRy7bvaqNYsUx6E/5sHBwm9tpax/BsW26yfV9yxx9Mq5ww6ihH84atqv3O6IwyDissMJo1cPh6svuaL1g+yVyw7k4LNomDO2M+dF4gq/KqWKkvH1ntNlqI//Fsf6V6FUVnSHD1mHUZS8ajgKOdALDkfk+X9P2OVXoULO3JjDUUZtLmfyD6DU9U2vYEswgmB93WZYnvlKEVOWWMbP9Fm2D95dXV0dbIhpxnzjXv8z9jY4/dRcDXTD9nNK+BeUB76Z+ixWakfPcfA33r2h9H6TIbBxiBMO6nWYvBHpcPPR8gpl3/hxlgminy06o9z0dIdH0sEqjZ+Mx8aJUMUDksYBerNZK/LbGh5v3j32HY+AY3Hy9uTjz5eekJNFMv/ZjcTL3PKpvaXe4gSPAyFBHE5chaMO1g/oEXAc/gy8qzQIY5n/vlWx9PUn/3wzZoR3YNNOPuIaQgfYRvvFweZHxDcnQt7Je9SjDhC9w8hcPfIlj4DueXBkIzljc8O8pa88deF43OALcvyRlhoxxwL1482VVhUzb6Pj94/s7W1zx8hcVnAU48h0ngrHSVWMDdpbFrwt39dbFXMHhUO6guO3AMdkE4jAcsCPQFldHS7esTMOB85MgJlsflwc0hyQjB/Nrv0sOa4vB/zTwDI0B0+0SnGDv6cKhEr3w5O3b0nK2+9zBwZtYRAWotl5rXubVD5T6cgubKPkQ5x5j+VA0mqDS6OF9BTKs1iJGBxj39WfKkmNBS7TO1Fpbm9PSPU2qTBhJMKBq4M4Z4NyiVTV2qg0E+E82guFDiZI64/0Rc+AI/1XLnM4llH49GXUeMO8f7ctWhmTjc3FqgTEneXt4t27q8UhrciDcOC6Hn78uGCZyAXCGxP+1gXNAVc+HuBrBx8fq6vqNMqWss8/HI294OlWqdBOJx8r0bhNUmrTdlYULRE5G/c6C5ZHV/CoHpYvPXoBg0nQwD0N9RLMR1hsP0uUDs1CDjP2tVPqPwMOZoES4pJim1ZZnP24ane8ZernfY07EMAnBn/IBu0suP1JlGqz6hboEgJz8Rw48tCWQ5eO0eZ/+M/yWYztd4fcNGXsMFks3r95U9elpLNcIaou3u8sqGZX9A4gg1w4EdBGPAF9E2jvkPLJs7gjjUI5Zo5K7gXPHnba3ry6J8t6B2/qZRRFKbHaDggcde5YUc/0gvj0RZ3LrqQG4EjZ4EoePv2jc9FzImYpqBVQLSQFa4iKPWp2h4Sa++0DinaCdvX551XNCUwrcKBHPguOMgiVmGGQB9GTlyRYvH3/nlcQ47G9+ebk5IokfPsRHKgCJ737otR4+4b7gpQID+Ab8NOwzXLAaVN6puxI/Ehesrm1eeQrT4ZDrPABhQO3Ok8Q4BDNMGyjvSWd5QTDwQSnIDsW7w/fU1G6INcPUfK7+3V/ns9SBnLBxprG5dO5A1d4QUclFlgqbr9hrWtgl63KXIMD3wkX51xEHtCjA8I2EoWqx4UKc4pE8bu5WGBFu3jzVBtMQl+d27KfsbV/8ujJ3DEhnXdzG+yuBRVrWPEezKXtBQeGZuYe7ccD0v3RRQwL1HnjPa01tjuQ/d47pHUUL7yZ08pfIV2MgMHad4F7Uu9pw0VJGMolU7TLouC/8/TTVNnHhCas1IKY43CsxjtwjepycYM/8z2GFfej2gX0RGLVvF+cMH5h1uDTGKSfxXLOWMIJ4qfDUYv1vDnZXIGo5sJj7hDo0KjlPjyktTaEZ+JuxA+wNv8mrfosEncWrp5Uh35QyDn7iKUIni5KJR73wSVj7jk1Qk7qCmIiYvH2HbNgKR7vjBNWa27pXhGrjvMAeQJimG3KVIfMQtl8+3TuyG1P3mW/7RTH/vPW/plsHHy8enewJxqgmx8/bs5XozsTkcTMIEzm5DJNMuaQxMPt1DjlT8A5Jgfwij3x4Xube6tvfByVYSR7zIUrduOw9Y8CfmnKw1gOGHeUcRyOXuLrr1+W+u5SNpndkcevnTuQZgmY3VHGRTB81XAMFRvgoCdpFAWve0LDQNFll3FH4YXuK4cjzOSMwxH57uue/dMzMznS2cpQUWy+7qlyI9lUTGZ7Obb9ymcO5mjBCpO6f3n0yr92wr+TxyOCyyyOX/U8SmmA4OCRdLN45XPShxgO9h0t2OuvDI6VtX2Gui78IInsxi/nsvQR8uAiGVVCX+on/WGSJMNhH7ajpKKxM04SZzxynNxJRg78G8Pl8XgwhCRIQ5vRIMnzfHc3hW25u1vGu7CFhBwO/1Ui2i2KsozBN8NUFLu2HzMqdnfjP9AyatxIl5meHQ6HA079/gDwMgYDA1LheMh3w35/5KAs6AH9HMoHmfvojrEDVegleRwVsReFkW+DxRtkWea6cT4qwzj2TBNOsyjK3Dj1bDvy0Febpm5mpmm6cKBnGWx0E23Qz8hAIt7LCrQgWsFbQWeui1ZrlhVZR/fqMiVF/hEprhlEmV5PzNzMzMAM47ID4ADQx45TosJnqPRBGAZuEMV5aWegd+zAzYLIjkK44NmRnaEnRIFtA7ie4oY21BnugKtQzQhwCDLzwQLpuMr0mpJ58KQstP1Q0SMPGswLoZHiwpUV2/cjGdVeDwEwO4zgffAWV1cIoWvoEYobhbrMUv6KCOIraS5KNUGzsFgpmCCh7/uBGWTQfv44LTJAHUpqR4Vje1DQyM5TLwtDBi1qPVN/sMboKsABsMVQfPQ+aBGohu6GoW0rZhTGaelFEbpYtZuisAO2YdWrty9NIxXJAsQOmFtkHf2oCKqcTm5BSLpQd3YTbgi40XSh8IgJTb0Oi8LMsNQMochREMYetBW0buCi2zAc8M+OPS8IPC9ECGAGhWfr6JmoWDIuG347LodOGR1fIFXQaa0AEnwVOM1ElfgunLJsh6aAg4IYVjjHr5ZDP8rwe4HdI1MPcI4APRp1RVQEuMuPfXJn6EXQRT1gd8+L4BpBqgY1hSMBiZQjGuGD0Rg2zng8hg6EuhAQCLTRCLJBcrHr5ONkBDlGSZjlSKDBNbtMY7h3Ny2L0kn6SByO8HNAhu16Hog4hKvnEPGYJHFUeiDdiiIuHCT1/vC9EAs/JBLLf8XL3d1dkHEgC33f/sPJISmM4jgMfK+I/TIf53n6L2BoJ03/8CPobnEI/RQIDiNoWq+A6hSeh76nB160QYb5fhGDTN39I47HOZQphiylXzp5HCPB6vvevbmkP+nHDXiUpFq8uHdfRw3Re4bGsNJuveFw5W3G8GHd1jMM+hKQ4Ab6Lz7YwL+8OKRkYJLQHYjIG9EBykUy4FeRX8AV3k6SX0y5/nO85f8H3tIf0kSbYP0AAAAASUVORK5CYII=;" vertex="1" parent="1">
          <mxGeometry x="-20" y="240" width="145.16" height="100" as="geometry" />
        </mxCell>
        <mxCell id="yzWlFv2qgCpfA1fJS8uX-13" value="" style="endArrow=classic;html=1;rounded=0;entryX=0.038;entryY=0.39;entryDx=0;entryDy=0;exitX=1;exitY=0.5;exitDx=0;exitDy=0;entryPerimeter=0;" edge="1" parent="1" source="yzWlFv2qgCpfA1fJS8uX-11" target="yzWlFv2qgCpfA1fJS8uX-3">
          <mxGeometry width="50" height="50" relative="1" as="geometry">
            <mxPoint x="416" y="220" as="sourcePoint" />
            <mxPoint x="416" y="260" as="targetPoint" />
          </mxGeometry>
        </mxCell>
        <mxCell id="yzWlFv2qgCpfA1fJS8uX-16" value="" style="endArrow=classic;html=1;rounded=0;exitX=0.971;exitY=0.41;exitDx=0;exitDy=0;exitPerimeter=0;" edge="1" parent="1">
          <mxGeometry width="50" height="50" relative="1" as="geometry">
            <mxPoint x="120.95036000000005" y="290.5" as="sourcePoint" />
            <mxPoint x="180" y="289.5" as="targetPoint" />
          </mxGeometry>
        </mxCell>
        <mxCell id="yzWlFv2qgCpfA1fJS8uX-17" value="input" style="shape=image;imageAspect=0;aspect=fixed;verticalLabelPosition=bottom;verticalAlign=top;image=data:image/png,iVBORw0KGgoAAAANSUhEUgAAAOEAAADhCAMAAAAJbSJIAAAAzFBMVEX////+zgDtsAD///7urwD34Hft7Ofo6Onov03sqgDz5LP39/f//+/2zzzpqQD47MntznrjsB/30C3x58z+zAD/zADv3ZT//f////D///n///b4ywD//+n4ygDorADrsQH68bf35pHt0Hru0oTy46X899vv2or47Lzpv1XmxGTjtz789tT59Mfz577hrAzr0Xvhsi7y46vz3rDy7OLr3Kfw1ZPp5+747qzy1l32zxbw1Ef++sr26Yn02mXw0DL01lD24Xz56Zr47Jf2wQWBLl4qAAAHzklEQVR4nO2dDVvaSBCAEzaIeKAnXSohkKAVacVSe3cVAQW8+///6XY3QSAJKZtZyLTPvK0fDyrk3Z39mM0mWBZBEARBEARBEARBEARBEARBEARBEARBEARBQGGMFX0IB0O6Sb3O2ac/c3Hz6bbvWhbiIlKCrbtL38mH7/ij04F7pZ4IpaaqwM++UyoFpbwE/k1HllX4gQ3XYq0vUlD8Fx/qG2f1NfYp9WH1d/7nvioshIbyoG7PlV6+OgwCZV69H4ZPhg5R7rV7BxChsiIDWb+jh6JddsCsoYxROI4/iLpUZBXJrK++CUGhOLqNhh5cjsw6O88fo9uK/p0bPScuzqqGBIXitxrGHvWsaqQdiv4mKJ1/6Ug/TIrMnKEaUv3TvhVNlPBgKkojyfu+KjdMUzijhkGp+niBbYpq1FBQHQ1QNUTzhmpgROVo3FCMGp9aRVttYt5QKJ4ODDiyVYMGBsQBDMVE3L+/+f71AkTnfdDBZ+gEgVP1z4GMvjyYyasPUYcllZA5wKmEM7prmRh3DmK4pfeThQIn8bBCPubfta/gjgdph3HJXM8RBMFoYN4QtCYFJ1YqzqkLn8nH69CRbSgKE2cVMhvfJX9WMvrw9sGM+ofoadRrrduK42Q2oR2Lcns1uOTDMn42JJ3z78YN46V4XJz3TxHVj/AF9WSUFst2U/SFoeF26D+eFszj5uKfqENzfakov8C5/OukUConJ3//M1pXpIpSY4bin/+jUjmpFMtT5YfvlA5hKCVHFwXryQJ++nooQzEMXn6QL/FHwXTuLldN0ayhExpWik7QRdcyvDxIHYquRhoeZ70zfTIWPeRaH/11X7rjt/Y+yq12GBoeBZa5JDeQJ6V3GVp6JyuLMQxP4rBWp9Zq1VIY+6XAF1O487vYD8QfuNH2g30VC6pDcXzu7Pp5Pm+kwyMm8V+o18u9lsWu9m9KRUWpO1tMPCVha9L0pjMLfzsclie6ZhuOjZncgbDnSx3bUB1X7brxs6rjW1/izPv7z1ePasjUIOH2pt2dx74f/BplTxP6WcNXTx4jyNBudPZ+2eMZhn61l0lT1QJI0Pb23/tx3Dpsj+teE6wnC6iHsqdhD6+ejE4DguYMGZT1E1mdF8AIETM0E6Vm9lWEnsyqjecevPJWNDoGRvz3syJbz8Ws1IetxMNs5ae+dXsLg362/do2EaWGzsZLxeHSWIBKuP22/7Qtqx26tVrqzF+LVm3YK094dGSG8Gb7l/BOQ/ZQXtSNMOmuy94Q9f0H/HRDuXP4Vc2sOBBTSjGWwAyYXVnD6YGOzQjdsQVth7XnQ5W+EbyOxo7kNEPXeuv+/GUKZOpq9POpUcoWqKtQ5E7u3oLpUTo0OnoZp/ugs8kz1bDnFS2RBdcZK3ZEaRl3kL5qTbbSDNuNZtEWWXTfdARTDYeog9SeDMGG/2IOUs6nbaghE8M9Yke+1BKMGz4Jw06jaIkMuO31QIaVEzFWoJ7QcI2FxFTDisWuEYeoHCs05jPphh3cUzbvTXP1KGmIfMrmzTQXV5KGY9TN0K7rbiFPGuKestll3QtW4oZPLcxjhUrv9z91mG74gDpIudfXXaZORCnqKZttL1zdVdyE4TPmGZttX7u65xrihh/wNkNZ8t5M+8q4+Lz0zMNch3ze0T7ZEK/DbwZXps3Dy/p792OGJ/WiJTLg+lO2pOEH9Om9diXGDG9xJ7+Llv79NzZ2QUvD16IlMtFN72OGciP7GeZmaGun90nDxzfUmROfaKb3MUPx//EVcSO01dl7oOGojtqQ6y0Fxw3VhVVGtvMcjPCMTH5DQVC0QzbzGqwOBf8V7ZAJL+fawbRliDhCBd2epbmQmDQs2iGbST+H33ZfirsZ8mmeGtwa8X3kzTBHXhE3RH1eVKX3IEMxGhbtkIlK74HjIe4gtcsMbIg7SLvjnNtBN66wRD4aDnPee3JtiDtI+cLNeWXkr2Aog4sv894hY22IOUi53R3k3ZP9boh7rLBzpffbhniDVKF79v6XM8yX3m8Zoh4rRDPU2Jyfboh8ymbXc6X3K0O5BoU8r7DLuQVXdYg8SL0xzNBBbpg7vV8bOg7uIJVTttwXYYVRit3wOn8Vrtoh7szJy7UUvGWIe6zg8xrQ0EE+oZHpfX5Whpj7UjFWAC7YVYYB7mY4ybnKtmlYtMNuZGwtWlBDzM1QGr6ALklWhqiDlHd7THenV8wQ94lRLtJ70O2ElWHRFllw+xl2o35piLkZcpsD8orIEHczhKT3K0PEmZPsIADp/coQeZAuYYLCEHEVqjWoHtiwhHmssO0GIL231LshVVGPFXJzPrgOETdDgQdJ76P3CkJ9BYnOTb12GfpFO2Sjzt6DOMO9TahZBqyyhZV4gbsZdoFTNmHY7yIeKcLN+ZA6lHcxRN3R8Gkbdks18dc91FXYfAG/+SfDfWm6zCtgN1Vj1gB1HYr0HliHbNUOD3ZXrryEB/QMnbKJ0mk/21gTYB4tBcPqkKl7RGDMLmS5T2vwjsZi7SXavmbyAH+/b/nnrbK6r2/ROgmak3F0+3VgJV5Z7niOb2LDu89DZu59W1uz6zIulm9D7cvSM4B2yebZcQtY0PMV/LYdMaL3TjB2UOGbKeBhfVi/MaGdQcffurQIgiAIgiAIgiAIgiAIgiAIgiAIgiAIAiP/A+hUBSiZhkigAAAAAElFTkSuQmCC;" vertex="1" parent="1">
          <mxGeometry x="-160" y="150" width="90" height="90" as="geometry" />
        </mxCell>
        <mxCell id="yzWlFv2qgCpfA1fJS8uX-18" value="output" style="shape=image;imageAspect=0;aspect=fixed;verticalLabelPosition=bottom;verticalAlign=top;image=data:image/png,iVBORw0KGgoAAAANSUhEUgAAAOEAAADhCAMAAAAJbSJIAAAAzFBMVEX////+zgDtsAD///7urwD34Hft7Ofo6Onov03sqgDz5LP39/f//+/2zzzpqQD47MntznrjsB/30C3x58z+zAD/zADv3ZT//f////D///n///b4ywD//+n4ygDorADrsQH68bf35pHt0Hru0oTy46X899vv2or47Lzpv1XmxGTjtz789tT59Mfz577hrAzr0Xvhsi7y46vz3rDy7OLr3Kfw1ZPp5+747qzy1l32zxbw1Ef++sr26Yn02mXw0DL01lD24Xz56Zr47Jf2wQWBLl4qAAAHzklEQVR4nO2dDVvaSBCAEzaIeKAnXSohkKAVacVSe3cVAQW8+///6XY3QSAJKZtZyLTPvK0fDyrk3Z39mM0mWBZBEARBEARBEARBEARBEARBEARBEARBEARBQGGMFX0IB0O6Sb3O2ac/c3Hz6bbvWhbiIlKCrbtL38mH7/ij04F7pZ4IpaaqwM++UyoFpbwE/k1HllX4gQ3XYq0vUlD8Fx/qG2f1NfYp9WH1d/7nvioshIbyoG7PlV6+OgwCZV69H4ZPhg5R7rV7BxChsiIDWb+jh6JddsCsoYxROI4/iLpUZBXJrK++CUGhOLqNhh5cjsw6O88fo9uK/p0bPScuzqqGBIXitxrGHvWsaqQdiv4mKJ1/6Ug/TIrMnKEaUv3TvhVNlPBgKkojyfu+KjdMUzijhkGp+niBbYpq1FBQHQ1QNUTzhmpgROVo3FCMGp9aRVttYt5QKJ4ODDiyVYMGBsQBDMVE3L+/+f71AkTnfdDBZ+gEgVP1z4GMvjyYyasPUYcllZA5wKmEM7prmRh3DmK4pfeThQIn8bBCPubfta/gjgdph3HJXM8RBMFoYN4QtCYFJ1YqzqkLn8nH69CRbSgKE2cVMhvfJX9WMvrw9sGM+ofoadRrrduK42Q2oR2Lcns1uOTDMn42JJ3z78YN46V4XJz3TxHVj/AF9WSUFst2U/SFoeF26D+eFszj5uKfqENzfakov8C5/OukUConJ3//M1pXpIpSY4bin/+jUjmpFMtT5YfvlA5hKCVHFwXryQJ++nooQzEMXn6QL/FHwXTuLldN0ayhExpWik7QRdcyvDxIHYquRhoeZ70zfTIWPeRaH/11X7rjt/Y+yq12GBoeBZa5JDeQJ6V3GVp6JyuLMQxP4rBWp9Zq1VIY+6XAF1O487vYD8QfuNH2g30VC6pDcXzu7Pp5Pm+kwyMm8V+o18u9lsWu9m9KRUWpO1tMPCVha9L0pjMLfzsclie6ZhuOjZncgbDnSx3bUB1X7brxs6rjW1/izPv7z1ePasjUIOH2pt2dx74f/BplTxP6WcNXTx4jyNBudPZ+2eMZhn61l0lT1QJI0Pb23/tx3Dpsj+teE6wnC6iHsqdhD6+ejE4DguYMGZT1E1mdF8AIETM0E6Vm9lWEnsyqjecevPJWNDoGRvz3syJbz8Ws1IetxMNs5ae+dXsLg362/do2EaWGzsZLxeHSWIBKuP22/7Qtqx26tVrqzF+LVm3YK094dGSG8Gb7l/BOQ/ZQXtSNMOmuy94Q9f0H/HRDuXP4Vc2sOBBTSjGWwAyYXVnD6YGOzQjdsQVth7XnQ5W+EbyOxo7kNEPXeuv+/GUKZOpq9POpUcoWqKtQ5E7u3oLpUTo0OnoZp/ugs8kz1bDnFS2RBdcZK3ZEaRl3kL5qTbbSDNuNZtEWWXTfdARTDYeog9SeDMGG/2IOUs6nbaghE8M9Yke+1BKMGz4Jw06jaIkMuO31QIaVEzFWoJ7QcI2FxFTDisWuEYeoHCs05jPphh3cUzbvTXP1KGmIfMrmzTQXV5KGY9TN0K7rbiFPGuKestll3QtW4oZPLcxjhUrv9z91mG74gDpIudfXXaZORCnqKZttL1zdVdyE4TPmGZttX7u65xrihh/wNkNZ8t5M+8q4+Lz0zMNch3ze0T7ZEK/DbwZXps3Dy/p792OGJ/WiJTLg+lO2pOEH9Om9diXGDG9xJ7+Llv79NzZ2QUvD16IlMtFN72OGciP7GeZmaGun90nDxzfUmROfaKb3MUPx//EVcSO01dl7oOGojtqQ6y0Fxw3VhVVGtvMcjPCMTH5DQVC0QzbzGqwOBf8V7ZAJL+fawbRliDhCBd2epbmQmDQs2iGbST+H33ZfirsZ8mmeGtwa8X3kzTBHXhE3RH1eVKX3IEMxGhbtkIlK74HjIe4gtcsMbIg7SLvjnNtBN66wRD4aDnPee3JtiDtI+cLNeWXkr2Aog4sv894hY22IOUi53R3k3ZP9boh7rLBzpffbhniDVKF79v6XM8yX3m8Zoh4rRDPU2Jyfboh8ymbXc6X3K0O5BoU8r7DLuQVXdYg8SL0xzNBBbpg7vV8bOg7uIJVTttwXYYVRit3wOn8Vrtoh7szJy7UUvGWIe6zg8xrQ0EE+oZHpfX5Whpj7UjFWAC7YVYYB7mY4ybnKtmlYtMNuZGwtWlBDzM1QGr6ALklWhqiDlHd7THenV8wQ94lRLtJ70O2ElWHRFllw+xl2o35piLkZcpsD8orIEHczhKT3K0PEmZPsIADp/coQeZAuYYLCEHEVqjWoHtiwhHmssO0GIL231LshVVGPFXJzPrgOETdDgQdJ76P3CkJ9BYnOTb12GfpFO2Sjzt6DOMO9TahZBqyyhZV4gbsZdoFTNmHY7yIeKcLN+ZA6lHcxRN3R8Gkbdks18dc91FXYfAG/+SfDfWm6zCtgN1Vj1gB1HYr0HliHbNUOD3ZXrryEB/QMnbKJ0mk/21gTYB4tBcPqkKl7RGDMLmS5T2vwjsZi7SXavmbyAH+/b/nnrbK6r2/ROgmak3F0+3VgJV5Z7niOb2LDu89DZu59W1uz6zIulm9D7cvSM4B2yebZcQtY0PMV/LYdMaL3TjB2UOGbKeBhfVi/MaGdQcffurQIgiAIgiAIgiAIgiAIgiAIgiAIgiAIAiP/A+hUBSiZhkigAAAAAElFTkSuQmCC;" vertex="1" parent="1">
          <mxGeometry x="-160" y="300" width="90" height="90" as="geometry" />
        </mxCell>
        <mxCell id="yzWlFv2qgCpfA1fJS8uX-20" value="" style="shape=image;imageAspect=0;aspect=fixed;verticalLabelPosition=bottom;verticalAlign=top;image=data:image/png,iVBORw0KGgoAAAANSUhEUgAAAOEAAADhCAMAAAAJbSJIAAAAwFBMVEXMAAD////z8/Pr6+vl5eXk5OTm5ub6+vrj4+P7+/vJAAD39/fv7+/8///m6+vs8PD3///q9PTVZGTjnp7Zdnbu9vb35OTm7e3UVFTjw8PYa2vMCwvtzs7PODjfpKTciIjNJCTq19fRRET36+vOGhrrv7/ckJDRTEzlq6vPNDTswcHNFRXl1NTmtLT89fXhwcHdg4PWaGjimZny09Po3t7YW1vTUVHUb2/pqKjYe3vrubn02dngrKziycnk1tbUSUlSRWKgAAATbElEQVR4nMVde1vqPAxnMoYU2m3AmChXEbwrclD0oOf9/t/q3QVwwJakXaf9xyc+LG0oS/rLrSXDMKqmZZ4Ef8uWVSmWrGxIs+iJvkmr9CMz2UKI4I/heZ4T/vH9kOTWj0l48NXqI7nwPafa6d0s5u3mWf/+6qpUur+/uH5trhbv0/WD7TqFzJsgrVK1Wq2Xy+WTarXWCP7WtJDVRtm2Dd7pzl5GLByl4xH//3r+/mfpeDavFbCMiCyZZqUcSHtSMU9rwd9TDaQpfONpOuunS5Yiaam5mJqurXkZG7IU/FLjZVlmNfhbyU86/wYvNOH2xLyad2uGZ2lbxpYM9tDcSFypRl9ADtISnvFneCsnXFLM/xZfruB5l7FPlk60jbrjTVeSe3cs5cW853j6FnVyEutSsxJrHvNUmRTutJ1XvI2QpfmDrlUFv1Bd9nA5K2kRbyNk/0aXtYzsYe10I3El+gKkybrRa2oUL5aRtYNXMs+qNqRZCixGI7AgJ8HfemBB5EnOB8q6BRay33Vs1VXtyGpgLcyNbq3EqlaKtDxjoeftS5WxNPCEwqr2yHz20C8Pi5NvIyPPaw8rlfgEcFqJDwQypBgWKl4sI7uRXNUBGWuaymn8XlZO6aRlDwoXL5bx6ll5kcH+KVsL7/m++A3cynjZMWo/jZ4m1z8mXyRjuy5+Ej3VeetH5YvGwPtB9LQe/byAJfb2VP0p9PQDGjRdxoH9E+jJ6/zGBm5EvFyKwtGTs/g1+SIZH52i0dPPqtAUEc9dq0D05K9/Wb5wXCyFtD0kIhHT/QUbkTLYI33NUuipyrWDQMXBhk4R6Ek89X9bst1gZ7Z+9CTGOjYwwzksP0ZLuj2koSe/m2NlkVxvr6v27P39vTVbDOft5nVOYe8netGTM1VcTejPHj6ul67nG2EYQ4h68Nf2/YDs9Abta2U5WVdoRE+ukpln7Ho4XfrJ2Ms+Zy583+lMP9TcPKzrkK0FhkTcmfwS2NX8TyJ+loVxIp3uLT9VXK3sDuIsg548aQHZ7WLsyISTbJv35D0+7I5XdaAnT9LOs9LsweWprCDS8r21rJDs0a+inFFrIfkTZa89R+x8jdIOspu+3GxT3BOHoScpARkbPuULGNXdL6mTE/uDckbQkzOQEXBxoiFq5CznMnP26rnQk+jRJ2NDkJUE6VsSXgS2NEHOMHoS9JMMG1pSoAaBaZMX8sz3S9weZkEPa0me5mXs54oQHZMd8jmgD7IC0RO/oArYd6r5IkTHZMO5oYr4CoEpCD3xV6qApVLTMDAUI0/WzmkysqGrhJ5cGache1c0gDBJPPCzZxuwh1noSTzK2d5evghROlk3aZ4vtsxmlYmeniRPieyhksUqF0l7G0e+PHoayQmIam1lck2ave1LoidH5lyxGZfprPKStkX5pbJHIYWe7C8FUMpWvJjsO69NEXEphZ5qaqh75kuHsWgkxcfwnyODnpoqAiJaOw/pP+MisoFPR093yrl340NWmkiKr489WGT0pO7mu5/kh0+pwyOETC5T41Ip6Im/KAsYzOLrSLdLITkOA9gjET39yeWWbrqa7eGWFLh+ZzUaehrlETBQqM43K31gKiAJaPXcI6AnW8ZvkSpiN3+6XTrJURFZhxPQU+7QCRsLPejpiMS9RrfHzx7aQ/8DWz/uC7tfWprt4ZZ0scMkm6Lo6QFjsTBwYNy3NaGnI9I9w+bG0JOLWYqmURH32Cxs5WlDT4fkCJl6IAwQPWFbOAo/TLBMQ7+oUiZscmalWItvrOEiB1I2CT9MUNvsWRRUymRjvoeZAaEnJJTNHmN8RHCDsbGtsXYpSWJYih3EvPbRE7KFTXcb9MYB8v1TARVVMTmCZ56JTPRU6yDrNszth21Up5Uubf3WIiaRZTI/Ez3xOfzk3TcwsXCFGu64NvS0T8LxsECdZqGnBvzdvOyBkzL+Ks6ks+yIwxmBE9/vzZtET8hXU95LmbMJCrXH9aGnPRL+ne7Nu4eesL3fN1M+fkQPTqgFVfq2wXnfjHT0BG9K/wiY+LjbPzih6kNPSRJ2lbGJmYaevDfwoe5xdImDT0Tjktf0oacEiWC8IU9BT9Y/8JmmmwJqbPyE2tSJnhKkB0+b+PDOHooZ+Mg4DRBZS0zCAIs4+p2LAWn/hTYkjBMdoSf3Clpo008FNZQT6lRoRE8JEkwGfTlGT3XQW8c6WaAGj8FlP5uLhKN/7LRyiJ6qQ+QryVDiyDkoGk+F9IWwoR8d+xSH6MmBlhhuQxaosXGF2i+kL4QA1emZf4CeGmDizKUDgBoPzWdgTUdnKGpLguqUHaEn6EfKenUI1ODRYjbLejYXCaUUsr/1A/QEWjZEieMhhTAVtADXGzTvubOPnibQ19FCQA0h+S14k3WGojbzQoCdeWYSPdWhNbIGimYIiSkFBKXqkPLYpfRFuvTUhxTiKyGchEP+fuazOUhIwpmRRE82tAefAjdTfIRJGJxQ9TsXIUTbT9jDmgkFrphNATV4uCP4UrWGokISQsKslkBPHMoEaHNSVRRBoU49raGoEPHdAtPd2Qn0BCilqFKMAmrAw37MqkdkRSZBQDQUCfQEalKqmSIo1CfNzkUwLvzmVnboCfo5n3kGFdRQTqh6Q1EVF5iM2Tv0xAFryFqcDmpGqIhvruZQFOCSCk4ZW/TEgago60i0ayCcUOekYiU6CaDEMDVjYy34NbAkKVCDhQXiIK1OMAXFkoY79MSBFZ1zGVDD8Wwq1uE6m/s5AHZ74xv0BEY8F9sYAA3UEKrA2NLUGIri58BU/sZaQO4k9iwklTieyDCyNbreOBDKZMtIl5qmADrpsIo0qMELot8MIisCyYFXn32FdV8BevIAZ9KVfPhogkqoNygFSHhT36An4Mx2Lg9qCFXf7NPXFooCbD5r2Rv0lP27YgsFM1UlKNQvbUVSPrA/bW9jD4F9/qsEagg1i0siK5QUwDv26sXoCYC/7KuhBGpwyD/yNIWiIGU6cmL0BASd2D81jGMTFKqrKRQFOGtYpEstCIEwV81MWU+ohN/lWDnBFGQuIgkrFpQH7yliHMhMbacf2Cqcj8gqIOHEiNATAM6vDVWMQygMY2tLRyjKByR8sCL0BLyqZ8pK3CQU97GlDtebn332Zl+xtXjPXsrKUMY4aBZgKTyhaghFAaHdWMIqb2UvYcVzYBzch1p68zRURWWjW/Zoh+hJZIed2EDkwDgVQpR/6JzmDkVl5yyHB5bQWmQfClhL5ME4lAqJz/RiJRkSk9D0s505gYS5MI7A63hZV+QNRWVj4FjCEw9wV7WwlgzIIASlWDknenIACR/rEXoCJIwzinNgHBdP7B/lDEUB4II9igg9AYfzhbqZ2mZM4CfUVy+PPTR94D18FJE9BMLhQyMvxqGkTQ1zdZyAJPwM97BsL7Inn9v5i5UIJ9RHniMUBenSOx6iJwFI+OHnjxB5BIW6zhOKGkF8I3sInGlefA0+P0IeKnvK0Tg9O40klrAiPrMX0PS1FCuRTqjKEwHYIszlCjQNAJLvDT0RoktUxFfliUzIRWFG6AmIT7Pc1iImLVRCNlSdCCjVCl0UobWA3ABVPREiG6sYixSq0kRgTMKLYk81yGu81nQNk01QqD1biTMQ3r33otgTFCkODgW60u3wzn3sSYkzkEcSvNxR7MkDUlED+KTHI0bpRDHiKpyB8NpL5GszTR8IAa98bel2PuGEqsJ5lM1vSIg99TVGiZ7w2oW5/HSQM3EXewJcUUxnuh2U4rldkzRnyFj82caegFhRcCrQmG6H9ygMOz1KcYYuSmGTbS4GZBD/6ky345QTqhxnG8qU2WXuecC8H7bOzg/GChXxwpPizIHcvWtvm7nnAVruytMTIdqS+An1kktwNutQVqXYZu5Bvii21GUPY7KG1y4MJTgLKN48ENvMPRsqPv/UEyHakQTIf0PnDLizS6xr7jL3oPha29Db+cEjKNRnQeYMpdDWvuueoBRmxnUnZxN6S5Pb90Emtm981z25gKphPcWLlrJJXKGWOJEV9H4Nje+6JxsqQJspgRqI5LhCfaO17+NASgT7yxN1TxB6uzK0oKcEadZxhTp3CazMCvR6La1E3RNkVUKHlebOD5xwQm15OCvITVi6cvfqniBkM9SDnvZIgkLt4qwg/VH68JN1Tx5YQVpA8weHAPnxSikoMZZNk3VPFQFZxF1rUJ2dH1xcobJtlD+LlQNll7HNh7ddI8DCp8tC2ujhCvXaB1lZYBHp5SZlfts1woc6YLEHTehpn8Qhfxts3wen7Cy8+MPbrhEcrOmZOzqLlbbN/Qh5qDcewApUj8FbXN7vGgHZixJrWAV0fgBf/s3EXaB9H1hLdnvUNcIBw9HD/BkTKaQHOIi2IgLt+8Aa2dZR14j6JzhR2Syk8wMB8pezngVhGJuk9NwDH2hpQ097pE04oWa074OynwNc4ab03ANbQoZYq4DOD1YZP6Gu3LRna3Csp7Wr7E303AMPUmxYSOcHSxA6FLY2if17zyJlHbtMjWTPPdg+sSetTci/L96lnFCP2/dx+LGml9ZzDzyoBw/JX+FEIn1KUOqofZ89gr+TxIcTPffgcuwo6l9A5wfKCfWifJgTCHdxuE8ir0TPPSCFLxwjQyN6SpL+f5iEpcv9EFgFaYcXZ5Af99yrw8eoAJPqR1HRaOAKtb2H4MCGGMGn9/INkz33IN93+OADfLOSMmkTFOp7oo0e6AaOkx4yeu7ZyEHxP1u7PcSzDbbL7n2377PgPWf17I7lLuBfDR+dGTrRUzL7jqBQl2LzYSwBaQV0LMfKeNnY1tyEfNe+b4VJWLqox+37YKAXLnKvVuuwYzm8iaULW3cT8i1pA8kEm3EdfZhjJfHnrgl1LMdeiKamYqUj0iScUNthYySsxoF1DpIADzuWI5u4cWNq7fwQk5Qe2i2/4kK12+FoIx3LLeyYGOg07U3INyThhNpDr39iywPOx/c9YcWReoqV0khOUKhovdjQP+B8fN8TGsEMDol6Q1E70sVvPUI/YB1yPr7vCWoDEo++hmKljPZ9uEJFvoAbm3DfE97k+dUxtd/oFJP0GxfTx61xzPn4vicEmYTf1FkhrreQxINS4MK+Ui7PTbnvCWovteH0YetuQr69LZdwdVX2aPspnNPueyI4oz8Ka0aO+1CzV5VapZV2W64PthSOmb16lu4bnTakwq19mzXdpXFOvy0X9oLE7M7sApyLEamqUJupnNNvy0WvKglHP7pquAAw1VATkKVzzrgt16Bc+nQxyV8Vldq+T0mhsl49lXPWbbkO7m4PnXZ+MWBK4V409pHFOeu2XNJ1zto6PxyS5MuOd2OUyTnrtlxCcC8U8bqR8qwG8kNSxKiSIZ1V5m25lDaI4ej6hYApifukS3FdiPRtuVStzT7cul5rEZFcZhPZ3MhklXVbbqS1icfgi/Xxs/lJmRuXL41aJquM23IjkpBKsPkK2zWuHUxx2k3H0VdcrwGs0m/L3ZC4X2Er48A4fDYnKXwwTWtv8iVYnJV9t3pIEpJdN7Pc/tEKplygjOJw6j9wa4vU23K/SbrWZs3Otiw6P5jq3tLn/YtwTr0tNwFm8DaICRnHTs4uE+GoOz26fIT+fWnoaY88k9BprNlzBZJuh5J3fZkZP1yEczp62iPx+GVyxv6g7CnbQ+E3WkzKEH44JsI5HT3tkZgb/HBSNgzso61SFWU/N6XkC4/bKOcM9LRfrISXRh5MfDVbc84l0FON215vfiF7GF15OC7LQk8HxUrSR312NVwLVzQwzoHGsyxu1O7auLP3aI62axJwGWwPt+SrAiZlpbPFV/BsXWwnPuAcd81wy9NZX+7HueE/pN0klYWe9knnTc09xFj/46a7dMPX2RJWtKVWuGmGIXzfm/TeV7cq0oWsF0Qglo2e9kllD1ggJSv1X1eLv9P1+uthPO6s19PPwWx+HuyconQh1xuXBsQg9LRPkg9wgKTfIyevEuv5RDsEoacDEu+K8HPjYkJuMQGhpwPSG/+2XNvBLusSfdRB9HRA1uStRhGDffiWBBCjWYstSfTdFCvgVA6IIejpsPMD3pW0aPkuJpK4DEFPh8Nr/O4vlbWlARqKng5JTmhlXZyAU2lcRkBPh6T/lTMUrS7fdU0elxHQ03FkyvsdhcMGYBlUDvR0TDpjCT+DLvmaVa4S1aKhpyPSQu7jLWB8SS9SCj2ltGuo4+k9+gabubbCIiXQUyrZUUGNSvJ9WEI9jEVFTymk5cq4/dTlaz746ouUQE/ppITrVl2+XGEsCfSUTvJnGfemvHwdo5EvjCWBnjJI2+tK+MWlxGPtsZH/cigZ9JRFOg/z/Kj9SL5Sq64ljKVqLfZIy/dvtP5YGTt7JHSNKAA9AfcuGZ2hro1k961/vtCxKgX0BI0q7+UXkrH7+ZeOENZuSKMnBFt151c5XITstrU2bK05gQroCSYt4Y5vzhWEZIytHpeab0dURE8IGR0mxoMVfS8D4UYf04khNrFHre0p1NATIfsujD11W6tr0Psb+Yb7HzfrquHZjWIqqhTRE4k0hQg0fnX8uWi/XN+zg3HVf5nfTDsN3xMyTfZ+Dj1JkEJEMojlcjnpdMYPD/8mnBue6ysDIjl7WLyEh8cDy6r9yEQb8n+mloOOWY8ESAAAAABJRU5ErkJggg==;" vertex="1" parent="1">
          <mxGeometry x="-310" y="313.75" width="62.5" height="62.5" as="geometry" />
        </mxCell>
        <mxCell id="yzWlFv2qgCpfA1fJS8uX-21" value="raw data" style="shape=image;imageAspect=0;aspect=fixed;verticalLabelPosition=bottom;verticalAlign=top;image=data:image/png,iVBORw0KGgoAAAANSUhEUgAAAOEAAADhCAMAAAAJbSJIAAAA21BMVEX///8fckaFvp+YmJikoqKhn5+urKz19PS6ubna2dmCvZ19upkAajmwxbjOzc2QkJBnlnrs9O+gy7PT5tsUb0DA3MzK4dSRxKjk7+mjzbbd7ON5uZfj4+Onp6drlX5cfGpNc15vbm9lY2SFg4TGxca9u7uQtqHD08mzsbLz9/UvflTN3dQAZjF1noaBgIHx9/RMjGlalHQmeE6ArpWMlZBgXl9bhG6ls6upw7QAYSeYu6eApY8/g16uzLxXlnakqaVQgmdEi2ZwpYmJtZ1rjXxAe1p6joOCkYlDfF3grz2wAAAGw0lEQVR4nO3dbXuaSBQGYGmMSRPSiI4JNXW7bVMUMBUx27qKu4lJm/3/v2hBBrVWDonOKz3Pl9ReR+B2CMMMSCoVDAaDwWAwGAwGg8HwSO9QTKpvZAmPq52qgHSqndfShLU3/FOLkTVJxONqT8BaetXa9aEkYtyGAtbSiz/H68OOlN9FccKjz3KI4oQxsVqVsKMKFFYqMVF8KwoVVmTsqGKFMVH4EVWw8Eg8UbCwciS80xAtFN9pCBcmRKGdhnih6E5DhlBspyFFmBCF7ahyhCI7DTnCpNOoCdpRfxW+68F5R+uu4bLjzJL8+8uH8421iOs0tgjPD6CcZ8IaXHeYUZKyDx8/ba5YWKexhxAsO6hmkhyhsE5DojAmithRZQrFdBpShUI6DanCRafBmyhXKGIwJVkooF+ULeTfacgX8u40FBBy7jRUEPKdgVNCyLXTUELItdPYIvx0DuVTJuyAZecH2cYni/v41xd4Mzh2GoJGwIdFVyn5XbaRNMbfEl79ojpCXjNwCgk5dRoqCfkMplQS8uk0lBJy6TRECY+Lixa5Zt5p7N7jN6625pT+fEXLrOTF1/fv/8zJ0+btYaw/8t3P2honr6BcZsLT+EUszMvtL3eIaSm8+SM3365/Tk1PYX5Omxur/1x6IfNDHwpRiEIUohCFKETh7sKTpfBKPWG1A6WaCd9egmlkQrjssi1eKDnyha7Vbna7ZzbbzVhFonBg+93ZeDK9GQah8feY7WbsskHsFmi1W7OJk8ii0DBJHMMwz9huxos2iN0C7eZsMophQeQZJJVl0V3Ybk1G/0RhGMaWn2B6CulMphvH7sYyz+z3TXOrS0/hwb+W3fZnzjyIaYWyNaFlg7GyNcBltstNOIhdfnf8eHf3ItpK2Lg6hbKaLwXLrtif07hW0++ejZ1pfeiFC9iLaGtC5c5LB/ZFazxxbupB4BkJbReZ0sJpEMX9GdlPprSwbjKQqS1k0XYoRCEKUYhCFKLwdxOengA5Xc2XQmUnLMcWrIUXLTAXdLUDuKy1OWmnkJBTUAgEhShEIaOgEAhrYfN5/aGrb39Y/nOa3+C8FIUoVEGY/w7dhCbNiuYluR9GJRFGk+4i4yD7n3s/SdP+J+89mgmN7ARlSkvMSfq67ZWkDcmcnljMQrr99PVD7meimdAg3bSkPVzUkFF66bkd5b5FO+F8kNbQRvPTV07uG7QTGiE1tZJfPFJPd1IbOvrqJjQfaFEQFxF6R9c4v14/oRHSm0McYpAgXSnUhGreiwEKTSctsk2DOOlxpguUP+N+muW4r6BsIEhoEFoVEG+2+Ic1Bz8R/cb4ZuqqzPo3aRP64I0NGgpJlFa5YXo+44JNqKPQMGgjOumN10343hQthfW0jB4h4CbUUxj5a8V2we1FWgqN6VrxqIxCstaIdljwacTCWQPMW7qowSVYxvL7FoVtSCbL2oei2sVZG5hnzpcKnachQfZ5uvnDpnWhVuelC+F0eedywZFUV2G4Onr4BaV6CkndWhUHBcVaCsP1L/p0++UTkuFP45j7wnMa7YQGbcJW+sOHG1FDIQnSKpuO9t3cyWBdhdn4cJ615VnZhF5a5BqEjoDtYcEYXzOhSVtuRoyITg+PyyWM6IE0bjhCJ6WaUJ+onbBPm9D3jOVsYmVSIiG5pyP7xcUnQs/eoEaMhZfbn/V1te1ZX0AEXSGlJn8xpiDzbHoYbENO4XN1bUibcEJf06Gwn3sJWDdh1gVatMSks96VUUmEZEhHvmfZ3IVH27SZO5mhmXCUFrhOVpGd4OSPhPUSGtHNIvXVr13kLDIblUSYPk5gy3dLQ+hOBU5R6J4oTlFIqFWPv5NQq7M2FKIQhShEIQpRiEIUolBjIYs7FVQeW7TewqGrHTTAqobIu01eKOQUFAJBIQpRyCgoBMJaaLfh0NW6BWUsv43wwgd4FgnV+0bJmTMfRqG571MvV0LlzksrrhXvWH53PJrfh894kK6GwqXUHViuP3uY33v9/vZLMpoL12N9e3ycB+klppdQ9RFmz4K2W+OH+TCIIi+EvqSup3B9gfbFbDy9++/79+RR3lCTaitM8u784Pb2x4/Hr1/v7mLq9p1XdyHN7e3Tj4QaN+rmA4hLIlyTPj0lUgolpROupEmrOqO5l/z1hzIK8S/poFAdIZylEBwzrD0JS9jY4rnCozdwjmhd8wJMtuUuXHZhbaxe6F9hkRIUyl/gvkGh/AXuGxTKX+C+QaH8Be4bFMpf4L5B4Q4L7LFd4L7h0YavlUqPvVC5MBb2DpVLh63wSMGwFWIwGAwGg8FgMBjM75j/AYCdt0wJ2r0QAAAAAElFTkSuQmCC;" vertex="1" parent="1">
          <mxGeometry x="-310" y="155" width="80" height="80" as="geometry" />
        </mxCell>
        <mxCell id="yzWlFv2qgCpfA1fJS8uX-22" value="" style="endArrow=classic;html=1;rounded=0;" edge="1" parent="1" source="yzWlFv2qgCpfA1fJS8uX-17">
          <mxGeometry width="50" height="50" relative="1" as="geometry">
            <mxPoint x="-79.04963999999995" y="281" as="sourcePoint" />
            <mxPoint x="-20" y="280" as="targetPoint" />
          </mxGeometry>
        </mxCell>
        <mxCell id="yzWlFv2qgCpfA1fJS8uX-23" value="" style="endArrow=classic;html=1;rounded=0;exitX=1;exitY=0.5;exitDx=0;exitDy=0;entryX=0;entryY=0.5;entryDx=0;entryDy=0;" edge="1" parent="1" source="yzWlFv2qgCpfA1fJS8uX-18" target="yzWlFv2qgCpfA1fJS8uX-12">
          <mxGeometry width="50" height="50" relative="1" as="geometry">
            <mxPoint x="-60" y="245" as="sourcePoint" />
            <mxPoint x="-10" y="290" as="targetPoint" />
          </mxGeometry>
        </mxCell>
        <mxCell id="yzWlFv2qgCpfA1fJS8uX-24" value="" style="endArrow=classic;html=1;rounded=0;exitX=1;exitY=0.5;exitDx=0;exitDy=0;" edge="1" parent="1" source="yzWlFv2qgCpfA1fJS8uX-20" target="yzWlFv2qgCpfA1fJS8uX-18">
          <mxGeometry width="50" height="50" relative="1" as="geometry">
            <mxPoint x="-60" y="355" as="sourcePoint" />
            <mxPoint x="-10" y="300" as="targetPoint" />
          </mxGeometry>
        </mxCell>
        <mxCell id="yzWlFv2qgCpfA1fJS8uX-25" value="" style="endArrow=classic;html=1;rounded=0;entryX=0;entryY=0.5;entryDx=0;entryDy=0;" edge="1" parent="1" source="yzWlFv2qgCpfA1fJS8uX-21" target="yzWlFv2qgCpfA1fJS8uX-17">
          <mxGeometry width="50" height="50" relative="1" as="geometry">
            <mxPoint x="-207" y="359" as="sourcePoint" />
            <mxPoint x="-150" y="357" as="targetPoint" />
          </mxGeometry>
        </mxCell>
        <mxCell id="yzWlFv2qgCpfA1fJS8uX-35" value="" style="shape=image;imageAspect=0;aspect=fixed;verticalLabelPosition=bottom;verticalAlign=top;image=data:image/png,iVBORw0KGgoAAAANSUhEUgAAAQ4AAAC6CAMAAABoQ1NAAAAA9lBMVEX////hUkIAAAD5uQD5uwCLMSHkU0PhUED5vRT//vz6vyHhSzrcUEH7z2X99PL96r/6wCv80W/81Hf7x0aJLRz7yE7/+er7zFv814L/9d394qX/+u/6xDv946///ff+8ND+7cj93ZLu7u7Gxsbwzsv83Zy2trblXEvLSzzd3d2hPC3y1Z7z5eNhYF8rKyvg09B9fX3vpp2hn588PDxISEjywLrrhHWyQzMhISHrkofoaVeKior13Lqze3LBjIXpdWZubm7bu7aiWUyaSDmLIADus66yaV7brqirNyWgamPGrKneQS3zzZGtioT2xX3HQC6xVEjRa15DRXFTAAAeFElEQVR4nO1dCWObuLbGhbAZzBbMYrCNY+IsdtOkSbPU2Zu205m5977//2fe0Ypw0k6aQKZzc08bFiFA+nR0NglZkv5H/6Pn0nA4NAaSwU4NOB9Aar/flwYDOOkn/f6gj/8SepwksB8asB+NRgk6TUbJeDQaUxqNUTomx0nQ0/CLkpFjfL8cTyj5oL/yPKP/iNsGSerFvgNVcuIyjco+1MLxfTuMsrgI9cwrzCAKXERRGIauabpZoJs6HADpQOSAH5K9C3tFUXRMyj0i6bJiBl4cI5ChsOPhAGjYH/cBIwMlDg2D7BENUCZ6LKFLuLUkcgWTgZuP5ujnJXkOqmTfCVPDGBVl6feHpHXH6cjPR+ihNRqXcZw70FJpnpd5UZRBGLh2FNlx6Opu5EVRkMGfqciEUA2izA0yE5/xZEz8iCX8BcmuCw+3bdsrCmiAMAihFWQ9jIvYj6IIoPJ9z4PrcBJGfuxDTnQee57vp0XsRaWHL6Jkz49jmxx5URx78Cx0fwwVtD3b84vIjWwlQOdpXsLLitTx4tHjeG2UA7PEuiJnkZtEtObwh3FRdPiDLdo91Pg/QfI9eiDpSaTIVYEZ6S7mTBlvEEWPgmOcJuPSC7K4LOF/ELpRrOt2hntKkaYpsI4S+nYWlDY05/dKUp3Rl4uk/0S19Xp+HTcNagcT141dMc0sMxHb6m7mxTb0XOCPzIUUJcuCENIz4DE/zOAMGDGw4WJS5wKnnzjDgTMe1FKTUW8AnQd4zfdzIMfpp84oR/0pB6GXx0B5CgfQqQo7i3dtPbTj3TxPgcvDSAF2Bdx2Y+Dk0AyAZwMoeAa8HmVQIhv6n58v4wxYPt4t4B0R8HMc7/4RQ0qZO9Bp/yjLskAvRq8fpdCfx3m+G5eOkzqJM87LZQICuo8FMpylu0WRj/tSAj0fmitPBg48APoOFNTLsiiLAI0ggC42LqAwfulHgSz7melUtUbIDA0iompiGARQdf49gd/r9XvDXg8ORj1pPB7gfL0B0iyJASJ6jO81+pBl2BuSrEg29pjcQ1fRHi41plQMIjvRY0EKw8sgoZ/04By2Rn+ARDOUW0KK0MmAvcfVvWlThfhn0tCOzGz8d5fi16HYVbK00rTDH2R9DeSbppxXp+XfV5JfgYwoMuW0Ui3F31iWX4AGYWDK/pifv3JROgCXQ44rT2b89xXlV6B+AHDYVWfpP8bH+++lBMxWOazgGIz/vrL8AjRCxr455udD5/t5XwElNrg7Ahz9161pkyVyy8f8PB9/N+troEEpg0tc9ZAy+UHm/34aRrIc6hUGr1t0SJInK5FeaVfnlTstsaxkAnfUYz6vjnoFinIKneWlzbBebz6fTo/u7k5PP1zOZjOt8zui7u+qNpudXV6e7t/dHU2n83lz8aAfUanrclj1kHT8Ei9FZPTm0/3T08uzs9mso3YxaUCdTsfqdDR8qJHkrjo7Q8ic3gEs7aKSm7rsVz0kexG7A4DY/6ByBDAGAAHCAZNlWXjbwXuNgIOw+V2dXZ7ezXttFWw4Bo/Wq7jDbtulncyPTs9w1bROnSy+EQ9WctE7L/ePWsFkkGS6nFWyo2xV0/am+x9m94GoA/CXZOFONPuwP2+8gMM+wGFWAy0tyg5jvn+Je8cPa1pHxXoII02z4BkIksujhhHB3BEI0bDWrNL5/pkmYKGhblBDxsL/qv/k9B4iGoUD49K93G+0z/QdW5HDijvilhStcTTraupDTS1yRm1PDy1VyGaRI8vSaC7t97Npk+V0fEUWBlrydrijd7oqMKwOZ4aV5HugdFazAHtUyGrd/QZ1bw7ckVXyM21HlN6pqyKj3gcehQK9CD3FEvlMUxvkDwesdHnJT+1W4BhcfkebCBiIfUQ81lZBIkylVQh2z5oraVHqpmCk2/kP8j6ZepcrQvN+m69UGltgq1KEYqWKZ0ggNwhHXIcjaMUqnfwfk3wdWs0H5GZNj6wgsZJWf4T2n8YKmsSxEigMjkTyWuGO+c2WVdWjXqcaMPdk68NnlTJGzHJ801hBR4GvZy7TrumwbMVIn9ysH1tqJSLEjbWS9qDlRZNFIcOhOV5vDo5hGelmwFy4OBm3Asf8dn1tZ8t6yO54qP6Mk7iMqHUplVxU4UC1rK2dtfXbxgo6cGLFVZgZhub9NPZogYzP62trazvHq2Kg8mAf6BHChRokFpU/KoBxvAPPXf+tuYIObEURROm4Hbvjeg3hsbZ2vAU1UbniWIHHEjrDg12Gw6cCZ2xtHeNnrq/vNVbOfiILcCRJ3IoolXrfbgkeiEe2LILJak3Jf22G1I8261jayhVmfQFXWFuYLzAaO82hIRm5qyuKAIff3LMF6hnTm3UGCIYEJAm0sQgK6zFgdGpnmoZhqWww2EJ2EMeABIcCscZvc6lBt3YswjEY2F5zjxZofy5Nvn1eFxDBoAAqmFUINJiAbYAJMGNA5WeqSkUnMMQWAmJHeAA87rdrQzr60mBJkZE+psfJIIobfHRFF5dHhjTZ+/NmrY4IAmVn5xiAQcggsjBAeEfOjjHt1HCgveTmYjqRpCPrormCDnxT4bOh8r7fzvSfi656OkcRoOvzm/W19XuY1Oj2duf2du1e9UWuALq5uAYspPlp998NwpF4egVHnEStwNH7c0vrzk6nKFTT2/ty8fmGVOpHoHwXh/W1m88X1zhU2js67XTVrw3CAXZH5dEWiW0392iBLo5BHmjq6T5GROrNr7+cfwYWoPX7C1zWGd3e3txcfCNQGL353Qe1CyLma4OyI41AdjBTNF3G7YjS6x2sM7pdMQbe255ef7k4/3xzc7uGEVlfr2qOYSIpawiFz+eAw3Sb3Yri8d3fcdhA/dqgph0FcmV3pKO0HTimt1skxqdpXfXs8vToaM61IxqH29ubXn/7coHonBE++/bl23Rvbz7vsUE4PFq1fznrkAgKMulumguXDhLEHcyFK0dJO3CAS8tNDDyAhDC5O5rOJ4+vymQynx7tn16qXRSCZgEUS936rbngYN+PdVlnojRNhu2YYVh4CEQH1Trq7Ozyw/7+0dEUD8MiJuj1enjWPiE0gDs9OtoHGC7ZyGUVR8auy9dvzRUziQtQtMzYKPtpS6Nw347rTojFUQFcQOvMZmdoGPbyA9ApJjiG87PL2dlMBSnRRYF4bSXiaoH9Zn1qMFSaFGiuHOshcT9oaRRu77ZeERW7IdTgpLBQlmGEYCKD2OqDgVYLiw7V+tTgSEsSIBeORQTB7miJO3qfsfAQQj6Wyvhdve++8tFr7V7kuEIDOTBgwDYX/AE48IdSDANnWbQ0gt+7OLbowHw9/oWdFLEDdWgEQK3S7o3FsDE6FanZBo0wKXERHEyUjkdxW0PW376uBMppzIMeiYBYmloNqjwUEBMhsm6vGyxlEorckY+ituDY2xHDOiRobuE4Dk9FY68WGmGzLDzXRdMEmO7BQiLyqnXb5Kj1CE2z5UZ6mgRtDVlPwBCrhk5wHFkVgmIgTsGbh38zbdZBuxk6tWbE+bcYo1SdTUX/4a9JqwPgiBAcLFZaJkE70TCgSpaSitQqh+D4sDe9R6ddlbKEEE6t5DFQo6JDSkxRs6T90G3y6SJdHIsBUcwfKov2IXy6pw/ctN8l8vd+/NSiva1J/w2EJ/6smdkdaRJlTT5dJCY8qs7C90hFABwPcP1+11JXBqMYt9Cz9UmThRxhOEJaknTUUjRMwm6LqBlUrlJoT/geHNguuW954HQQHQ36bxKyOzAc9Cwdua3N/pmc/1tQj+xI5eB0T9mEPQEW6CyrXYTDiTBSv/7ZaCFHGA7GEvlIacejRXQhjjrhITSVyA1Sze93FvXeMFUFz3GD/pvE4GCiNF/q7UTDEF1XwkNlhmWlPr8nOzpUq3L5ySwzjKW10+hUKGkk1+DI5dZkhzSvLA+LgSII1u7pA1IAdxaLWbAdNijFTfet22ZnlxLNwsywPJBbindI3IvjzVxV6kfcIViixHRlTIKcQHXrvNkyEu5g4fM8bRGOWggIqwU8kUeltXuYOzTiqt0Tp2TTaNQYEVG0DIO0bLGzSNe3gugQbQmM0vdkR30wl3Uz6gavNRg1RjTG3MHkZ263yR17t9TywCqywzQGdcUIHGitjbqixT6LVYeDwglWR8OzjutwAHeEP8z+LMLCgwV8VNH0IGZYlZNjItoddS2LmaZp0SGNzBp3JHLW2scRknR+rAqxG1JDBsuqzyLAwc1yIRZE+lrTokNKMlnkDkcJWvz668uOWrUsqyFl/BocvEmIZmFKZSZIYhwhajJqjKmfiS5cPrZbc+GkKn4sGBK4VlhxrGoWzB77XdXiiHU0y5p1eBQNjr42zcojxc5kwSqNzYZfINIchAdzzGmFiAxBCSBK0WpLePiVYGFU3EH9PAwHs9+sTqNRY0xjGcHBg4O56bb4baBxvqXONMb+qlWJA+zCsaauaRZLNMy5UMU81bT/BuQomSka6WbY5oe0X76ScaNqbrFKJccP7A4yO6iCgxv66k6TUWNMYzkA6cGN9JEeNf0Gkfa+cguChcaYu2ppl9Ojoyn6d4e2R2h/fdrlkSKRqH3faNQY00hGK+KN6Znjy2Gb3xXTEJBFZEbHoqaYRQdW0IAbnh2mYjUCe6yYKWvwKCG5oaNufW7cKBgrmQ5GOu0hI98MW12T4DNxW7DHwhULsz+0FVLhT9CzCA3i0FKZ02zUGFOCVi2UM8oSaRyarX6E/+cxC31WxpjaqXswonAhZloVHaSiB9ntaudT46IDrNJaJN2Ogla/Yr4+ZhW3RI+FxfoqOAT1qlpcB7EoPOlt681/ONoPXFdWuGbZNdsLDiJCwoNrBqZDLfHzar7l2seqDPSOIDk6DUeNMSWhKUykdEq5XTh651tCoI+MpHXxFA+r3ltqbLJyhQLVuP8mIZ8lEyZSOqncXqwUEx98IqLU0rpdPLnlrNu17uNADjStJl1w94HdcfOiA7gjEKfZjtqG43rH4rEb2HbP9udIdhu96Sn9QrbODQCbdnapVcHjyqFtOGqMCS2jJnDHsm049m4tQY5qp1WVenczNrXFEioOftsRjafXGacN0SElgakLoeNRFjT/DpF6n4WxuO4HUTcYU1F78Ip3T4c9bG1w+5UYbVvNfdRTUYIdfJv6bc4oa23ImtKfWyTSaSGzfEVTEv6oC09tBgy0jz+xJAkkVqg2OmGQ0xjbHWwBD2epmy2vKUMsDwub4UdCOnpt70O3rjwsi4RQe5eaVbl9hEEa/MapolFtBD935Ja5w5j/h82R636gnd/gLTBlYQ1ece0Mc9C0y9mFBVqbjhpjqs/vyJetd5YJFR6gVe7YvGp+sfoam/WW7j5m3N4HrRIqZNZP8/4b0DyoDVmnrtn2SlnnWzQqaBGtYvAN7E67ld1F4qO00tOZxhQOjRq3ITqkfiSGjvNC1tteZe/bMYkdq2qN2wkqp/XlPCztTqKdCYASbBK1+agxpkHogqJlMR8nks22Fw6b3lp4NFJj65BQ0UFCxfVZtVRy4Ns0YotadHrt10Zn/TDqR5EwJz0NsjYj6ZhICEgFv+0BPjztiqJD6wq6Bw3IUaWCZ/20UrhhhKJhXHbEbqvBQUS9iy0yyCjWlcqO3pkmyI1O91IQl/MzwjlE8jQfNcY0iJALx+Hw9HY9WkRfvpKxBDqSwBUL7Oe1yfjUMDHoH46qMx38tQX/TUI/KlCbkx62rmglafsriecQ4cF+ygKPr5x2Wayww2LrBkNDmlMtjO9uPmpMyEazoTyqXZ3sBeCY39JpHdrlypXpzGJDdIg5tGndQr7TuE3aiv+GyM5c6Cz0vXkWti5K6fxjzPVs0S/y+vkZ+Y7JYhaYcA3tBpccjxaixpiGHoIjotxRuv4LwPEnm0KozcRx2aNL+i0TVSsW6w+cR440BlfjQ/eMPDQKx8ywWPdanP3DCE8hxF1C6344ooDM96vwD4Fjn+UfYsGCjPUPdH6DtdOS6JC8yBU+/tKzFmf/MEKfTZLIhqVp6tn+3dHd/oezaikta4YHcvF3cYgu+RY5tihHa6JD8mxXzthUuUJWWg7/IOqd/7uyPPGXtV22iiBOnmkakqnkSzj8URz9jwLMxH87bysM4YEZZjOPtpRBjLS++LNx8ZX6YkyGCCKDKFpNo0OWPBfROSRkqu204r8h8oJMDpjAKLLA67e/Fvb1Mf9iQbC6aK3FARUSb+dwsAzWWiv+GyIPjbMwyzyOstJoORwmES9OqOEKb4gplqWK+BA01K3bVvw3RL7o4Bee+RK/V9O72bH4HLkKlRVs0KCUJs7soPFB1dppYcCJkOGhmZR8jHZXeQHNIkkX6ztbaLrCyjB1fSTOEiZbsl6EPiXcWvvUmugwwGeRIx4cLN0X0CwgPNbX0LJqwoxi0u5Er7AUlabwAVy0OhZeHKuNqDEhtPSPzz1a/wV8FgkJD7yACV4zS5hXibUG9+HYSDVBCi2aRlfHWm/Lf0PcgZaNr+IdZrvzO9hbP39iK7eg5aHwuAlZFsri33UQnEg6WhaqWhTq00V70h58FjniU/RjvfXQMab5+crCP3TRLLwslEB4cazj2qpI6+sXLU6MtsNMjpmiTWP5BVw4RL1vN5++sxTSDqHvrAL06eaoRTQk3w5kvuAPaJYXkR2Yri9uPn16/PJQkPPT+u1Fe1IUk+dn8i7zWdJl9HJw4DWzzm9u6apHP0YCLY91/mWv9Z/h8H3XXfJI+jh4STgQ9fauCSafPmFeqdMnlLx2i5CYttlHOOWZaTrsJzjSZdDi9yw/osl8b7rxBa8L9RsmvDTUly9f9vbmkxf5ZRZCY9eVU48OeeTLrPWBhcdQj8eLX5pS3XSXEYUDZEdbvyrwDyFPV9ylS1esSJ3YftVwDGwvcpfsB1qKUfAiPsuvS7YfuiObWubF0n/lP0jrm6biMCO9WBYv4uD/uhTLsszhcCIve90/DOd7WTaqhqyD9hbw+EeQvxt5FRy7bvaqNYsUx6E/5sHBwm9tpax/BsW26yfV9yxx9Mq5ww6ihH84atqv3O6IwyDissMJo1cPh6svuaL1g+yVyw7k4LNomDO2M+dF4gq/KqWKkvH1ntNlqI//Fsf6V6FUVnSHD1mHUZS8ajgKOdALDkfk+X9P2OVXoULO3JjDUUZtLmfyD6DU9U2vYEswgmB93WZYnvlKEVOWWMbP9Fm2D95dXV0dbIhpxnzjXv8z9jY4/dRcDXTD9nNK+BeUB76Z+ixWakfPcfA33r2h9H6TIbBxiBMO6nWYvBHpcPPR8gpl3/hxlgminy06o9z0dIdH0sEqjZ+Mx8aJUMUDksYBerNZK/LbGh5v3j32HY+AY3Hy9uTjz5eekJNFMv/ZjcTL3PKpvaXe4gSPAyFBHE5chaMO1g/oEXAc/gy8qzQIY5n/vlWx9PUn/3wzZoR3YNNOPuIaQgfYRvvFweZHxDcnQt7Je9SjDhC9w8hcPfIlj4DueXBkIzljc8O8pa88deF43OALcvyRlhoxxwL1482VVhUzb6Pj94/s7W1zx8hcVnAU48h0ngrHSVWMDdpbFrwt39dbFXMHhUO6guO3AMdkE4jAcsCPQFldHS7esTMOB85MgJlsflwc0hyQjB/Nrv0sOa4vB/zTwDI0B0+0SnGDv6cKhEr3w5O3b0nK2+9zBwZtYRAWotl5rXubVD5T6cgubKPkQ5x5j+VA0mqDS6OF9BTKs1iJGBxj39WfKkmNBS7TO1Fpbm9PSPU2qTBhJMKBq4M4Z4NyiVTV2qg0E+E82guFDiZI64/0Rc+AI/1XLnM4llH49GXUeMO8f7ctWhmTjc3FqgTEneXt4t27q8UhrciDcOC6Hn78uGCZyAXCGxP+1gXNAVc+HuBrBx8fq6vqNMqWss8/HI294OlWqdBOJx8r0bhNUmrTdlYULRE5G/c6C5ZHV/CoHpYvPXoBg0nQwD0N9RLMR1hsP0uUDs1CDjP2tVPqPwMOZoES4pJim1ZZnP24ane8ZernfY07EMAnBn/IBu0suP1JlGqz6hboEgJz8Rw48tCWQ5eO0eZ/+M/yWYztd4fcNGXsMFks3r95U9elpLNcIaou3u8sqGZX9A4gg1w4EdBGPAF9E2jvkPLJs7gjjUI5Zo5K7gXPHnba3ry6J8t6B2/qZRRFKbHaDggcde5YUc/0gvj0RZ3LrqQG4EjZ4EoePv2jc9FzImYpqBVQLSQFa4iKPWp2h4Sa++0DinaCdvX551XNCUwrcKBHPguOMgiVmGGQB9GTlyRYvH3/nlcQ47G9+ebk5IokfPsRHKgCJ737otR4+4b7gpQID+Ab8NOwzXLAaVN6puxI/Ehesrm1eeQrT4ZDrPABhQO3Ok8Q4BDNMGyjvSWd5QTDwQSnIDsW7w/fU1G6INcPUfK7+3V/ns9SBnLBxprG5dO5A1d4QUclFlgqbr9hrWtgl63KXIMD3wkX51xEHtCjA8I2EoWqx4UKc4pE8bu5WGBFu3jzVBtMQl+d27KfsbV/8ujJ3DEhnXdzG+yuBRVrWPEezKXtBQeGZuYe7ccD0v3RRQwL1HnjPa01tjuQ/d47pHUUL7yZ08pfIV2MgMHad4F7Uu9pw0VJGMolU7TLouC/8/TTVNnHhCas1IKY43CsxjtwjepycYM/8z2GFfej2gX0RGLVvF+cMH5h1uDTGKSfxXLOWMIJ4qfDUYv1vDnZXIGo5sJj7hDo0KjlPjyktTaEZ+JuxA+wNv8mrfosEncWrp5Uh35QyDn7iKUIni5KJR73wSVj7jk1Qk7qCmIiYvH2HbNgKR7vjBNWa27pXhGrjvMAeQJimG3KVIfMQtl8+3TuyG1P3mW/7RTH/vPW/plsHHy8enewJxqgmx8/bs5XozsTkcTMIEzm5DJNMuaQxMPt1DjlT8A5Jgfwij3x4Xube6tvfByVYSR7zIUrduOw9Y8CfmnKw1gOGHeUcRyOXuLrr1+W+u5SNpndkcevnTuQZgmY3VHGRTB81XAMFRvgoCdpFAWve0LDQNFll3FH4YXuK4cjzOSMwxH57uue/dMzMznS2cpQUWy+7qlyI9lUTGZ7Obb9ymcO5mjBCpO6f3n0yr92wr+TxyOCyyyOX/U8SmmA4OCRdLN45XPShxgO9h0t2OuvDI6VtX2Gui78IInsxi/nsvQR8uAiGVVCX+on/WGSJMNhH7ajpKKxM04SZzxynNxJRg78G8Pl8XgwhCRIQ5vRIMnzfHc3hW25u1vGu7CFhBwO/1Ui2i2KsozBN8NUFLu2HzMqdnfjP9AyatxIl5meHQ6HA079/gDwMgYDA1LheMh3w35/5KAs6AH9HMoHmfvojrEDVegleRwVsReFkW+DxRtkWea6cT4qwzj2TBNOsyjK3Dj1bDvy0Febpm5mpmm6cKBnGWx0E23Qz8hAIt7LCrQgWsFbQWeui1ZrlhVZR/fqMiVF/hEprhlEmV5PzNzMzMAM47ID4ADQx45TosJnqPRBGAZuEMV5aWegd+zAzYLIjkK44NmRnaEnRIFtA7ie4oY21BnugKtQzQhwCDLzwQLpuMr0mpJ58KQstP1Q0SMPGswLoZHiwpUV2/cjGdVeDwEwO4zgffAWV1cIoWvoEYobhbrMUv6KCOIraS5KNUGzsFgpmCCh7/uBGWTQfv44LTJAHUpqR4Vje1DQyM5TLwtDBi1qPVN/sMboKsABsMVQfPQ+aBGohu6GoW0rZhTGaelFEbpYtZuisAO2YdWrty9NIxXJAsQOmFtkHf2oCKqcTm5BSLpQd3YTbgi40XSh8IgJTb0Oi8LMsNQMochREMYetBW0buCi2zAc8M+OPS8IPC9ECGAGhWfr6JmoWDIuG347LodOGR1fIFXQaa0AEnwVOM1ElfgunLJsh6aAg4IYVjjHr5ZDP8rwe4HdI1MPcI4APRp1RVQEuMuPfXJn6EXQRT1gd8+L4BpBqgY1hSMBiZQjGuGD0Rg2zng8hg6EuhAQCLTRCLJBcrHr5ONkBDlGSZjlSKDBNbtMY7h3Ny2L0kn6SByO8HNAhu16Hog4hKvnEPGYJHFUeiDdiiIuHCT1/vC9EAs/JBLLf8XL3d1dkHEgC33f/sPJISmM4jgMfK+I/TIf53n6L2BoJ03/8CPobnEI/RQIDiNoWq+A6hSeh76nB160QYb5fhGDTN39I47HOZQphiylXzp5HCPB6vvevbmkP+nHDXiUpFq8uHdfRw3Re4bGsNJuveFw5W3G8GHd1jMM+hKQ4Ab6Lz7YwL+8OKRkYJLQHYjIG9EBykUy4FeRX8AV3k6SX0y5/nO85f8H3tIf0kSbYP0AAAAASUVORK5CYII=;" vertex="1" parent="1">
          <mxGeometry x="530" y="240" width="145.16" height="100" as="geometry" />
        </mxCell>
        <mxCell id="yzWlFv2qgCpfA1fJS8uX-36" value="" style="endArrow=classic;html=1;rounded=0;exitX=0.995;exitY=0.413;exitDx=0;exitDy=0;exitPerimeter=0;" edge="1" parent="1" source="yzWlFv2qgCpfA1fJS8uX-3" target="yzWlFv2qgCpfA1fJS8uX-35">
          <mxGeometry width="50" height="50" relative="1" as="geometry">
            <mxPoint x="130.95036000000005" y="300.5" as="sourcePoint" />
            <mxPoint x="190" y="299.5" as="targetPoint" />
          </mxGeometry>
        </mxCell>
        <mxCell id="yzWlFv2qgCpfA1fJS8uX-37" value="input" style="shape=image;imageAspect=0;aspect=fixed;verticalLabelPosition=bottom;verticalAlign=top;image=data:image/png,iVBORw0KGgoAAAANSUhEUgAAAOEAAADhCAMAAAAJbSJIAAAAzFBMVEX////+zgDtsAD///7urwD34Hft7Ofo6Onov03sqgDz5LP39/f//+/2zzzpqQD47MntznrjsB/30C3x58z+zAD/zADv3ZT//f////D///n///b4ywD//+n4ygDorADrsQH68bf35pHt0Hru0oTy46X899vv2or47Lzpv1XmxGTjtz789tT59Mfz577hrAzr0Xvhsi7y46vz3rDy7OLr3Kfw1ZPp5+747qzy1l32zxbw1Ef++sr26Yn02mXw0DL01lD24Xz56Zr47Jf2wQWBLl4qAAAHzklEQVR4nO2dDVvaSBCAEzaIeKAnXSohkKAVacVSe3cVAQW8+///6XY3QSAJKZtZyLTPvK0fDyrk3Z39mM0mWBZBEARBEARBEARBEARBEARBEARBEARBEARBQGGMFX0IB0O6Sb3O2ac/c3Hz6bbvWhbiIlKCrbtL38mH7/ij04F7pZ4IpaaqwM++UyoFpbwE/k1HllX4gQ3XYq0vUlD8Fx/qG2f1NfYp9WH1d/7nvioshIbyoG7PlV6+OgwCZV69H4ZPhg5R7rV7BxChsiIDWb+jh6JddsCsoYxROI4/iLpUZBXJrK++CUGhOLqNhh5cjsw6O88fo9uK/p0bPScuzqqGBIXitxrGHvWsaqQdiv4mKJ1/6Ug/TIrMnKEaUv3TvhVNlPBgKkojyfu+KjdMUzijhkGp+niBbYpq1FBQHQ1QNUTzhmpgROVo3FCMGp9aRVttYt5QKJ4ODDiyVYMGBsQBDMVE3L+/+f71AkTnfdDBZ+gEgVP1z4GMvjyYyasPUYcllZA5wKmEM7prmRh3DmK4pfeThQIn8bBCPubfta/gjgdph3HJXM8RBMFoYN4QtCYFJ1YqzqkLn8nH69CRbSgKE2cVMhvfJX9WMvrw9sGM+ofoadRrrduK42Q2oR2Lcns1uOTDMn42JJ3z78YN46V4XJz3TxHVj/AF9WSUFst2U/SFoeF26D+eFszj5uKfqENzfakov8C5/OukUConJ3//M1pXpIpSY4bin/+jUjmpFMtT5YfvlA5hKCVHFwXryQJ++nooQzEMXn6QL/FHwXTuLldN0ayhExpWik7QRdcyvDxIHYquRhoeZ70zfTIWPeRaH/11X7rjt/Y+yq12GBoeBZa5JDeQJ6V3GVp6JyuLMQxP4rBWp9Zq1VIY+6XAF1O487vYD8QfuNH2g30VC6pDcXzu7Pp5Pm+kwyMm8V+o18u9lsWu9m9KRUWpO1tMPCVha9L0pjMLfzsclie6ZhuOjZncgbDnSx3bUB1X7brxs6rjW1/izPv7z1ePasjUIOH2pt2dx74f/BplTxP6WcNXTx4jyNBudPZ+2eMZhn61l0lT1QJI0Pb23/tx3Dpsj+teE6wnC6iHsqdhD6+ejE4DguYMGZT1E1mdF8AIETM0E6Vm9lWEnsyqjecevPJWNDoGRvz3syJbz8Ws1IetxMNs5ae+dXsLg362/do2EaWGzsZLxeHSWIBKuP22/7Qtqx26tVrqzF+LVm3YK094dGSG8Gb7l/BOQ/ZQXtSNMOmuy94Q9f0H/HRDuXP4Vc2sOBBTSjGWwAyYXVnD6YGOzQjdsQVth7XnQ5W+EbyOxo7kNEPXeuv+/GUKZOpq9POpUcoWqKtQ5E7u3oLpUTo0OnoZp/ugs8kz1bDnFS2RBdcZK3ZEaRl3kL5qTbbSDNuNZtEWWXTfdARTDYeog9SeDMGG/2IOUs6nbaghE8M9Yke+1BKMGz4Jw06jaIkMuO31QIaVEzFWoJ7QcI2FxFTDisWuEYeoHCs05jPphh3cUzbvTXP1KGmIfMrmzTQXV5KGY9TN0K7rbiFPGuKestll3QtW4oZPLcxjhUrv9z91mG74gDpIudfXXaZORCnqKZttL1zdVdyE4TPmGZttX7u65xrihh/wNkNZ8t5M+8q4+Lz0zMNch3ze0T7ZEK/DbwZXps3Dy/p792OGJ/WiJTLg+lO2pOEH9Om9diXGDG9xJ7+Llv79NzZ2QUvD16IlMtFN72OGciP7GeZmaGun90nDxzfUmROfaKb3MUPx//EVcSO01dl7oOGojtqQ6y0Fxw3VhVVGtvMcjPCMTH5DQVC0QzbzGqwOBf8V7ZAJL+fawbRliDhCBd2epbmQmDQs2iGbST+H33ZfirsZ8mmeGtwa8X3kzTBHXhE3RH1eVKX3IEMxGhbtkIlK74HjIe4gtcsMbIg7SLvjnNtBN66wRD4aDnPee3JtiDtI+cLNeWXkr2Aog4sv894hY22IOUi53R3k3ZP9boh7rLBzpffbhniDVKF79v6XM8yX3m8Zoh4rRDPU2Jyfboh8ymbXc6X3K0O5BoU8r7DLuQVXdYg8SL0xzNBBbpg7vV8bOg7uIJVTttwXYYVRit3wOn8Vrtoh7szJy7UUvGWIe6zg8xrQ0EE+oZHpfX5Whpj7UjFWAC7YVYYB7mY4ybnKtmlYtMNuZGwtWlBDzM1QGr6ALklWhqiDlHd7THenV8wQ94lRLtJ70O2ElWHRFllw+xl2o35piLkZcpsD8orIEHczhKT3K0PEmZPsIADp/coQeZAuYYLCEHEVqjWoHtiwhHmssO0GIL231LshVVGPFXJzPrgOETdDgQdJ76P3CkJ9BYnOTb12GfpFO2Sjzt6DOMO9TahZBqyyhZV4gbsZdoFTNmHY7yIeKcLN+ZA6lHcxRN3R8Gkbdks18dc91FXYfAG/+SfDfWm6zCtgN1Vj1gB1HYr0HliHbNUOD3ZXrryEB/QMnbKJ0mk/21gTYB4tBcPqkKl7RGDMLmS5T2vwjsZi7SXavmbyAH+/b/nnrbK6r2/ROgmak3F0+3VgJV5Z7niOb2LDu89DZu59W1uz6zIulm9D7cvSM4B2yebZcQtY0PMV/LYdMaL3TjB2UOGbKeBhfVi/MaGdQcffurQIgiAIgiAIgiAIgiAIgiAIgiAIgiAIAiP/A+hUBSiZhkigAAAAAElFTkSuQmCC;" vertex="1" parent="1">
          <mxGeometry x="730" y="155" width="90" height="90" as="geometry" />
        </mxCell>
        <mxCell id="yzWlFv2qgCpfA1fJS8uX-38" value="output" style="shape=image;imageAspect=0;aspect=fixed;verticalLabelPosition=bottom;verticalAlign=top;image=data:image/png,iVBORw0KGgoAAAANSUhEUgAAAOEAAADhCAMAAAAJbSJIAAAAzFBMVEX////+zgDtsAD///7urwD34Hft7Ofo6Onov03sqgDz5LP39/f//+/2zzzpqQD47MntznrjsB/30C3x58z+zAD/zADv3ZT//f////D///n///b4ywD//+n4ygDorADrsQH68bf35pHt0Hru0oTy46X899vv2or47Lzpv1XmxGTjtz789tT59Mfz577hrAzr0Xvhsi7y46vz3rDy7OLr3Kfw1ZPp5+747qzy1l32zxbw1Ef++sr26Yn02mXw0DL01lD24Xz56Zr47Jf2wQWBLl4qAAAHzklEQVR4nO2dDVvaSBCAEzaIeKAnXSohkKAVacVSe3cVAQW8+///6XY3QSAJKZtZyLTPvK0fDyrk3Z39mM0mWBZBEARBEARBEARBEARBEARBEARBEARBEARBQGGMFX0IB0O6Sb3O2ac/c3Hz6bbvWhbiIlKCrbtL38mH7/ij04F7pZ4IpaaqwM++UyoFpbwE/k1HllX4gQ3XYq0vUlD8Fx/qG2f1NfYp9WH1d/7nvioshIbyoG7PlV6+OgwCZV69H4ZPhg5R7rV7BxChsiIDWb+jh6JddsCsoYxROI4/iLpUZBXJrK++CUGhOLqNhh5cjsw6O88fo9uK/p0bPScuzqqGBIXitxrGHvWsaqQdiv4mKJ1/6Ug/TIrMnKEaUv3TvhVNlPBgKkojyfu+KjdMUzijhkGp+niBbYpq1FBQHQ1QNUTzhmpgROVo3FCMGp9aRVttYt5QKJ4ODDiyVYMGBsQBDMVE3L+/+f71AkTnfdDBZ+gEgVP1z4GMvjyYyasPUYcllZA5wKmEM7prmRh3DmK4pfeThQIn8bBCPubfta/gjgdph3HJXM8RBMFoYN4QtCYFJ1YqzqkLn8nH69CRbSgKE2cVMhvfJX9WMvrw9sGM+ofoadRrrduK42Q2oR2Lcns1uOTDMn42JJ3z78YN46V4XJz3TxHVj/AF9WSUFst2U/SFoeF26D+eFszj5uKfqENzfakov8C5/OukUConJ3//M1pXpIpSY4bin/+jUjmpFMtT5YfvlA5hKCVHFwXryQJ++nooQzEMXn6QL/FHwXTuLldN0ayhExpWik7QRdcyvDxIHYquRhoeZ70zfTIWPeRaH/11X7rjt/Y+yq12GBoeBZa5JDeQJ6V3GVp6JyuLMQxP4rBWp9Zq1VIY+6XAF1O487vYD8QfuNH2g30VC6pDcXzu7Pp5Pm+kwyMm8V+o18u9lsWu9m9KRUWpO1tMPCVha9L0pjMLfzsclie6ZhuOjZncgbDnSx3bUB1X7brxs6rjW1/izPv7z1ePasjUIOH2pt2dx74f/BplTxP6WcNXTx4jyNBudPZ+2eMZhn61l0lT1QJI0Pb23/tx3Dpsj+teE6wnC6iHsqdhD6+ejE4DguYMGZT1E1mdF8AIETM0E6Vm9lWEnsyqjecevPJWNDoGRvz3syJbz8Ws1IetxMNs5ae+dXsLg362/do2EaWGzsZLxeHSWIBKuP22/7Qtqx26tVrqzF+LVm3YK094dGSG8Gb7l/BOQ/ZQXtSNMOmuy94Q9f0H/HRDuXP4Vc2sOBBTSjGWwAyYXVnD6YGOzQjdsQVth7XnQ5W+EbyOxo7kNEPXeuv+/GUKZOpq9POpUcoWqKtQ5E7u3oLpUTo0OnoZp/ugs8kz1bDnFS2RBdcZK3ZEaRl3kL5qTbbSDNuNZtEWWXTfdARTDYeog9SeDMGG/2IOUs6nbaghE8M9Yke+1BKMGz4Jw06jaIkMuO31QIaVEzFWoJ7QcI2FxFTDisWuEYeoHCs05jPphh3cUzbvTXP1KGmIfMrmzTQXV5KGY9TN0K7rbiFPGuKestll3QtW4oZPLcxjhUrv9z91mG74gDpIudfXXaZORCnqKZttL1zdVdyE4TPmGZttX7u65xrihh/wNkNZ8t5M+8q4+Lz0zMNch3ze0T7ZEK/DbwZXps3Dy/p792OGJ/WiJTLg+lO2pOEH9Om9diXGDG9xJ7+Llv79NzZ2QUvD16IlMtFN72OGciP7GeZmaGun90nDxzfUmROfaKb3MUPx//EVcSO01dl7oOGojtqQ6y0Fxw3VhVVGtvMcjPCMTH5DQVC0QzbzGqwOBf8V7ZAJL+fawbRliDhCBd2epbmQmDQs2iGbST+H33ZfirsZ8mmeGtwa8X3kzTBHXhE3RH1eVKX3IEMxGhbtkIlK74HjIe4gtcsMbIg7SLvjnNtBN66wRD4aDnPee3JtiDtI+cLNeWXkr2Aog4sv894hY22IOUi53R3k3ZP9boh7rLBzpffbhniDVKF79v6XM8yX3m8Zoh4rRDPU2Jyfboh8ymbXc6X3K0O5BoU8r7DLuQVXdYg8SL0xzNBBbpg7vV8bOg7uIJVTttwXYYVRit3wOn8Vrtoh7szJy7UUvGWIe6zg8xrQ0EE+oZHpfX5Whpj7UjFWAC7YVYYB7mY4ybnKtmlYtMNuZGwtWlBDzM1QGr6ALklWhqiDlHd7THenV8wQ94lRLtJ70O2ElWHRFllw+xl2o35piLkZcpsD8orIEHczhKT3K0PEmZPsIADp/coQeZAuYYLCEHEVqjWoHtiwhHmssO0GIL231LshVVGPFXJzPrgOETdDgQdJ76P3CkJ9BYnOTb12GfpFO2Sjzt6DOMO9TahZBqyyhZV4gbsZdoFTNmHY7yIeKcLN+ZA6lHcxRN3R8Gkbdks18dc91FXYfAG/+SfDfWm6zCtgN1Vj1gB1HYr0HliHbNUOD3ZXrryEB/QMnbKJ0mk/21gTYB4tBcPqkKl7RGDMLmS5T2vwjsZi7SXavmbyAH+/b/nnrbK6r2/ROgmak3F0+3VgJV5Z7niOb2LDu89DZu59W1uz6zIulm9D7cvSM4B2yebZcQtY0PMV/LYdMaL3TjB2UOGbKeBhfVi/MaGdQcffurQIgiAIgiAIgiAIgiAIgiAIgiAIgiAIAiP/A+hUBSiZhkigAAAAAElFTkSuQmCC;" vertex="1" parent="1">
          <mxGeometry x="730" y="305" width="90" height="90" as="geometry" />
        </mxCell>
        <mxCell id="yzWlFv2qgCpfA1fJS8uX-39" value="" style="shape=image;imageAspect=0;aspect=fixed;verticalLabelPosition=bottom;verticalAlign=top;image=data:image/png,iVBORw0KGgoAAAANSUhEUgAAAOEAAADhCAMAAAAJbSJIAAAAwFBMVEXMAAD////z8/Pr6+vl5eXk5OTm5ub6+vrj4+P7+/vJAAD39/fv7+/8///m6+vs8PD3///q9PTVZGTjnp7Zdnbu9vb35OTm7e3UVFTjw8PYa2vMCwvtzs7PODjfpKTciIjNJCTq19fRRET36+vOGhrrv7/ckJDRTEzlq6vPNDTswcHNFRXl1NTmtLT89fXhwcHdg4PWaGjimZny09Po3t7YW1vTUVHUb2/pqKjYe3vrubn02dngrKziycnk1tbUSUlSRWKgAAATbElEQVR4nMVde1vqPAxnMoYU2m3AmChXEbwrclD0oOf9/t/q3QVwwJakXaf9xyc+LG0oS/rLrSXDMKqmZZ4Ef8uWVSmWrGxIs+iJvkmr9CMz2UKI4I/heZ4T/vH9kOTWj0l48NXqI7nwPafa6d0s5u3mWf/+6qpUur+/uH5trhbv0/WD7TqFzJsgrVK1Wq2Xy+WTarXWCP7WtJDVRtm2Dd7pzl5GLByl4xH//3r+/mfpeDavFbCMiCyZZqUcSHtSMU9rwd9TDaQpfONpOuunS5Yiaam5mJqurXkZG7IU/FLjZVlmNfhbyU86/wYvNOH2xLyad2uGZ2lbxpYM9tDcSFypRl9ADtISnvFneCsnXFLM/xZfruB5l7FPlk60jbrjTVeSe3cs5cW853j6FnVyEutSsxJrHvNUmRTutJ1XvI2QpfmDrlUFv1Bd9nA5K2kRbyNk/0aXtYzsYe10I3El+gKkybrRa2oUL5aRtYNXMs+qNqRZCixGI7AgJ8HfemBB5EnOB8q6BRay33Vs1VXtyGpgLcyNbq3EqlaKtDxjoeftS5WxNPCEwqr2yHz20C8Pi5NvIyPPaw8rlfgEcFqJDwQypBgWKl4sI7uRXNUBGWuaymn8XlZO6aRlDwoXL5bx6ll5kcH+KVsL7/m++A3cynjZMWo/jZ4m1z8mXyRjuy5+Ej3VeetH5YvGwPtB9LQe/byAJfb2VP0p9PQDGjRdxoH9E+jJ6/zGBm5EvFyKwtGTs/g1+SIZH52i0dPPqtAUEc9dq0D05K9/Wb5wXCyFtD0kIhHT/QUbkTLYI33NUuipyrWDQMXBhk4R6Ek89X9bst1gZ7Z+9CTGOjYwwzksP0ZLuj2koSe/m2NlkVxvr6v27P39vTVbDOft5nVOYe8netGTM1VcTejPHj6ul67nG2EYQ4h68Nf2/YDs9Abta2U5WVdoRE+ukpln7Ho4XfrJ2Ms+Zy583+lMP9TcPKzrkK0FhkTcmfwS2NX8TyJ+loVxIp3uLT9VXK3sDuIsg548aQHZ7WLsyISTbJv35D0+7I5XdaAnT9LOs9LsweWprCDS8r21rJDs0a+inFFrIfkTZa89R+x8jdIOspu+3GxT3BOHoScpARkbPuULGNXdL6mTE/uDckbQkzOQEXBxoiFq5CznMnP26rnQk+jRJ2NDkJUE6VsSXgS2NEHOMHoS9JMMG1pSoAaBaZMX8sz3S9weZkEPa0me5mXs54oQHZMd8jmgD7IC0RO/oArYd6r5IkTHZMO5oYr4CoEpCD3xV6qApVLTMDAUI0/WzmkysqGrhJ5cGache1c0gDBJPPCzZxuwh1noSTzK2d5evghROlk3aZ4vtsxmlYmeniRPieyhksUqF0l7G0e+PHoayQmIam1lck2ave1LoidH5lyxGZfprPKStkX5pbJHIYWe7C8FUMpWvJjsO69NEXEphZ5qaqh75kuHsWgkxcfwnyODnpoqAiJaOw/pP+MisoFPR093yrl340NWmkiKr489WGT0pO7mu5/kh0+pwyOETC5T41Ip6Im/KAsYzOLrSLdLITkOA9gjET39yeWWbrqa7eGWFLh+ZzUaehrlETBQqM43K31gKiAJaPXcI6AnW8ZvkSpiN3+6XTrJURFZhxPQU+7QCRsLPejpiMS9RrfHzx7aQ/8DWz/uC7tfWprt4ZZ0scMkm6Lo6QFjsTBwYNy3NaGnI9I9w+bG0JOLWYqmURH32Cxs5WlDT4fkCJl6IAwQPWFbOAo/TLBMQ7+oUiZscmalWItvrOEiB1I2CT9MUNvsWRRUymRjvoeZAaEnJJTNHmN8RHCDsbGtsXYpSWJYih3EvPbRE7KFTXcb9MYB8v1TARVVMTmCZ56JTPRU6yDrNszth21Up5Uubf3WIiaRZTI/Ez3xOfzk3TcwsXCFGu64NvS0T8LxsECdZqGnBvzdvOyBkzL+Ks6ks+yIwxmBE9/vzZtET8hXU95LmbMJCrXH9aGnPRL+ne7Nu4eesL3fN1M+fkQPTqgFVfq2wXnfjHT0BG9K/wiY+LjbPzih6kNPSRJ2lbGJmYaevDfwoe5xdImDT0Tjktf0oacEiWC8IU9BT9Y/8JmmmwJqbPyE2tSJnhKkB0+b+PDOHooZ+Mg4DRBZS0zCAIs4+p2LAWn/hTYkjBMdoSf3Clpo008FNZQT6lRoRE8JEkwGfTlGT3XQW8c6WaAGj8FlP5uLhKN/7LRyiJ6qQ+QryVDiyDkoGk+F9IWwoR8d+xSH6MmBlhhuQxaosXGF2i+kL4QA1emZf4CeGmDizKUDgBoPzWdgTUdnKGpLguqUHaEn6EfKenUI1ODRYjbLejYXCaUUsr/1A/QEWjZEieMhhTAVtADXGzTvubOPnibQ19FCQA0h+S14k3WGojbzQoCdeWYSPdWhNbIGimYIiSkFBKXqkPLYpfRFuvTUhxTiKyGchEP+fuazOUhIwpmRRE82tAefAjdTfIRJGJxQ9TsXIUTbT9jDmgkFrphNATV4uCP4UrWGokISQsKslkBPHMoEaHNSVRRBoU49raGoEPHdAtPd2Qn0BCilqFKMAmrAw37MqkdkRSZBQDQUCfQEalKqmSIo1CfNzkUwLvzmVnboCfo5n3kGFdRQTqh6Q1EVF5iM2Tv0xAFryFqcDmpGqIhvruZQFOCSCk4ZW/TEgago60i0ayCcUOekYiU6CaDEMDVjYy34NbAkKVCDhQXiIK1OMAXFkoY79MSBFZ1zGVDD8Wwq1uE6m/s5AHZ74xv0BEY8F9sYAA3UEKrA2NLUGIri58BU/sZaQO4k9iwklTieyDCyNbreOBDKZMtIl5qmADrpsIo0qMELot8MIisCyYFXn32FdV8BevIAZ9KVfPhogkqoNygFSHhT36An4Mx2Lg9qCFXf7NPXFooCbD5r2Rv0lP27YgsFM1UlKNQvbUVSPrA/bW9jD4F9/qsEagg1i0siK5QUwDv26sXoCYC/7KuhBGpwyD/yNIWiIGU6cmL0BASd2D81jGMTFKqrKRQFOGtYpEstCIEwV81MWU+ohN/lWDnBFGQuIgkrFpQH7yliHMhMbacf2Cqcj8gqIOHEiNATAM6vDVWMQygMY2tLRyjKByR8sCL0BLyqZ8pK3CQU97GlDtebn332Zl+xtXjPXsrKUMY4aBZgKTyhaghFAaHdWMIqb2UvYcVzYBzch1p68zRURWWjW/Zoh+hJZIed2EDkwDgVQpR/6JzmDkVl5yyHB5bQWmQfClhL5ME4lAqJz/RiJRkSk9D0s505gYS5MI7A63hZV+QNRWVj4FjCEw9wV7WwlgzIIASlWDknenIACR/rEXoCJIwzinNgHBdP7B/lDEUB4II9igg9AYfzhbqZ2mZM4CfUVy+PPTR94D18FJE9BMLhQyMvxqGkTQ1zdZyAJPwM97BsL7Inn9v5i5UIJ9RHniMUBenSOx6iJwFI+OHnjxB5BIW6zhOKGkF8I3sInGlefA0+P0IeKnvK0Tg9O40klrAiPrMX0PS1FCuRTqjKEwHYIszlCjQNAJLvDT0RoktUxFfliUzIRWFG6AmIT7Pc1iImLVRCNlSdCCjVCl0UobWA3ABVPREiG6sYixSq0kRgTMKLYk81yGu81nQNk01QqD1biTMQ3r33otgTFCkODgW60u3wzn3sSYkzkEcSvNxR7MkDUlED+KTHI0bpRDHiKpyB8NpL5GszTR8IAa98bel2PuGEqsJ5lM1vSIg99TVGiZ7w2oW5/HSQM3EXewJcUUxnuh2U4rldkzRnyFj82caegFhRcCrQmG6H9ygMOz1KcYYuSmGTbS4GZBD/6ky345QTqhxnG8qU2WXuecC8H7bOzg/GChXxwpPizIHcvWtvm7nnAVruytMTIdqS+An1kktwNutQVqXYZu5Bvii21GUPY7KG1y4MJTgLKN48ENvMPRsqPv/UEyHakQTIf0PnDLizS6xr7jL3oPha29Db+cEjKNRnQeYMpdDWvuueoBRmxnUnZxN6S5Pb90Emtm981z25gKphPcWLlrJJXKGWOJEV9H4Nje+6JxsqQJspgRqI5LhCfaO17+NASgT7yxN1TxB6uzK0oKcEadZxhTp3CazMCvR6La1E3RNkVUKHlebOD5xwQm15OCvITVi6cvfqniBkM9SDnvZIgkLt4qwg/VH68JN1Tx5YQVpA8weHAPnxSikoMZZNk3VPFQFZxF1rUJ2dH1xcobJtlD+LlQNll7HNh7ddI8DCp8tC2ujhCvXaB1lZYBHp5SZlfts1woc6YLEHTehpn8Qhfxts3wen7Cy8+MPbrhEcrOmZOzqLlbbN/Qh5qDcewApUj8FbXN7vGgHZixJrWAV0fgBf/s3EXaB9H1hLdnvUNcIBw9HD/BkTKaQHOIi2IgLt+8Aa2dZR14j6JzhR2Syk8wMB8pezngVhGJuk9NwDH2hpQ097pE04oWa074OynwNc4ab03ANbQoZYq4DOD1YZP6Gu3LRna3Csp7Wr7E303AMPUmxYSOcHSxA6FLY2if17zyJlHbtMjWTPPdg+sSetTci/L96lnFCP2/dx+LGml9ZzDzyoBw/JX+FEIn1KUOqofZ89gr+TxIcTPffgcuwo6l9A5wfKCfWifJgTCHdxuE8ir0TPPSCFLxwjQyN6SpL+f5iEpcv9EFgFaYcXZ5Af99yrw8eoAJPqR1HRaOAKtb2H4MCGGMGn9/INkz33IN93+OADfLOSMmkTFOp7oo0e6AaOkx4yeu7ZyEHxP1u7PcSzDbbL7n2377PgPWf17I7lLuBfDR+dGTrRUzL7jqBQl2LzYSwBaQV0LMfKeNnY1tyEfNe+b4VJWLqox+37YKAXLnKvVuuwYzm8iaULW3cT8i1pA8kEm3EdfZhjJfHnrgl1LMdeiKamYqUj0iScUNthYySsxoF1DpIADzuWI5u4cWNq7fwQk5Qe2i2/4kK12+FoIx3LLeyYGOg07U3INyThhNpDr39iywPOx/c9YcWReoqV0khOUKhovdjQP+B8fN8TGsEMDol6Q1E70sVvPUI/YB1yPr7vCWoDEo++hmKljPZ9uEJFvoAbm3DfE97k+dUxtd/oFJP0GxfTx61xzPn4vicEmYTf1FkhrreQxINS4MK+Ui7PTbnvCWovteH0YetuQr69LZdwdVX2aPspnNPueyI4oz8Ka0aO+1CzV5VapZV2W64PthSOmb16lu4bnTakwq19mzXdpXFOvy0X9oLE7M7sApyLEamqUJupnNNvy0WvKglHP7pquAAw1VATkKVzzrgt16Bc+nQxyV8Vldq+T0mhsl49lXPWbbkO7m4PnXZ+MWBK4V409pHFOeu2XNJ1zto6PxyS5MuOd2OUyTnrtlxCcC8U8bqR8qwG8kNSxKiSIZ1V5m25lDaI4ej6hYApifukS3FdiPRtuVStzT7cul5rEZFcZhPZ3MhklXVbbqS1icfgi/Xxs/lJmRuXL41aJquM23IjkpBKsPkK2zWuHUxx2k3H0VdcrwGs0m/L3ZC4X2Er48A4fDYnKXwwTWtv8iVYnJV9t3pIEpJdN7Pc/tEKplygjOJw6j9wa4vU23K/SbrWZs3Otiw6P5jq3tLn/YtwTr0tNwFm8DaICRnHTs4uE+GoOz26fIT+fWnoaY88k9BprNlzBZJuh5J3fZkZP1yEczp62iPx+GVyxv6g7CnbQ+E3WkzKEH44JsI5HT3tkZgb/HBSNgzso61SFWU/N6XkC4/bKOcM9LRfrISXRh5MfDVbc84l0FON215vfiF7GF15OC7LQk8HxUrSR312NVwLVzQwzoHGsyxu1O7auLP3aI62axJwGWwPt+SrAiZlpbPFV/BsXWwnPuAcd81wy9NZX+7HueE/pN0klYWe9knnTc09xFj/46a7dMPX2RJWtKVWuGmGIXzfm/TeV7cq0oWsF0Qglo2e9kllD1ggJSv1X1eLv9P1+uthPO6s19PPwWx+HuyconQh1xuXBsQg9LRPkg9wgKTfIyevEuv5RDsEoacDEu+K8HPjYkJuMQGhpwPSG/+2XNvBLusSfdRB9HRA1uStRhGDffiWBBCjWYstSfTdFCvgVA6IIejpsPMD3pW0aPkuJpK4DEFPh8Nr/O4vlbWlARqKng5JTmhlXZyAU2lcRkBPh6T/lTMUrS7fdU0elxHQ03FkyvsdhcMGYBlUDvR0TDpjCT+DLvmaVa4S1aKhpyPSQu7jLWB8SS9SCj2ltGuo4+k9+gabubbCIiXQUyrZUUGNSvJ9WEI9jEVFTymk5cq4/dTlaz746ouUQE/ppITrVl2+XGEsCfSUTvJnGfemvHwdo5EvjCWBnjJI2+tK+MWlxGPtsZH/cigZ9JRFOg/z/Kj9SL5Sq64ljKVqLfZIy/dvtP5YGTt7JHSNKAA9AfcuGZ2hro1k961/vtCxKgX0BI0q7+UXkrH7+ZeOENZuSKMnBFt151c5XITstrU2bK05gQroCSYt4Y5vzhWEZIytHpeab0dURE8IGR0mxoMVfS8D4UYf04khNrFHre0p1NATIfsujD11W6tr0Psb+Yb7HzfrquHZjWIqqhTRE4k0hQg0fnX8uWi/XN+zg3HVf5nfTDsN3xMyTfZ+Dj1JkEJEMojlcjnpdMYPD/8mnBue6ysDIjl7WLyEh8cDy6r9yEQb8n+mloOOWY8ESAAAAABJRU5ErkJggg==;" vertex="1" parent="1">
          <mxGeometry x="907.5" y="172.5" width="62.5" height="62.5" as="geometry" />
        </mxCell>
        <mxCell id="yzWlFv2qgCpfA1fJS8uX-40" value="" style="endArrow=classic;html=1;rounded=0;exitX=1.125;exitY=0.569;exitDx=0;exitDy=0;exitPerimeter=0;entryX=0;entryY=0.5;entryDx=0;entryDy=0;" edge="1" parent="1" source="yzWlFv2qgCpfA1fJS8uX-37" target="yzWlFv2qgCpfA1fJS8uX-39">
          <mxGeometry width="50" height="50" relative="1" as="geometry">
            <mxPoint x="-207" y="359" as="sourcePoint" />
            <mxPoint x="-150" y="357" as="targetPoint" />
          </mxGeometry>
        </mxCell>
        <mxCell id="yzWlFv2qgCpfA1fJS8uX-41" value="" style="endArrow=classic;html=1;rounded=0;exitX=1;exitY=0.5;exitDx=0;exitDy=0;" edge="1" parent="1" source="yzWlFv2qgCpfA1fJS8uX-35" target="yzWlFv2qgCpfA1fJS8uX-37">
          <mxGeometry width="50" height="50" relative="1" as="geometry">
            <mxPoint x="675.16" y="220" as="sourcePoint" />
            <mxPoint x="725.16" y="265" as="targetPoint" />
          </mxGeometry>
        </mxCell>
        <mxCell id="yzWlFv2qgCpfA1fJS8uX-42" value="" style="endArrow=classic;html=1;rounded=0;exitX=1;exitY=0.5;exitDx=0;exitDy=0;entryX=0;entryY=0.5;entryDx=0;entryDy=0;" edge="1" parent="1" source="yzWlFv2qgCpfA1fJS8uX-35" target="yzWlFv2qgCpfA1fJS8uX-38">
          <mxGeometry width="50" height="50" relative="1" as="geometry">
            <mxPoint x="675.16" y="330" as="sourcePoint" />
            <mxPoint x="725.16" y="275" as="targetPoint" />
          </mxGeometry>
        </mxCell>
        <mxCell id="yzWlFv2qgCpfA1fJS8uX-43" value="Transformed data" style="shape=image;imageAspect=0;aspect=fixed;verticalLabelPosition=bottom;verticalAlign=top;image=data:image/png,iVBORw0KGgoAAAANSUhEUgAAAOEAAADhCAMAAAAJbSJIAAAA21BMVEX///8fckaFvp+YmJikoqKhn5+urKz19PS6ubna2dmCvZ19upkAajmwxbjOzc2QkJBnlnrs9O+gy7PT5tsUb0DA3MzK4dSRxKjk7+mjzbbd7ON5uZfj4+Onp6drlX5cfGpNc15vbm9lY2SFg4TGxca9u7uQtqHD08mzsbLz9/UvflTN3dQAZjF1noaBgIHx9/RMjGlalHQmeE6ArpWMlZBgXl9bhG6ls6upw7QAYSeYu6eApY8/g16uzLxXlnakqaVQgmdEi2ZwpYmJtZ1rjXxAe1p6joOCkYlDfF3grz2wAAAGw0lEQVR4nO3dbXuaSBQGYGmMSRPSiI4JNXW7bVMUMBUx27qKu4lJm/3/v2hBBrVWDonOKz3Pl9ReR+B2CMMMSCoVDAaDwWAwGAwGg8HwSO9QTKpvZAmPq52qgHSqndfShLU3/FOLkTVJxONqT8BaetXa9aEkYtyGAtbSiz/H68OOlN9FccKjz3KI4oQxsVqVsKMKFFYqMVF8KwoVVmTsqGKFMVH4EVWw8Eg8UbCwciS80xAtFN9pCBcmRKGdhnih6E5DhlBspyFFmBCF7ahyhCI7DTnCpNOoCdpRfxW+68F5R+uu4bLjzJL8+8uH8421iOs0tgjPD6CcZ8IaXHeYUZKyDx8/ba5YWKexhxAsO6hmkhyhsE5DojAmithRZQrFdBpShUI6DanCRafBmyhXKGIwJVkooF+ULeTfacgX8u40FBBy7jRUEPKdgVNCyLXTUELItdPYIvx0DuVTJuyAZecH2cYni/v41xd4Mzh2GoJGwIdFVyn5XbaRNMbfEl79ojpCXjNwCgk5dRoqCfkMplQS8uk0lBJy6TRECY+Lixa5Zt5p7N7jN6625pT+fEXLrOTF1/fv/8zJ0+btYaw/8t3P2honr6BcZsLT+EUszMvtL3eIaSm8+SM3365/Tk1PYX5Omxur/1x6IfNDHwpRiEIUohCFKETh7sKTpfBKPWG1A6WaCd9egmlkQrjssi1eKDnyha7Vbna7ZzbbzVhFonBg+93ZeDK9GQah8feY7WbsskHsFmi1W7OJk8ii0DBJHMMwz9huxos2iN0C7eZsMophQeQZJJVl0V3Ybk1G/0RhGMaWn2B6CulMphvH7sYyz+z3TXOrS0/hwb+W3fZnzjyIaYWyNaFlg7GyNcBltstNOIhdfnf8eHf3ItpK2Lg6hbKaLwXLrtif07hW0++ejZ1pfeiFC9iLaGtC5c5LB/ZFazxxbupB4BkJbReZ0sJpEMX9GdlPprSwbjKQqS1k0XYoRCEKUYhCFKLwdxOengA5Xc2XQmUnLMcWrIUXLTAXdLUDuKy1OWmnkJBTUAgEhShEIaOgEAhrYfN5/aGrb39Y/nOa3+C8FIUoVEGY/w7dhCbNiuYluR9GJRFGk+4i4yD7n3s/SdP+J+89mgmN7ARlSkvMSfq67ZWkDcmcnljMQrr99PVD7meimdAg3bSkPVzUkFF66bkd5b5FO+F8kNbQRvPTV07uG7QTGiE1tZJfPFJPd1IbOvrqJjQfaFEQFxF6R9c4v14/oRHSm0McYpAgXSnUhGreiwEKTSctsk2DOOlxpguUP+N+muW4r6BsIEhoEFoVEG+2+Ic1Bz8R/cb4ZuqqzPo3aRP64I0NGgpJlFa5YXo+44JNqKPQMGgjOumN10343hQthfW0jB4h4CbUUxj5a8V2we1FWgqN6VrxqIxCstaIdljwacTCWQPMW7qowSVYxvL7FoVtSCbL2oei2sVZG5hnzpcKnachQfZ5uvnDpnWhVuelC+F0eedywZFUV2G4Onr4BaV6CkndWhUHBcVaCsP1L/p0++UTkuFP45j7wnMa7YQGbcJW+sOHG1FDIQnSKpuO9t3cyWBdhdn4cJ615VnZhF5a5BqEjoDtYcEYXzOhSVtuRoyITg+PyyWM6IE0bjhCJ6WaUJ+onbBPm9D3jOVsYmVSIiG5pyP7xcUnQs/eoEaMhZfbn/V1te1ZX0AEXSGlJn8xpiDzbHoYbENO4XN1bUibcEJf06Gwn3sJWDdh1gVatMSks96VUUmEZEhHvmfZ3IVH27SZO5mhmXCUFrhOVpGd4OSPhPUSGtHNIvXVr13kLDIblUSYPk5gy3dLQ+hOBU5R6J4oTlFIqFWPv5NQq7M2FKIQhShEIQpRiEIUolBjIYs7FVQeW7TewqGrHTTAqobIu01eKOQUFAJBIQpRyCgoBMJaaLfh0NW6BWUsv43wwgd4FgnV+0bJmTMfRqG571MvV0LlzksrrhXvWH53PJrfh894kK6GwqXUHViuP3uY33v9/vZLMpoL12N9e3ycB+klppdQ9RFmz4K2W+OH+TCIIi+EvqSup3B9gfbFbDy9++/79+RR3lCTaitM8u784Pb2x4/Hr1/v7mLq9p1XdyHN7e3Tj4QaN+rmA4hLIlyTPj0lUgolpROupEmrOqO5l/z1hzIK8S/poFAdIZylEBwzrD0JS9jY4rnCozdwjmhd8wJMtuUuXHZhbaxe6F9hkRIUyl/gvkGh/AXuGxTKX+C+QaH8Be4bFMpf4L5B4Q4L7LFd4L7h0YavlUqPvVC5MBb2DpVLh63wSMGwFWIwGAwGg8FgMBjM75j/AYCdt0wJ2r0QAAAAAElFTkSuQmCC;" vertex="1" parent="1">
          <mxGeometry x="890" y="305" width="80" height="80" as="geometry" />
        </mxCell>
        <mxCell id="yzWlFv2qgCpfA1fJS8uX-44" value="" style="endArrow=classic;html=1;rounded=0;entryX=0;entryY=0.5;entryDx=0;entryDy=0;" edge="1" parent="1">
          <mxGeometry width="50" height="50" relative="1" as="geometry">
            <mxPoint x="820" y="350" as="sourcePoint" />
            <mxPoint x="890" y="350" as="targetPoint" />
          </mxGeometry>
        </mxCell>
        <mxCell id="yzWlFv2qgCpfA1fJS8uX-45" value="&lt;b&gt;&lt;font style=&quot;font-size: 48px;&quot;&gt;EVENT DRIVEN ARCHITECTUE&lt;/font&gt;&lt;/b&gt;" style="rounded=1;whiteSpace=wrap;html=1;" vertex="1" parent="1">
          <mxGeometry x="-340" y="-80" width="1390" height="60" as="geometry" />
        </mxCell>
      </root>
    </mxGraphModel>
  </diagram>
</mxfile>
